{"glyphs":{"0":{"ha":896,"x_min":39,"x_max":858,"o":"m 449 958 q 547 958 449 958 q 752 831 646 958 q 858 468 858 703 q 752 106 858 233 q 449 -22 646 -22 q 145 106 251 -22 q 39 468 39 233 q 145 831 39 703 q 449 958 251 958 m 449 756 q 416 756 449 756 q 349 681 383 756 q 315 468 315 606 q 349 255 315 329 q 449 181 383 181 q 547 255 514 181 q 581 468 581 329 q 547 681 581 606 q 449 756 514 756 z "},"1":{"ha":896,"x_min":129,"x_max":633,"o":"m 357 0 l 357 574 l 129 574 l 129 771 q 313 810 253 771 q 386 936 372 849 l 633 936 l 633 0 l 357 0 z "},"2":{"ha":896,"x_min":50,"x_max":842,"o":"m 444 958 q 641 922 557 958 q 770 819 725 885 q 815 669 815 753 q 752 489 815 557 q 565 367 689 421 q 445 306 486 331 q 389 260 404 281 q 371 217 374 240 l 842 217 l 842 0 l 53 0 q 50 54 50 31 q 75 232 50 157 q 158 367 100 307 q 319 481 217 428 q 442 547 400 521 q 510 604 485 574 q 536 672 536 635 q 513 733 536 710 q 447 756 489 756 q 367 722 396 756 q 336 625 338 689 l 63 625 q 164 872 64 785 q 444 958 264 958 z "},"3":{"ha":896,"x_min":39,"x_max":829,"o":"m 442 958 q 642 926 557 958 q 772 833 726 893 q 817 693 817 774 q 778 567 817 615 q 656 488 740 518 l 656 485 q 788 403 746 456 q 829 265 829 350 q 782 113 829 178 q 648 13 735 49 q 446 -22 561 -22 q 144 65 249 -22 q 39 317 39 153 l 317 317 q 349 215 317 250 q 444 181 382 181 q 525 206 496 181 q 554 272 554 231 q 518 347 554 322 q 406 372 482 372 l 382 372 l 382 569 l 414 569 q 510 595 475 569 q 546 665 546 621 q 518 731 546 707 q 442 756 490 756 q 353 722 383 756 q 322 626 322 689 l 53 626 q 156 871 53 783 q 442 958 258 958 z "},"4":{"ha":896,"x_min":14,"x_max":875,"o":"m 718 181 l 718 0 l 451 0 l 451 181 l 14 181 l 14 392 l 368 936 l 718 936 l 718 382 l 875 382 l 875 181 l 718 181 m 463 382 l 463 476 q 472 747 463 621 l 469 747 q 329 511 408 631 l 244 382 l 463 382 z "},"5":{"ha":896,"x_min":60,"x_max":838,"o":"m 347 719 l 332 563 l 335 563 q 524 629 414 629 q 687 590 615 629 q 798 481 758 551 q 838 322 838 411 q 788 140 838 218 q 649 20 739 63 q 442 -22 560 -22 q 163 57 267 -22 q 60 275 60 136 l 336 275 q 367 203 338 229 q 446 176 397 176 q 533 210 501 176 q 564 308 564 243 q 533 404 564 371 q 449 438 501 438 q 376 415 404 438 q 340 353 349 392 l 74 369 l 125 936 l 778 936 l 778 719 l 347 719 z "},"6":{"ha":896,"x_min":58,"x_max":843,"o":"m 474 958 q 726 881 631 958 q 831 665 821 804 l 557 665 q 527 738 551 713 q 461 763 503 763 q 365 706 401 763 q 324 529 328 649 l 326 529 q 536 613 406 613 q 694 574 625 613 q 803 467 764 536 q 843 311 843 399 q 794 138 843 214 q 659 20 746 63 q 461 -22 572 -22 q 164 99 269 -22 q 58 450 58 219 q 108 722 58 608 q 252 897 158 836 q 474 958 346 958 m 463 426 q 438 426 463 426 q 385 392 414 426 q 356 301 356 357 q 385 213 356 246 q 464 179 415 179 q 541 213 511 179 q 571 300 571 247 q 541 392 571 357 q 463 426 511 426 z "},"7":{"ha":896,"x_min":61,"x_max":819,"o":"m 819 724 q 641 392 717 582 q 526 0 565 203 l 232 0 q 363 397 276 208 q 550 711 449 586 l 61 711 l 61 936 l 819 936 l 819 724 z "},"8":{"ha":896,"x_min":57,"x_max":839,"o":"m 449 958 q 503 958 449 958 q 642 926 558 958 q 771 833 725 893 q 817 694 817 772 q 771 563 817 618 q 644 488 725 507 l 644 485 q 786 403 733 465 q 839 256 839 342 q 735 51 839 125 q 449 -22 632 -22 q 160 51 264 -22 q 57 256 57 125 q 110 403 57 342 q 251 485 163 465 l 251 488 q 125 563 171 507 q 79 694 79 618 q 125 833 79 772 q 255 926 171 893 q 449 958 339 958 m 449 764 q 423 764 449 764 q 366 738 397 764 q 335 668 335 713 q 366 599 335 625 q 449 572 397 572 q 531 599 500 572 q 561 668 561 625 q 531 738 561 711 q 449 764 500 764 m 449 381 q 361 353 393 381 q 329 279 329 326 q 362 203 329 232 q 449 175 394 175 q 535 203 503 175 q 567 279 567 232 q 535 353 567 326 q 449 381 503 381 z "},"9":{"ha":896,"x_min":54,"x_max":838,"o":"m 422 -21 q 171 56 267 -21 q 65 271 75 133 l 339 271 q 369 199 344 224 q 435 174 393 174 q 532 231 494 174 q 574 408 569 289 l 571 408 q 360 325 490 325 q 201 363 271 325 q 93 470 132 401 q 54 626 54 539 q 102 799 54 724 q 237 917 150 875 q 435 960 324 960 q 732 839 626 960 q 838 488 838 718 q 788 215 838 329 q 644 40 738 101 q 422 -21 550 -21 m 433 511 q 458 511 433 511 q 512 546 482 511 q 542 636 542 581 q 512 724 542 690 q 433 758 482 758 q 355 724 385 758 q 325 636 325 690 q 355 545 325 579 q 433 511 385 511 z "},"\u0000":{"ha":833,"x_min":0,"x_max":0,"o":""}," ":{"ha":319,"x_min":0,"x_max":0,"o":""},"!":{"ha":510,"x_min":103,"x_max":408,"o":"m 144 310 l 103 989 l 408 989 l 367 310 l 144 310 m 117 0 l 117 224 l 394 224 l 394 0 l 117 0 z "},"\"":{"ha":682,"x_min":61,"x_max":619,"o":"m 92 590 l 61 989 l 315 989 l 285 590 l 92 590 m 396 590 l 365 989 l 619 989 l 589 590 l 396 590 z "},"#":{"ha":999,"x_min":47,"x_max":950,"o":"m 764 393 l 897 393 l 867 214 l 735 214 l 701 0 l 494 0 l 528 214 l 388 214 l 354 0 l 147 0 l 181 214 l 47 214 l 76 393 l 210 393 l 233 544 l 100 544 l 129 724 l 263 724 l 296 936 l 503 936 l 469 724 l 610 724 l 643 936 l 850 936 l 817 724 l 950 724 l 919 544 l 788 544 l 764 393 m 440 544 l 417 393 l 557 393 l 581 544 l 440 544 z "},"$":{"ha":911,"x_min":54,"x_max":856,"o":"m 856 278 q 773 78 856 154 q 542 -17 690 1 l 542 -137 l 361 -137 l 361 -17 q 134 85 214 3 q 54 301 54 167 l 333 301 q 366 211 333 240 q 464 182 399 182 q 553 203 522 182 q 583 263 583 225 q 565 308 583 290 q 514 337 547 325 q 407 369 481 349 q 232 428 300 399 q 118 515 164 458 q 72 664 72 572 q 147 856 72 781 q 361 951 222 932 l 361 1061 l 542 1061 l 542 954 q 758 860 682 938 q 835 651 835 783 l 564 651 q 447 763 564 763 q 367 742 394 763 q 339 685 339 722 q 356 640 339 657 q 405 613 372 624 q 507 583 438 601 q 690 526 618 557 q 808 436 761 496 q 856 278 856 376 z "},"%":{"ha":1328,"x_min":63,"x_max":1265,"o":"m 329 -42 l 835 978 l 999 978 l 493 -42 l 329 -42 m 315 965 q 376 965 315 965 q 501 890 436 965 q 567 674 567 814 q 501 458 567 533 q 315 382 436 382 q 128 458 194 382 q 63 674 63 535 q 128 890 63 814 q 315 965 194 965 m 249 674 q 265 558 249 596 q 315 521 281 521 q 382 674 382 521 q 315 828 382 828 q 249 674 249 828 m 1014 554 q 1074 554 1014 554 q 1200 478 1135 554 q 1265 263 1265 403 q 1200 47 1265 122 q 1014 -29 1135 -29 q 827 47 893 -29 q 761 263 761 122 q 827 478 761 401 q 1014 554 893 554 m 947 263 q 963 147 947 185 q 1014 108 979 108 q 1081 263 1081 108 q 1014 415 1081 415 q 947 263 947 415 z "},"&":{"ha":1097,"x_min":51,"x_max":1118,"o":"m 726 67 q 438 -22 607 -22 q 152 57 253 -22 q 51 271 51 136 q 99 430 51 361 q 246 549 147 499 q 165 654 188 607 q 143 761 143 701 q 182 892 143 835 q 291 980 221 949 q 451 1011 361 1011 q 615 982 544 1011 q 725 899 686 953 q 764 775 764 846 q 586 519 764 619 l 719 389 q 743 529 743 440 l 996 529 q 970 359 994 435 q 894 218 946 283 l 1118 0 l 793 0 l 726 67 m 451 833 q 400 813 419 833 q 381 760 381 793 q 394 703 381 729 q 442 640 407 678 q 522 763 522 701 q 502 813 522 793 q 451 833 482 833 m 581 210 l 389 400 q 337 345 353 374 q 321 279 321 317 q 358 199 321 229 q 458 168 396 168 q 581 210 526 168 z "},"'":{"ha":376,"x_min":61,"x_max":315,"o":"m 92 590 l 61 989 l 315 989 l 285 590 l 92 590 z "},"(":{"ha":514,"x_min":56,"x_max":472,"o":"m 472 1029 q 365 717 397 864 q 332 413 332 571 q 365 108 332 254 q 472 -204 397 -37 l 260 -204 q 103 95 151 -53 q 56 413 56 243 q 104 731 56 582 q 260 1029 153 879 l 472 1029 z "},")":{"ha":514,"x_min":42,"x_max":458,"o":"m 254 1029 q 410 731 361 879 q 458 413 458 582 q 410 95 458 243 q 254 -204 363 -53 l 42 -204 q 149 108 117 -37 q 182 413 182 254 q 149 717 182 571 q 42 1029 117 864 l 254 1029 z "},"*":{"ha":653,"x_min":29,"x_max":624,"o":"m 564 889 l 624 700 l 422 678 l 572 538 l 411 422 l 326 607 l 242 422 l 82 538 l 232 678 l 29 700 l 90 889 l 267 789 l 228 989 l 426 989 l 386 789 l 564 889 z "},"+":{"ha":786,"x_min":76,"x_max":710,"o":"m 710 544 l 710 338 l 500 338 l 500 122 l 286 122 l 286 338 l 76 338 l 76 544 l 286 544 l 286 758 l 500 758 l 500 544 l 710 544 z "},",":{"ha":404,"x_min":35,"x_max":340,"o":"m 192 -257 l 35 -257 l 151 0 l 63 0 l 63 278 l 340 278 l 340 0 l 192 -257 z "},"-":{"ha":490,"x_min":42,"x_max":449,"o":"m 42 313 l 42 499 l 449 499 l 449 313 l 42 313 z "},".":{"ha":403,"x_min":63,"x_max":340,"o":"m 63 0 l 63 278 l 340 278 l 340 0 l 63 0 z "},"/":{"ha":721,"x_min":42,"x_max":650,"o":"m 42 -124 l 454 1035 l 650 1035 l 236 -124 l 42 -124 z "},":":{"ha":403,"x_min":63,"x_max":340,"o":"m 63 0 l 63 278 l 340 278 l 340 0 l 63 0 m 63 428 l 63 706 l 340 706 l 340 428 l 63 428 z "},";":{"ha":404,"x_min":35,"x_max":340,"o":"m 192 -257 l 35 -257 l 151 0 l 63 0 l 63 278 l 340 278 l 340 0 l 192 -257 m 63 428 l 63 706 l 340 706 l 340 428 l 63 428 z "},"<":{"ha":786,"x_min":76,"x_max":710,"o":"m 322 442 l 322 439 l 710 294 l 710 78 l 76 315 l 76 565 l 710 803 l 710 586 l 322 442 z "},"=":{"ha":786,"x_min":76,"x_max":710,"o":"m 76 493 l 76 688 l 710 688 l 710 493 l 76 493 m 76 192 l 76 386 l 710 386 l 710 192 l 76 192 z "},">":{"ha":786,"x_min":76,"x_max":710,"o":"m 710 315 l 76 78 l 76 294 l 464 439 l 464 442 l 76 586 l 76 803 l 710 565 l 710 315 z "},"?":{"ha":822,"x_min":35,"x_max":776,"o":"m 413 1011 q 680 940 583 1011 q 776 743 776 868 q 748 624 776 672 q 642 510 719 575 q 540 404 565 447 q 515 293 515 361 l 290 293 q 286 368 286 331 q 296 455 286 421 q 331 522 306 489 q 407 603 356 556 q 479 678 463 653 q 496 740 496 704 q 474 796 496 775 q 413 817 451 817 q 335 785 361 817 q 310 683 310 753 l 35 683 q 135 927 36 843 q 413 1011 233 1011 m 264 0 l 264 224 l 542 224 l 542 0 l 264 0 z "},"@":{"ha":1204,"x_min":35,"x_max":1169,"o":"m 621 989 q 909 923 785 989 q 1101 737 1033 857 q 1169 458 1169 617 q 1128 255 1169 338 q 1020 131 1088 172 q 871 90 953 90 q 750 118 797 90 q 686 199 703 146 l 683 199 q 508 90 626 90 q 352 161 408 90 q 294 367 296 232 q 331 551 296 471 q 428 675 367 631 q 568 719 490 719 q 706 636 667 719 l 708 636 q 722 706 715 678 l 911 706 q 871 479 888 592 q 854 313 854 367 q 867 260 854 276 q 906 243 879 243 q 994 298 958 243 q 1031 458 1031 353 q 980 664 1031 575 q 837 801 929 753 q 621 850 744 850 q 378 790 479 850 q 226 624 278 729 q 174 388 174 519 q 226 162 174 257 q 374 16 278 67 q 600 -35 471 -35 q 900 36 778 -35 l 963 -87 q 600 -174 810 -174 q 301 -106 428 -174 q 104 88 174 -39 q 35 388 35 214 q 106 690 35 553 q 310 908 176 828 q 621 989 443 989 m 604 544 q 528 501 558 544 q 499 375 499 457 q 517 293 499 322 q 569 264 536 264 q 643 312 613 264 q 674 442 674 360 q 655 517 674 490 q 604 544 636 544 z "},"A":{"ha":1015,"x_min":-3,"x_max":1018,"o":"m 340 178 l 290 0 l -3 0 l 329 989 l 686 989 l 1018 0 l 725 0 l 675 178 l 340 178 m 594 464 q 510 797 551 615 l 507 797 q 421 464 463 607 l 401 396 l 614 396 l 594 464 z "},"B":{"ha":940,"x_min":96,"x_max":900,"o":"m 515 989 q 785 920 694 989 q 875 733 875 851 q 835 594 875 649 q 711 511 796 540 l 711 508 q 852 428 804 488 q 900 278 900 369 q 801 75 900 150 q 529 0 703 0 l 96 0 l 96 989 l 515 989 m 364 597 l 471 597 q 573 620 540 597 q 606 692 606 643 q 575 762 606 739 q 479 785 544 785 l 364 785 l 364 597 m 364 206 l 476 206 q 582 228 550 206 q 614 303 614 251 q 580 379 614 356 q 471 403 546 403 l 364 403 l 364 206 z "},"C":{"ha":1014,"x_min":43,"x_max":972,"o":"m 515 1011 q 748 965 649 1011 q 904 830 847 918 q 967 621 961 742 l 675 621 q 626 735 667 694 q 515 775 585 775 q 383 700 432 775 q 333 494 333 625 q 383 290 333 365 q 515 214 432 214 q 626 257 583 214 q 676 376 669 300 l 972 376 q 835 81 957 185 q 515 -22 714 -22 q 263 40 369 -22 q 100 219 157 103 q 43 494 43 335 q 100 770 43 654 q 263 949 157 886 q 515 1011 369 1011 z "},"D":{"ha":1043,"x_min":96,"x_max":1000,"o":"m 469 989 q 862 860 724 989 q 1000 494 1000 732 q 862 128 1000 257 q 469 0 724 0 l 96 0 l 96 989 l 469 989 m 374 233 l 461 233 q 646 301 582 233 q 710 494 710 368 q 646 688 710 621 q 461 756 582 756 l 374 756 l 374 233 z "},"E":{"ha":882,"x_min":96,"x_max":819,"o":"m 374 760 l 374 611 l 781 611 l 781 388 l 374 388 l 374 229 l 819 229 l 819 0 l 96 0 l 96 989 l 811 989 l 811 760 l 374 760 z "},"F":{"ha":829,"x_min":96,"x_max":799,"o":"m 374 753 l 374 567 l 771 567 l 771 332 l 374 332 l 374 0 l 96 0 l 96 989 l 799 989 l 799 753 l 374 753 z "},"G":{"ha":1053,"x_min":43,"x_max":971,"o":"m 533 1011 q 756 969 660 1011 q 908 848 853 926 q 971 667 964 769 l 676 667 q 630 756 667 725 q 532 788 593 788 q 387 708 440 788 q 333 490 333 628 q 387 268 333 350 q 533 186 440 186 q 659 234 613 186 q 710 364 706 282 l 519 364 l 519 567 l 968 567 l 968 0 l 731 0 l 731 94 l 728 94 q 617 8 683 38 q 464 -21 550 -21 q 240 41 335 -21 q 94 218 144 103 q 43 490 43 333 q 102 769 43 651 q 272 949 161 886 q 533 1011 382 1011 z "},"H":{"ha":1071,"x_min":96,"x_max":975,"o":"m 697 0 l 697 392 l 374 392 l 374 0 l 96 0 l 96 989 l 374 989 l 374 625 l 697 625 l 697 989 l 975 989 l 975 0 l 697 0 z "},"I":{"ha":469,"x_min":96,"x_max":374,"o":"m 96 0 l 96 989 l 374 989 l 374 0 l 96 0 z "},"J":{"ha":594,"x_min":21,"x_max":506,"o":"m 506 353 q 418 75 506 164 q 147 -14 331 -14 q 21 1 88 -14 l 21 228 q 82 222 57 222 q 169 240 138 222 q 214 299 200 257 q 228 418 228 342 l 228 989 l 506 989 l 506 353 z "},"K":{"ha":994,"x_min":96,"x_max":990,"o":"m 990 0 l 643 0 l 376 443 l 374 443 l 374 0 l 96 0 l 96 989 l 374 989 l 374 572 l 376 572 l 635 989 l 969 989 l 626 522 l 990 0 z "},"L":{"ha":814,"x_min":96,"x_max":803,"o":"m 803 233 l 803 0 l 96 0 l 96 989 l 374 989 l 374 233 l 803 233 z "},"M":{"ha":1447,"x_min":96,"x_max":1351,"o":"m 1093 0 l 1093 474 q 1101 836 1093 656 l 1099 836 q 1015 478 1057 636 l 892 0 l 556 0 l 432 478 q 349 836 390 636 l 346 836 q 354 474 354 656 l 354 0 l 96 0 l 96 989 l 538 989 l 647 564 q 722 200 694 389 l 725 200 q 800 564 750 369 l 910 989 l 1351 989 l 1351 0 l 1093 0 z "},"N":{"ha":1149,"x_min":96,"x_max":1051,"o":"m 649 0 l 494 379 q 353 763 415 578 l 350 763 q 361 358 361 583 l 361 0 l 96 0 l 96 989 l 500 989 l 653 610 q 794 226 733 414 l 797 226 q 786 631 786 442 l 786 989 l 1051 989 l 1051 0 l 649 0 z "},"O":{"ha":1065,"x_min":43,"x_max":1022,"o":"m 532 1011 q 606 1011 532 1011 q 792 948 681 1011 q 963 768 903 885 q 1022 494 1022 651 q 963 221 1022 338 q 792 41 903 104 q 532 -22 681 -22 q 273 41 383 -22 q 103 221 163 104 q 43 494 43 338 q 103 768 43 651 q 273 948 163 885 q 532 1011 383 1011 m 532 775 q 386 702 438 775 q 335 494 335 629 q 386 287 335 360 q 532 214 438 214 q 679 287 628 214 q 731 494 731 360 q 679 702 731 629 q 532 775 628 775 z "},"P":{"ha":935,"x_min":96,"x_max":907,"o":"m 514 989 q 808 899 708 989 q 907 651 907 810 q 808 403 907 493 q 514 313 708 313 l 374 313 l 374 0 l 96 0 l 96 989 l 514 989 m 374 531 l 475 531 q 621 651 621 531 q 475 771 621 771 l 374 771 l 374 531 z "},"Q":{"ha":1065,"x_min":43,"x_max":1022,"o":"m 1022 494 q 990 289 1022 382 q 899 128 958 196 l 1004 11 l 865 -114 l 746 19 q 532 -22 653 -22 q 273 41 383 -22 q 103 221 163 104 q 43 494 43 338 q 103 768 43 651 q 273 948 163 885 q 532 1011 383 1011 q 791 948 681 1011 q 962 767 901 885 q 1022 494 1022 650 m 583 200 l 472 325 l 611 450 l 721 328 q 744 486 744 394 q 691 700 744 625 q 539 775 638 775 q 388 699 442 775 q 335 486 335 624 q 388 272 335 347 q 539 196 442 196 q 583 200 563 196 z "},"R":{"ha":979,"x_min":96,"x_max":967,"o":"m 903 706 q 854 553 903 615 q 718 464 806 490 l 718 461 q 805 398 772 442 q 875 256 838 354 l 967 0 l 672 0 l 601 213 q 542 315 576 286 q 443 343 508 343 l 374 343 l 374 0 l 96 0 l 96 989 l 536 989 q 903 706 903 989 m 374 544 l 492 544 q 632 667 632 544 q 594 753 632 726 q 485 781 557 781 l 374 781 l 374 544 z "},"S":{"ha":918,"x_min":29,"x_max":876,"o":"m 456 1011 q 751 928 646 1011 q 856 689 856 846 l 564 689 q 533 772 564 743 q 442 801 501 801 q 361 781 390 801 q 332 725 332 760 q 349 680 332 697 q 401 650 365 663 q 511 619 438 638 q 705 558 629 590 q 828 463 781 525 q 876 297 876 400 q 826 127 876 199 q 681 17 775 56 q 456 -22 586 -22 q 142 68 254 -22 q 29 321 29 158 l 329 321 q 465 194 329 194 q 552 217 521 194 q 583 279 583 240 q 567 327 583 310 q 517 357 550 344 q 410 388 483 369 q 215 451 288 421 q 96 542 143 482 q 49 701 49 601 q 97 865 49 794 q 238 973 146 935 q 456 1011 329 1011 z "},"T":{"ha":886,"x_min":11,"x_max":875,"o":"m 582 756 l 582 0 l 304 0 l 304 756 l 11 756 l 11 989 l 875 989 l 875 756 l 582 756 z "},"U":{"ha":1015,"x_min":88,"x_max":928,"o":"m 928 390 q 819 85 928 193 q 508 -22 710 -22 q 197 85 307 -22 q 88 390 88 192 l 88 989 l 365 989 l 365 394 q 402 265 365 310 q 508 219 439 219 q 614 265 578 219 q 650 394 650 310 l 650 989 l 928 989 l 928 390 z "},"V":{"ha":954,"x_min":4,"x_max":951,"o":"m 292 0 l 4 989 l 297 989 l 394 610 q 476 236 447 406 l 479 236 q 561 610 508 406 l 657 989 l 951 989 l 664 0 l 292 0 z "},"W":{"ha":1424,"x_min":8,"x_max":1415,"o":"m 847 0 l 772 399 q 714 772 732 626 l 711 772 q 651 399 692 610 l 576 0 l 201 0 l 8 989 l 278 989 l 338 636 q 396 236 369 451 l 399 236 q 464 636 424 432 l 533 989 l 890 989 l 960 636 q 1026 236 999 443 l 1029 236 q 1086 636 1053 436 l 1147 989 l 1415 989 l 1222 0 l 847 0 z "},"X":{"ha":985,"x_min":0,"x_max":983,"o":"m 983 0 l 657 0 l 493 332 l 490 332 l 328 0 l 0 0 l 306 513 l 21 989 l 340 989 l 490 671 l 493 671 l 644 989 l 964 989 l 679 513 l 983 0 z "},"Y":{"ha":957,"x_min":0,"x_max":956,"o":"m 617 0 l 339 0 l 339 361 l 0 989 l 306 989 l 383 815 q 476 571 442 685 l 479 571 q 574 815 517 689 l 651 989 l 956 989 l 617 361 l 617 0 z "},"Z":{"ha":840,"x_min":28,"x_max":810,"o":"m 361 231 l 361 228 l 810 228 l 810 0 l 28 0 l 28 239 l 454 758 l 454 761 l 47 761 l 47 989 l 786 989 l 786 750 l 361 231 z "},"[":{"ha":539,"x_min":83,"x_max":504,"o":"m 333 850 l 333 -37 l 503 -37 l 503 -214 l 83 -214 l 83 1029 l 504 1029 l 504 850 l 333 850 z "},"\\":{"ha":721,"x_min":71,"x_max":679,"o":"m 679 -124 l 483 -124 l 71 1035 l 265 1035 l 679 -124 z "},"]":{"ha":539,"x_min":35,"x_max":456,"o":"m 456 -214 l 36 -214 l 36 -37 l 206 -37 l 206 850 l 35 850 l 35 1029 l 456 1029 l 456 -214 z "},"^":{"ha":754,"x_min":7,"x_max":747,"o":"m 503 515 l 379 782 l 376 782 l 253 515 l 7 515 l 238 989 l 517 989 l 747 515 l 503 515 z "},"_":{"ha":694,"x_min":0,"x_max":694,"o":"m 0 -215 l 0 -69 l 694 -69 l 694 -215 l 0 -215 z "},"`":{"ha":539,"x_min":69,"x_max":469,"o":"m 469 781 l 267 781 l 69 989 l 358 989 l 469 781 z "},"a":{"ha":800,"x_min":25,"x_max":754,"o":"m 394 728 q 649 653 565 728 q 732 435 732 578 l 732 206 q 754 0 732 75 l 514 0 q 503 89 503 40 l 500 89 q 271 -19 417 -19 q 92 43 158 -19 q 25 201 25 106 q 92 353 25 297 q 313 432 158 408 q 475 450 388 444 l 475 475 q 392 572 475 572 q 331 549 353 572 q 308 482 310 526 l 54 482 q 144 658 61 589 q 394 728 228 728 m 367 301 q 305 272 324 292 q 286 219 286 253 q 306 166 286 186 q 364 146 326 146 q 409 154 388 146 q 444 179 431 163 q 469 224 463 199 q 475 290 475 249 l 475 317 q 367 301 407 310 z "},"b":{"ha":864,"x_min":75,"x_max":829,"o":"m 344 639 q 424 704 375 682 q 529 726 474 726 q 688 681 619 726 q 792 550 756 635 q 829 353 829 465 q 791 156 829 240 q 683 25 753 71 q 522 -21 614 -21 q 415 5 464 -21 q 333 81 365 31 l 331 81 l 331 0 l 75 0 l 75 989 l 342 989 l 342 639 l 344 639 m 438 525 q 358 478 388 525 q 328 353 328 432 q 358 227 328 274 q 438 181 388 181 q 519 227 489 181 q 550 353 550 274 q 519 478 550 432 q 438 525 489 525 z "},"c":{"ha":818,"x_min":35,"x_max":789,"o":"m 417 728 q 674 647 574 728 q 789 428 775 565 l 513 428 q 484 503 508 476 q 421 529 460 529 q 343 484 371 529 q 315 356 315 439 q 343 222 315 268 q 421 176 371 176 q 486 206 461 176 q 513 290 511 236 l 789 290 q 677 61 778 144 q 417 -22 576 -22 q 215 24 301 -22 q 82 155 129 69 q 35 356 35 240 q 81 552 35 468 q 215 682 128 636 q 417 728 301 728 z "},"d":{"ha":864,"x_min":35,"x_max":789,"o":"m 533 0 l 533 81 l 531 81 q 449 5 499 31 q 342 -21 400 -21 q 181 25 250 -21 q 73 156 111 71 q 35 353 35 240 q 72 550 35 465 q 176 681 108 635 q 335 726 244 726 q 440 704 390 726 q 519 639 489 682 l 522 639 l 522 989 l 789 989 l 789 0 l 533 0 m 426 525 q 344 478 375 525 q 314 353 314 432 q 344 227 314 274 q 426 181 375 181 q 506 227 476 181 q 536 353 536 274 q 506 478 536 432 q 426 525 476 525 z "},"e":{"ha":825,"x_min":35,"x_max":790,"o":"m 413 150 q 478 169 453 150 q 508 218 504 188 l 781 218 q 715 95 765 150 q 588 9 665 40 q 415 -22 510 -22 q 209 27 294 -22 q 79 163 124 76 q 35 357 35 249 q 79 547 35 463 q 209 679 124 631 q 411 728 294 728 q 628 671 539 728 q 760 510 718 614 q 783 419 776 468 q 790 299 790 371 l 297 299 q 331 183 301 217 q 413 150 361 150 m 299 439 l 522 439 q 488 532 517 503 q 411 561 458 561 q 299 439 317 561 z "},"f":{"ha":528,"x_min":10,"x_max":519,"o":"m 485 813 q 409 790 433 813 q 385 715 385 767 l 385 706 l 513 706 l 513 515 l 385 515 l 385 0 l 118 0 l 118 515 l 10 515 l 10 706 l 118 706 l 118 746 q 189 938 118 874 q 396 1003 260 1003 q 519 989 456 1003 l 519 808 q 485 813 510 813 z "},"g":{"ha":851,"x_min":35,"x_max":776,"o":"m 328 726 q 440 696 388 726 q 525 611 493 665 l 528 611 l 528 706 l 776 706 l 776 49 q 401 -274 776 -274 q 165 -213 253 -274 q 65 -44 78 -153 l 318 -44 q 344 -94 321 -76 q 406 -112 367 -112 q 488 -77 460 -112 q 517 40 517 -42 l 517 108 l 514 108 q 432 35 483 61 q 321 10 381 10 q 169 53 233 10 q 69 178 104 97 q 35 368 35 260 q 70 558 35 476 q 172 683 106 639 q 328 726 239 726 m 418 525 q 338 482 368 525 q 308 368 308 439 q 338 255 308 297 q 418 213 367 213 q 496 255 467 213 q 525 368 525 297 q 496 482 525 439 q 418 525 467 525 z "},"h":{"ha":856,"x_min":75,"x_max":788,"o":"m 344 642 q 424 703 376 682 q 529 725 471 725 q 719 650 650 725 q 788 435 788 575 l 788 0 l 521 0 l 521 401 q 438 519 521 519 q 342 354 342 519 l 342 0 l 75 0 l 75 989 l 342 989 l 342 642 l 344 642 z "},"i":{"ha":417,"x_min":75,"x_max":342,"o":"m 75 0 l 75 706 l 342 706 l 342 0 l 75 0 m 75 793 l 75 989 l 342 989 l 342 793 l 75 793 z "},"j":{"ha":417,"x_min":-64,"x_max":342,"o":"m 342 19 q 266 -194 342 -124 q 64 -265 190 -265 q -64 -250 -10 -265 l -64 -67 q -29 -71 -49 -71 q 50 -42 25 -71 q 75 65 75 -12 l 75 706 l 342 706 l 342 19 m 75 793 l 75 989 l 342 989 l 342 793 l 75 793 z "},"k":{"ha":818,"x_min":75,"x_max":832,"o":"m 506 0 l 344 308 l 342 308 l 342 0 l 75 0 l 75 989 l 342 989 l 342 436 l 344 436 l 493 706 l 808 706 l 572 372 l 832 0 l 506 0 z "},"l":{"ha":417,"x_min":75,"x_max":342,"o":"m 75 0 l 75 989 l 342 989 l 342 0 l 75 0 z "},"m":{"ha":1276,"x_min":75,"x_max":1208,"o":"m 961 725 q 1142 650 1076 725 q 1208 435 1208 575 l 1208 0 l 942 0 l 942 401 q 923 489 942 458 q 868 519 904 519 q 775 353 775 519 l 775 0 l 508 0 l 508 408 q 433 519 508 519 q 342 353 342 519 l 342 0 l 75 0 l 75 706 l 322 706 l 322 625 l 325 625 q 411 699 360 674 q 526 725 463 725 q 735 601 672 725 q 961 725 813 725 z "},"n":{"ha":856,"x_min":75,"x_max":788,"o":"m 529 725 q 719 650 650 725 q 788 435 788 575 l 788 0 l 521 0 l 521 401 q 438 519 521 519 q 342 354 342 519 l 342 0 l 75 0 l 75 706 l 322 706 l 322 625 l 325 625 q 413 699 361 672 q 529 725 464 725 z "},"o":{"ha":858,"x_min":35,"x_max":824,"o":"m 429 728 q 489 728 429 728 q 638 682 549 728 q 775 551 726 636 q 824 353 824 467 q 775 154 824 239 q 638 24 726 69 q 429 -22 549 -22 q 221 24 310 -22 q 83 154 132 69 q 35 353 35 239 q 83 551 35 467 q 221 682 132 636 q 429 728 310 728 m 429 529 q 402 529 429 529 q 345 483 375 529 q 315 353 315 436 q 345 223 315 269 q 429 176 375 176 q 513 223 483 176 q 543 353 543 269 q 513 483 543 436 q 429 529 483 529 z "},"p":{"ha":864,"x_min":75,"x_max":829,"o":"m 522 726 q 683 681 614 726 q 791 550 753 635 q 829 353 829 465 q 792 156 829 240 q 688 25 756 71 q 529 -21 619 -21 q 424 1 474 -21 q 344 67 375 24 l 342 67 l 342 -257 l 75 -257 l 75 706 l 331 706 l 331 625 l 333 625 q 415 701 365 675 q 522 726 464 726 m 438 525 q 358 478 388 525 q 328 353 328 432 q 358 227 328 274 q 438 181 388 181 q 519 227 489 181 q 550 353 550 274 q 519 478 550 432 q 438 525 489 525 z "},"q":{"ha":864,"x_min":35,"x_max":789,"o":"m 342 726 q 449 701 400 726 q 531 625 499 675 l 533 625 l 533 706 l 789 706 l 789 -257 l 522 -257 l 522 67 l 519 67 q 440 1 489 24 q 335 -21 390 -21 q 176 25 244 -21 q 72 156 108 71 q 35 353 35 240 q 73 550 35 465 q 181 681 111 635 q 342 726 250 726 m 426 525 q 344 478 375 525 q 314 353 314 432 q 344 227 314 274 q 426 181 375 181 q 506 227 476 181 q 536 353 536 274 q 506 478 536 432 q 426 525 476 525 z "},"r":{"ha":607,"x_min":75,"x_max":600,"o":"m 600 708 l 600 481 q 519 489 564 489 q 388 436 433 489 q 342 285 342 383 l 342 0 l 75 0 l 75 706 l 322 706 l 322 610 l 325 610 q 413 691 363 665 q 531 717 464 717 q 600 708 569 717 z "},"s":{"ha":776,"x_min":36,"x_max":739,"o":"m 386 728 q 628 669 542 728 q 714 494 714 611 l 461 494 q 382 572 461 572 q 317 525 317 572 q 328 497 317 507 q 367 476 339 486 q 454 450 394 465 q 601 402 543 426 q 699 331 660 378 q 739 208 739 283 q 649 40 739 103 q 396 -22 558 -22 q 36 229 36 -22 l 303 229 q 326 163 303 185 q 397 142 349 142 q 453 154 435 142 q 472 190 472 167 q 458 224 472 211 q 411 248 443 238 q 310 276 379 258 q 177 319 229 297 q 90 386 125 342 q 54 504 54 431 q 138 667 54 606 q 386 728 222 728 z "},"t":{"ha":553,"x_min":7,"x_max":518,"o":"m 518 203 l 518 6 q 456 -8 493 -3 q 389 -12 419 -12 q 179 44 244 -12 q 114 228 114 101 l 114 515 l 7 515 l 7 706 l 114 706 l 114 903 l 381 903 l 381 706 l 511 706 l 511 515 l 381 515 l 381 300 q 401 219 381 243 q 468 196 421 196 q 518 203 497 196 z "},"u":{"ha":856,"x_min":68,"x_max":781,"o":"m 326 -19 q 137 56 206 -19 q 68 271 68 131 l 68 706 l 335 706 l 335 304 q 418 186 335 186 q 514 351 514 186 l 514 706 l 781 706 l 781 0 l 533 0 l 533 81 l 531 81 q 443 7 494 33 q 326 -19 392 -19 z "},"v":{"ha":771,"x_min":-12,"x_max":783,"o":"m 204 0 l -12 706 l 275 706 l 329 468 q 385 174 365 311 l 388 174 q 442 468 410 326 l 497 706 l 783 706 l 567 0 l 204 0 z "},"w":{"ha":1231,"x_min":6,"x_max":1225,"o":"m 714 0 l 664 251 q 617 544 638 383 l 614 544 q 567 251 593 383 l 517 0 l 164 0 l 6 706 l 263 706 l 300 460 q 336 167 324 303 l 339 167 q 393 463 357 292 l 447 706 l 783 706 l 838 463 q 892 167 874 292 l 894 167 q 931 460 907 303 l 968 706 l 1225 706 l 1067 0 l 714 0 z "},"x":{"ha":779,"x_min":-8,"x_max":788,"o":"m 788 0 l 489 0 l 392 215 l 389 215 l 292 0 l -8 0 l 221 363 l 7 706 l 307 706 l 389 511 l 392 511 l 474 706 l 772 706 l 558 363 l 788 0 z "},"y":{"ha":774,"x_min":-17,"x_max":786,"o":"m 568 31 q 488 -147 532 -83 q 383 -239 444 -211 q 228 -267 321 -267 q 89 -253 144 -267 l 89 -61 q 154 -69 121 -69 q 219 -52 196 -69 q 242 0 242 -35 q 235 39 242 15 q 197 144 228 63 l -17 706 l 272 706 l 335 471 q 400 178 372 326 l 403 178 q 460 472 424 311 l 514 706 l 786 706 l 568 31 z "},"z":{"ha":724,"x_min":42,"x_max":682,"o":"m 375 204 l 375 201 l 682 201 l 682 0 l 42 0 l 42 207 l 339 501 l 339 504 l 51 504 l 51 706 l 671 706 l 671 499 l 375 204 z "},"{":{"ha":532,"x_min":56,"x_max":490,"o":"m 490 878 q 413 851 436 875 q 389 769 389 828 l 389 603 q 352 474 389 519 q 239 410 315 428 l 239 406 q 352 342 315 388 q 389 213 389 296 l 389 47 q 413 -36 389 -12 q 490 -61 436 -60 l 490 -214 l 454 -214 q 271 -187 336 -214 q 178 -102 206 -160 q 151 54 151 -44 l 151 208 q 131 290 151 264 q 56 329 111 315 l 56 486 q 131 526 111 500 q 151 607 151 551 l 151 761 q 178 917 151 860 q 271 1002 206 975 q 454 1029 336 1029 l 490 1029 l 490 878 z "},"|":{"ha":415,"x_min":99,"x_max":318,"o":"m 99 -285 l 99 1017 l 318 1017 l 318 -285 l 99 -285 z "},"}":{"ha":532,"x_min":42,"x_max":476,"o":"m 78 1029 q 263 1002 197 1029 q 355 917 328 975 q 382 761 382 860 l 382 607 q 402 526 382 551 q 476 486 422 500 l 476 329 q 402 290 422 315 q 382 208 382 264 l 382 54 q 355 -102 382 -44 q 263 -187 328 -160 q 78 -214 197 -214 l 42 -214 l 42 -61 q 119 -36 96 -60 q 143 47 143 -12 l 143 213 q 180 342 143 296 q 293 406 217 388 l 293 410 q 180 474 217 428 q 143 603 143 519 l 143 769 q 119 851 143 828 q 42 878 96 875 l 42 1029 l 78 1029 z "},"~":{"ha":842,"x_min":35,"x_max":807,"o":"m 289 599 q 372 583 335 599 q 460 535 408 567 q 515 502 493 513 q 558 492 536 492 q 615 519 593 492 q 636 589 636 546 l 807 589 q 774 430 807 499 q 684 323 742 361 q 553 285 626 285 q 469 301 507 285 q 382 347 431 317 q 326 380 349 369 q 282 390 304 390 q 226 365 247 390 q 206 294 206 339 l 35 294 q 67 453 35 385 q 158 560 100 522 q 289 599 215 599 z "}," ":{"ha":319,"x_min":0,"x_max":0,"o":""},"¡":{"ha":510,"x_min":103,"x_max":408,"o":"m 393 706 l 393 482 l 117 482 l 117 706 l 393 706 m 365 396 l 408 -283 l 103 -283 l 143 396 l 365 396 z "},"¢":{"ha":911,"x_min":81,"x_max":835,"o":"m 467 283 q 532 313 507 283 q 558 397 557 343 l 835 397 q 751 195 825 275 q 553 93 676 115 l 553 -40 l 374 -40 l 374 93 q 159 215 238 117 q 81 463 81 313 q 158 706 81 610 q 374 828 236 803 l 374 961 l 553 961 l 553 826 q 749 728 674 806 q 835 535 824 651 l 558 535 q 530 610 554 583 q 467 636 506 636 q 389 591 417 636 q 361 463 361 546 q 389 329 361 375 q 467 283 417 283 z "},"£":{"ha":911,"x_min":32,"x_max":860,"o":"m 854 215 l 854 0 l 32 0 l 32 215 q 122 250 93 215 q 151 371 151 285 l 151 374 l 32 374 l 32 568 l 151 568 l 151 603 q 247 865 151 772 q 515 958 343 958 q 697 919 618 958 q 817 809 775 881 q 860 642 860 738 l 603 642 q 581 720 603 693 q 515 747 558 747 q 440 713 464 747 q 417 603 417 678 l 417 568 l 597 568 l 597 374 l 417 374 q 399 277 417 315 q 343 218 382 239 l 343 215 l 854 215 z "},"¤":{"ha":911,"x_min":81,"x_max":831,"o":"m 585 138 q 456 114 525 114 q 326 138 385 114 l 214 18 l 81 140 l 190 257 q 156 404 156 322 q 190 550 156 485 l 81 668 l 214 790 l 326 671 q 456 694 385 694 q 585 671 525 694 l 696 790 l 829 668 l 719 551 q 753 404 753 482 q 719 258 753 321 l 831 140 l 696 18 l 585 138 m 454 272 q 483 272 454 272 q 547 308 511 272 q 582 404 582 344 q 547 500 582 464 q 454 536 511 536 q 363 500 397 536 q 328 404 328 464 q 363 308 328 344 q 454 272 397 272 z "},"¥":{"ha":911,"x_min":28,"x_max":883,"o":"m 807 468 l 807 361 l 594 361 l 594 311 l 807 311 l 807 206 l 594 206 l 594 0 l 317 0 l 317 206 l 104 206 l 104 311 l 317 311 l 317 361 l 104 361 l 104 468 l 263 468 l 28 936 l 329 936 l 372 826 q 454 583 419 710 l 457 583 q 539 826 492 710 l 582 936 l 883 936 l 649 468 l 807 468 z "},"¦":{"ha":415,"x_min":99,"x_max":318,"o":"m 99 531 l 99 1017 l 318 1017 l 318 531 l 99 531 m 99 -285 l 99 201 l 318 201 l 318 -285 l 99 -285 z "},"§":{"ha":924,"x_min":89,"x_max":835,"o":"m 456 1011 q 696 943 611 1011 q 789 749 781 875 l 535 749 q 514 805 533 785 q 458 825 494 825 q 410 810 428 825 q 393 769 393 794 q 404 734 393 747 q 447 706 415 721 q 547 668 478 692 q 697 604 639 635 q 794 518 754 574 q 835 375 835 463 q 728 179 835 247 l 728 176 q 800 21 800 119 q 759 -116 800 -57 q 642 -207 718 -175 q 467 -239 567 -239 q 219 -170 306 -239 q 126 33 132 -101 l 382 33 q 463 -50 386 -50 q 515 -35 496 -50 q 533 7 533 -19 q 521 46 533 31 q 475 78 508 61 q 361 129 442 94 q 210 201 264 171 q 123 284 157 232 q 89 417 89 336 q 117 528 89 479 q 197 603 146 576 l 197 606 q 132 756 132 660 q 220 942 132 874 q 456 1011 308 1011 m 313 449 q 323 405 313 422 q 360 369 333 388 q 443 328 388 351 l 583 265 q 619 342 619 293 q 593 405 619 379 q 490 461 567 431 q 349 521 425 486 q 313 449 313 492 z "},"¨":{"ha":693,"x_min":69,"x_max":624,"o":"m 69 793 l 69 989 l 294 989 l 294 793 l 69 793 m 397 793 l 397 989 l 624 989 l 624 793 l 397 793 z "},"©":{"ha":1103,"x_min":49,"x_max":1054,"o":"m 551 1011 q 626 1011 551 1011 q 815 947 700 1011 q 992 765 929 882 q 1054 494 1054 647 q 992 224 1054 342 q 815 42 929 107 q 551 -22 700 -22 q 288 42 403 -22 q 111 224 174 107 q 49 494 49 342 q 111 765 49 647 q 288 947 174 882 q 551 1011 403 1011 m 551 911 q 491 911 551 911 q 339 859 431 911 q 197 713 247 807 q 146 494 146 618 q 197 276 146 371 q 339 130 247 182 q 551 78 431 78 q 764 130 672 78 q 906 276 856 182 q 957 494 957 371 q 906 713 957 618 q 764 859 856 807 q 551 911 672 911 m 554 800 q 749 738 676 800 q 826 565 821 676 l 644 565 q 617 632 640 608 q 554 656 593 656 q 481 613 508 656 q 454 494 454 569 q 482 377 454 421 q 554 333 510 333 q 617 358 593 333 q 644 428 640 383 l 829 428 q 747 251 821 313 q 554 189 674 189 q 349 270 424 189 q 274 494 274 351 q 349 719 274 638 q 554 800 424 800 z "},"ª":{"ha":593,"x_min":18,"x_max":561,"o":"m 292 968 q 482 914 419 968 q 544 758 544 860 l 544 606 q 561 458 544 513 l 371 458 q 363 518 363 483 l 361 518 q 196 444 300 444 q 66 488 114 444 q 18 600 18 532 q 67 708 18 669 q 229 764 117 747 q 342 775 283 772 l 342 793 q 290 853 342 853 q 239 794 239 853 l 39 794 q 105 919 43 869 q 292 968 167 968 m 272 667 q 222 614 222 656 q 235 581 222 593 q 271 568 247 568 q 322 589 306 568 q 338 618 333 603 q 342 660 342 633 l 342 678 q 272 667 299 674 z "},"«":{"ha":846,"x_min":57,"x_max":788,"o":"m 788 75 l 561 75 l 403 353 l 561 631 l 788 631 l 643 353 l 788 75 m 442 75 l 215 75 l 57 353 l 215 631 l 442 631 l 297 353 l 442 75 z "},"¬":{"ha":786,"x_min":76,"x_max":710,"o":"m 504 167 l 504 450 l 76 450 l 76 658 l 710 658 l 710 167 l 504 167 z "},"­":{"ha":490,"x_min":42,"x_max":449,"o":"m 42 313 l 42 499 l 449 499 l 449 313 l 42 313 z "},"®":{"ha":822,"x_min":63,"x_max":760,"o":"m 411 1011 q 463 1011 411 1011 q 594 967 515 1011 q 717 841 674 922 q 760 653 760 760 q 717 465 760 546 q 594 339 674 383 q 411 294 515 294 q 228 339 307 294 q 106 465 149 383 q 63 653 63 546 q 106 841 63 760 q 228 967 149 922 q 411 1011 307 1011 m 411 956 q 368 956 411 956 q 258 918 325 956 q 155 812 192 881 q 118 653 118 743 q 155 494 118 563 q 258 388 192 425 q 411 350 325 350 q 564 388 497 350 q 667 494 631 425 q 704 653 704 563 q 667 812 704 743 q 564 918 631 881 q 411 956 497 956 m 436 875 q 549 842 510 875 q 588 753 588 810 q 565 685 588 713 q 503 646 543 658 l 503 643 q 542 617 526 636 q 574 557 557 599 l 617 444 l 490 444 l 454 539 q 427 583 443 571 q 381 596 411 596 l 350 596 l 350 444 l 229 444 l 229 875 l 436 875 m 350 682 l 400 682 q 471 738 471 682 q 453 773 471 760 q 404 786 436 786 l 350 786 l 350 682 z "},"¯":{"ha":685,"x_min":69,"x_max":615,"o":"m 69 807 l 69 967 l 615 967 l 615 807 l 69 807 z "},"°":{"ha":494,"x_min":43,"x_max":453,"o":"m 249 1003 q 276 1003 249 1003 q 351 976 304 1003 q 425 901 397 949 q 453 797 453 854 q 425 695 453 742 q 351 621 397 649 q 249 593 304 593 q 146 621 193 593 q 71 695 99 649 q 43 797 43 742 q 71 901 43 854 q 146 976 99 949 q 249 1003 193 1003 m 249 882 q 189 858 214 882 q 164 797 164 833 q 189 738 164 763 q 249 713 214 713 q 308 738 283 713 q 333 797 333 763 q 309 858 333 833 q 249 882 285 882 z "},"±":{"ha":786,"x_min":76,"x_max":710,"o":"m 710 632 l 710 431 l 497 431 l 497 250 l 289 250 l 289 431 l 76 431 l 76 632 l 289 632 l 289 813 l 497 813 l 497 632 l 710 632 m 76 0 l 76 201 l 710 201 l 710 0 l 76 0 z "},"²":{"ha":672,"x_min":42,"x_max":633,"o":"m 336 1129 q 485 1102 421 1129 q 582 1027 549 1075 q 615 921 615 979 q 567 795 615 843 q 431 715 519 747 q 323 667 350 685 q 292 626 296 649 l 633 626 l 633 458 l 43 458 q 42 504 42 469 q 85 684 42 615 q 236 801 128 753 q 359 865 322 840 q 396 924 396 890 q 381 961 396 947 q 338 975 365 975 q 285 953 306 975 q 265 892 265 932 l 50 892 q 125 1067 50 1006 q 336 1129 200 1129 z "},"³":{"ha":661,"x_min":28,"x_max":621,"o":"m 329 1129 q 536 1078 460 1129 q 613 942 613 1028 q 585 856 613 889 q 496 800 557 822 l 496 797 q 591 741 561 776 q 621 649 621 706 q 542 499 621 554 q 333 443 464 443 q 106 504 185 443 q 28 683 28 565 l 247 683 q 332 593 247 593 q 385 608 365 593 q 404 650 404 624 q 381 698 404 682 q 306 714 357 714 l 289 714 l 289 864 l 314 864 q 376 880 353 864 q 400 922 400 896 q 382 964 400 949 q 331 979 364 979 q 271 956 292 979 q 250 893 250 933 l 38 893 q 115 1067 38 1004 q 329 1129 192 1129 z "},"´":{"ha":539,"x_min":69,"x_max":469,"o":"m 69 781 l 181 989 l 469 989 l 272 781 l 69 781 z "},"µ":{"ha":889,"x_min":75,"x_max":876,"o":"m 785 261 q 799 202 785 219 q 842 185 813 185 q 876 189 860 185 l 876 8 q 722 -15 810 -15 q 542 82 588 -15 l 539 82 q 484 16 519 39 q 401 -7 449 -7 q 342 6 365 -7 l 342 -257 l 75 -257 l 75 706 l 342 706 l 342 313 q 424 186 342 186 q 518 340 518 186 l 518 706 l 785 706 l 785 261 z "},"¶":{"ha":990,"x_min":56,"x_max":943,"o":"m 832 817 l 832 -167 l 647 -167 l 647 817 l 549 817 l 549 -167 l 364 -167 l 364 382 l 344 382 q 134 465 213 382 q 56 686 56 547 q 134 907 56 825 q 344 989 213 989 l 943 989 l 943 817 l 832 817 z "},"·":{"ha":403,"x_min":63,"x_max":340,"o":"m 63 285 l 63 564 l 340 564 l 340 285 l 63 285 z "},"¸":{"ha":501,"x_min":69,"x_max":432,"o":"m 306 -75 q 399 -105 365 -75 q 432 -186 432 -135 q 383 -291 432 -250 q 246 -332 335 -332 q 154 -319 200 -332 q 69 -283 108 -307 l 111 -197 q 225 -229 178 -229 q 265 -219 251 -229 q 279 -193 279 -210 q 265 -164 279 -175 q 225 -153 251 -153 q 183 -162 203 -153 l 129 -118 l 200 0 l 311 0 l 261 -82 q 306 -75 285 -75 z "},"¹":{"ha":476,"x_min":15,"x_max":401,"o":"m 183 458 l 183 840 l 15 840 l 15 996 q 152 1024 107 996 q 207 1114 197 1051 l 401 1114 l 401 458 l 183 458 z "},"º":{"ha":625,"x_min":25,"x_max":600,"o":"m 313 968 q 378 968 313 968 q 522 897 444 968 q 600 706 600 826 q 522 514 600 585 q 313 443 444 443 q 103 514 181 443 q 25 706 25 585 q 103 897 25 826 q 313 968 181 968 m 313 813 q 295 813 313 813 q 260 785 278 813 q 242 706 242 757 q 260 625 242 653 q 313 597 278 597 q 365 625 347 597 q 383 706 383 653 q 365 785 383 757 q 313 813 347 813 z "},"»":{"ha":846,"x_min":57,"x_max":788,"o":"m 442 353 l 283 75 l 57 75 l 201 353 l 57 631 l 283 631 l 442 353 m 788 353 l 629 75 l 404 75 l 549 353 l 404 631 l 629 631 l 788 353 z "},"¼":{"ha":1176,"x_min":13,"x_max":1164,"o":"m 154 375 l 154 701 l 13 701 l 13 836 q 123 861 83 836 q 175 936 163 886 l 353 936 l 353 375 l 154 375 m 196 0 l 690 936 l 843 936 l 349 0 l 196 0 m 1060 99 l 1060 0 l 878 0 l 878 99 l 608 99 l 608 239 l 822 561 l 1060 561 l 1060 233 l 1164 233 l 1164 99 l 1060 99 m 889 233 l 889 281 q 894 440 889 372 l 892 440 q 813 304 863 381 l 767 233 l 889 233 z "},"½":{"ha":1206,"x_min":13,"x_max":1172,"o":"m 154 375 l 154 701 l 13 701 l 13 836 q 123 861 83 836 q 175 936 163 886 l 353 936 l 353 375 l 154 375 m 196 0 l 690 936 l 843 936 l 349 0 l 196 0 m 917 575 q 1091 524 1026 575 q 1156 396 1156 474 q 1115 288 1156 329 q 997 218 1074 247 q 902 177 925 192 q 876 144 879 163 l 1172 144 l 1172 0 l 660 0 q 658 40 658 13 q 696 191 658 133 q 828 293 733 249 q 936 352 907 332 q 965 400 965 372 q 953 431 965 419 q 917 442 940 442 q 871 424 888 442 q 854 369 854 406 l 667 369 q 733 522 668 468 q 917 575 799 575 z "},"¾":{"ha":1333,"x_min":22,"x_max":1321,"o":"m 285 950 q 462 905 394 950 q 529 786 529 860 q 505 712 529 740 q 428 668 481 683 l 428 665 q 510 617 485 649 q 536 536 536 586 q 472 406 536 451 q 288 361 408 361 q 92 414 161 361 q 22 568 22 467 l 211 568 q 288 494 211 494 q 335 508 317 494 q 353 543 353 521 q 269 593 353 593 l 250 593 l 250 721 l 268 721 q 347 771 347 721 q 331 804 347 792 q 283 817 314 817 q 231 799 250 817 q 213 749 213 781 l 32 749 q 99 897 32 843 q 285 950 167 950 m 353 0 l 847 936 l 1000 936 l 506 0 l 353 0 m 1217 99 l 1217 0 l 1035 0 l 1035 99 l 765 99 l 765 239 l 979 561 l 1217 561 l 1217 233 l 1321 233 l 1321 99 l 1217 99 m 1046 233 l 1046 281 q 1051 440 1046 372 l 1049 440 q 969 304 1019 381 l 924 233 l 1046 233 z "},"¿":{"ha":788,"x_min":46,"x_max":788,"o":"m 558 706 l 558 482 l 282 482 l 282 706 l 558 706 m 410 -306 q 142 -234 239 -306 q 46 -37 46 -162 q 74 82 46 33 q 181 196 103 131 q 282 301 257 258 q 307 413 307 344 l 532 413 q 536 338 536 375 q 527 250 536 285 q 492 183 518 215 q 415 103 467 150 q 343 27 360 53 q 326 -35 326 1 q 349 -90 326 -69 q 410 -111 371 -111 q 487 -79 461 -111 q 513 22 513 -47 l 788 22 q 688 -222 786 -137 q 410 -306 589 -306 z "},"À":{"ha":1015,"x_min":-3,"x_max":1018,"o":"m 340 178 l 290 0 l -3 0 l 329 989 l 686 989 l 1018 0 l 725 0 l 675 178 l 340 178 m 594 464 q 510 797 551 615 l 507 797 q 421 464 463 607 l 401 396 l 614 396 l 594 464 m 656 1056 l 453 1056 l 256 1272 l 544 1272 l 656 1056 z "},"Á":{"ha":1015,"x_min":-3,"x_max":1018,"o":"m 340 178 l 290 0 l -3 0 l 329 989 l 686 989 l 1018 0 l 725 0 l 675 178 l 340 178 m 594 464 q 510 797 551 615 l 507 797 q 421 464 463 607 l 401 396 l 614 396 l 594 464 m 360 1056 l 471 1272 l 760 1272 l 563 1056 l 360 1056 z "},"Â":{"ha":1015,"x_min":-3,"x_max":1018,"o":"m 340 178 l 290 0 l -3 0 l 329 989 l 686 989 l 1018 0 l 725 0 l 675 178 l 340 178 m 594 464 q 510 797 551 615 l 507 797 q 421 464 463 607 l 401 396 l 614 396 l 594 464 m 619 1272 l 797 1056 l 590 1056 l 507 1168 l 425 1056 l 218 1056 l 394 1272 l 619 1272 z "},"Ã":{"ha":1015,"x_min":-3,"x_max":1018,"o":"m 340 178 l 290 0 l -3 0 l 329 989 l 686 989 l 1018 0 l 725 0 l 675 178 l 340 178 m 594 464 q 510 797 551 615 l 507 797 q 421 464 463 607 l 401 396 l 614 396 l 594 464 m 788 1272 q 737 1117 783 1174 q 607 1061 690 1061 q 550 1069 575 1061 q 490 1094 525 1078 q 451 1113 465 1107 q 421 1118 436 1118 q 383 1104 396 1118 q 365 1061 369 1090 l 228 1061 q 280 1217 233 1161 q 410 1272 326 1272 q 467 1264 442 1272 q 526 1239 492 1256 q 553 1227 531 1238 q 596 1217 576 1217 q 634 1230 621 1217 q 650 1272 647 1243 l 788 1272 z "},"Ä":{"ha":1015,"x_min":-3,"x_max":1018,"o":"m 340 178 l 290 0 l -3 0 l 329 989 l 686 989 l 1018 0 l 725 0 l 675 178 l 340 178 m 594 464 q 510 797 551 615 l 507 797 q 421 464 463 607 l 401 396 l 614 396 l 594 464 m 231 1068 l 231 1264 l 456 1264 l 456 1068 l 231 1068 m 558 1068 l 558 1264 l 785 1264 l 785 1068 l 558 1068 z "},"Å":{"ha":1015,"x_min":-3,"x_max":1018,"o":"m 340 178 l 290 0 l -3 0 l 329 989 l 686 989 l 1018 0 l 725 0 l 675 178 l 340 178 m 594 464 q 510 797 551 615 l 507 797 q 421 464 463 607 l 401 396 l 614 396 l 594 464 m 508 1379 q 626 1331 578 1379 q 674 1213 674 1282 q 626 1094 674 1143 q 508 1046 578 1046 q 391 1095 440 1046 q 342 1213 342 1144 q 391 1331 342 1282 q 508 1379 440 1379 m 508 1293 q 492 1293 508 1293 q 451 1269 475 1293 q 428 1213 428 1246 q 451 1156 428 1179 q 508 1132 475 1132 q 565 1156 542 1132 q 589 1213 589 1179 q 565 1269 589 1246 q 508 1293 542 1293 z "},"Æ":{"ha":1374,"x_min":-8,"x_max":1311,"o":"m 1311 0 l 726 0 l 699 197 l 371 197 l 292 0 l -8 0 l 414 989 l 1307 989 l 1307 760 l 879 760 l 901 611 l 1272 611 l 1272 388 l 932 388 l 956 229 l 1311 229 l 1311 0 m 618 763 l 599 763 l 461 419 l 668 419 l 618 763 z "},"Ç":{"ha":1014,"x_min":43,"x_max":972,"o":"m 972 376 q 850 94 958 197 q 564 -21 742 -8 l 526 -82 q 571 -75 550 -75 q 664 -105 631 -75 q 697 -186 697 -135 q 649 -291 697 -250 q 511 -332 600 -332 q 419 -319 465 -332 q 335 -283 374 -307 l 376 -197 q 490 -229 443 -229 q 531 -219 517 -229 q 544 -193 544 -210 q 531 -164 544 -175 q 490 -153 517 -153 q 449 -162 468 -153 l 394 -118 l 454 -19 q 151 136 260 0 q 43 494 43 272 q 100 770 43 654 q 263 949 157 886 q 515 1011 369 1011 q 748 965 649 1011 q 904 830 847 918 q 967 621 961 742 l 675 621 q 626 735 667 694 q 515 775 585 775 q 383 700 432 775 q 333 494 333 625 q 383 290 333 365 q 515 214 432 214 q 626 257 583 214 q 676 376 669 300 l 972 376 z "},"È":{"ha":882,"x_min":96,"x_max":819,"o":"m 374 760 l 374 611 l 781 611 l 781 388 l 374 388 l 374 229 l 819 229 l 819 0 l 96 0 l 96 989 l 811 989 l 811 760 l 374 760 m 604 1056 l 401 1056 l 204 1272 l 493 1272 l 604 1056 z "},"É":{"ha":882,"x_min":96,"x_max":819,"o":"m 374 760 l 374 611 l 781 611 l 781 388 l 374 388 l 374 229 l 819 229 l 819 0 l 96 0 l 96 989 l 811 989 l 811 760 l 374 760 m 308 1056 l 419 1272 l 708 1272 l 511 1056 l 308 1056 z "},"Ê":{"ha":882,"x_min":96,"x_max":819,"o":"m 374 760 l 374 611 l 781 611 l 781 388 l 374 388 l 374 229 l 819 229 l 819 0 l 96 0 l 96 989 l 811 989 l 811 760 l 374 760 m 568 1272 l 746 1056 l 539 1056 l 456 1168 l 374 1056 l 167 1056 l 343 1272 l 568 1272 z "},"Ë":{"ha":882,"x_min":96,"x_max":819,"o":"m 374 760 l 374 611 l 781 611 l 781 388 l 374 388 l 374 229 l 819 229 l 819 0 l 96 0 l 96 989 l 811 989 l 811 760 l 374 760 m 179 1068 l 179 1264 l 404 1264 l 404 1068 l 179 1068 m 507 1068 l 507 1264 l 733 1264 l 733 1068 l 507 1068 z "},"Ì":{"ha":469,"x_min":-18,"x_max":382,"o":"m 96 0 l 96 989 l 374 989 l 374 0 l 96 0 m 382 1056 l 179 1056 l -18 1272 l 271 1272 l 382 1056 z "},"Í":{"ha":469,"x_min":86,"x_max":486,"o":"m 96 0 l 96 989 l 374 989 l 374 0 l 96 0 m 86 1056 l 197 1272 l 486 1272 l 289 1056 l 86 1056 z "},"Î":{"ha":469,"x_min":-56,"x_max":524,"o":"m 96 0 l 96 989 l 374 989 l 374 0 l 96 0 m 346 1272 l 524 1056 l 317 1056 l 233 1168 l 151 1056 l -56 1056 l 121 1272 l 346 1272 z "},"Ï":{"ha":469,"x_min":-43,"x_max":511,"o":"m 96 0 l 96 989 l 374 989 l 374 0 l 96 0 m -43 1068 l -43 1264 l 182 1264 l 182 1068 l -43 1068 m 285 1068 l 285 1264 l 511 1264 l 511 1068 l 285 1068 z "},"Ð":{"ha":1047,"x_min":18,"x_max":1004,"o":"m 474 989 q 867 860 729 989 q 1004 494 1004 732 q 867 128 1004 257 q 474 0 729 0 l 101 0 l 101 414 l 18 414 l 18 583 l 101 583 l 101 989 l 474 989 m 465 233 q 650 301 586 233 q 714 494 714 368 q 650 688 714 621 q 465 756 586 756 l 378 756 l 378 583 l 572 583 l 572 414 l 378 414 l 378 233 l 465 233 z "},"Ñ":{"ha":1149,"x_min":96,"x_max":1051,"o":"m 649 0 l 494 379 q 353 763 415 578 l 350 763 q 361 358 361 583 l 361 0 l 96 0 l 96 989 l 500 989 l 653 610 q 794 226 733 414 l 797 226 q 786 631 786 442 l 786 989 l 1051 989 l 1051 0 l 649 0 m 853 1272 q 802 1117 849 1174 q 672 1061 756 1061 q 615 1069 640 1061 q 556 1094 590 1078 q 516 1113 531 1107 q 486 1118 501 1118 q 448 1104 461 1118 q 431 1061 435 1090 l 293 1061 q 345 1217 299 1161 q 475 1272 392 1272 q 532 1264 507 1272 q 592 1239 557 1256 q 619 1227 596 1238 q 661 1217 642 1217 q 699 1230 686 1217 q 715 1272 713 1243 l 853 1272 z "},"Ò":{"ha":1065,"x_min":43,"x_max":1022,"o":"m 532 1011 q 606 1011 532 1011 q 792 948 681 1011 q 963 768 903 885 q 1022 494 1022 651 q 963 221 1022 338 q 792 41 903 104 q 532 -22 681 -22 q 273 41 383 -22 q 103 221 163 104 q 43 494 43 338 q 103 768 43 651 q 273 948 163 885 q 532 1011 383 1011 m 532 775 q 386 702 438 775 q 335 494 335 629 q 386 287 335 360 q 532 214 438 214 q 679 287 628 214 q 731 494 731 360 q 679 702 731 629 q 532 775 628 775 m 681 1056 l 478 1056 l 281 1272 l 569 1272 l 681 1056 z "},"Ó":{"ha":1065,"x_min":43,"x_max":1022,"o":"m 532 1011 q 606 1011 532 1011 q 792 948 681 1011 q 963 768 903 885 q 1022 494 1022 651 q 963 221 1022 338 q 792 41 903 104 q 532 -22 681 -22 q 273 41 383 -22 q 103 221 163 104 q 43 494 43 338 q 103 768 43 651 q 273 948 163 885 q 532 1011 383 1011 m 532 775 q 386 702 438 775 q 335 494 335 629 q 386 287 335 360 q 532 214 438 214 q 679 287 628 214 q 731 494 731 360 q 679 702 731 629 q 532 775 628 775 m 385 1056 l 496 1272 l 785 1272 l 588 1056 l 385 1056 z "},"Ô":{"ha":1065,"x_min":43,"x_max":1022,"o":"m 532 1011 q 606 1011 532 1011 q 792 948 681 1011 q 963 768 903 885 q 1022 494 1022 651 q 963 221 1022 338 q 792 41 903 104 q 532 -22 681 -22 q 273 41 383 -22 q 103 221 163 104 q 43 494 43 338 q 103 768 43 651 q 273 948 163 885 q 532 1011 383 1011 m 532 775 q 386 702 438 775 q 335 494 335 629 q 386 287 335 360 q 532 214 438 214 q 679 287 628 214 q 731 494 731 360 q 679 702 731 629 q 532 775 628 775 m 644 1272 l 822 1056 l 615 1056 l 532 1168 l 450 1056 l 243 1056 l 419 1272 l 644 1272 z "},"Õ":{"ha":1065,"x_min":43,"x_max":1022,"o":"m 532 1011 q 606 1011 532 1011 q 792 948 681 1011 q 963 768 903 885 q 1022 494 1022 651 q 963 221 1022 338 q 792 41 903 104 q 532 -22 681 -22 q 273 41 383 -22 q 103 221 163 104 q 43 494 43 338 q 103 768 43 651 q 273 948 163 885 q 532 1011 383 1011 m 532 775 q 386 702 438 775 q 335 494 335 629 q 386 287 335 360 q 532 214 438 214 q 679 287 628 214 q 731 494 731 360 q 679 702 731 629 q 532 775 628 775 m 811 1272 q 760 1117 807 1174 q 631 1061 714 1061 q 574 1069 599 1061 q 514 1094 549 1078 q 474 1113 489 1107 q 444 1118 460 1118 q 406 1104 419 1118 q 389 1061 393 1090 l 251 1061 q 303 1217 257 1161 q 433 1272 350 1272 q 490 1264 465 1272 q 550 1239 515 1256 q 577 1227 554 1238 q 619 1217 600 1217 q 658 1230 644 1217 q 674 1272 671 1243 l 811 1272 z "},"Ö":{"ha":1065,"x_min":43,"x_max":1022,"o":"m 532 1011 q 606 1011 532 1011 q 792 948 681 1011 q 963 768 903 885 q 1022 494 1022 651 q 963 221 1022 338 q 792 41 903 104 q 532 -22 681 -22 q 273 41 383 -22 q 103 221 163 104 q 43 494 43 338 q 103 768 43 651 q 273 948 163 885 q 532 1011 383 1011 m 532 775 q 386 702 438 775 q 335 494 335 629 q 386 287 335 360 q 532 214 438 214 q 679 287 628 214 q 731 494 731 360 q 679 702 731 629 q 532 775 628 775 m 256 1068 l 256 1264 l 481 1264 l 481 1068 l 256 1068 m 583 1068 l 583 1264 l 810 1264 l 810 1068 l 583 1068 z "},"×":{"ha":786,"x_min":17,"x_max":771,"o":"m 540 442 l 771 211 l 625 64 l 394 294 l 164 64 l 17 211 l 249 442 l 17 671 l 164 818 l 394 588 l 625 818 l 771 671 l 540 442 z "},"Ø":{"ha":1065,"x_min":43,"x_max":1022,"o":"m 893 868 q 989 706 956 801 q 1022 494 1022 611 q 963 221 1022 338 q 792 41 903 104 q 532 -22 681 -22 q 281 36 390 -22 l 199 -75 l 89 6 l 174 119 q 76 283 110 188 q 43 494 43 378 q 103 768 43 651 q 273 948 163 885 q 532 1011 383 1011 q 785 951 676 1011 l 868 1064 l 978 983 l 893 868 m 340 347 l 643 758 q 532 789 594 789 q 375 712 431 789 q 319 494 319 635 q 340 347 319 408 m 532 200 q 690 277 635 200 q 746 494 746 354 q 726 640 746 578 l 424 231 q 532 200 468 200 z "},"Ù":{"ha":1015,"x_min":88,"x_max":928,"o":"m 928 390 q 819 85 928 193 q 508 -22 710 -22 q 197 85 307 -22 q 88 390 88 192 l 88 989 l 365 989 l 365 394 q 402 265 365 310 q 508 219 439 219 q 614 265 578 219 q 650 394 650 310 l 650 989 l 928 989 l 928 390 m 654 1056 l 451 1056 l 254 1272 l 543 1272 l 654 1056 z "},"Ú":{"ha":1015,"x_min":88,"x_max":928,"o":"m 928 390 q 819 85 928 193 q 508 -22 710 -22 q 197 85 307 -22 q 88 390 88 192 l 88 989 l 365 989 l 365 394 q 402 265 365 310 q 508 219 439 219 q 614 265 578 219 q 650 394 650 310 l 650 989 l 928 989 l 928 390 m 360 1056 l 471 1272 l 760 1272 l 563 1056 l 360 1056 z "},"Û":{"ha":1015,"x_min":88,"x_max":928,"o":"m 928 390 q 819 85 928 193 q 508 -22 710 -22 q 197 85 307 -22 q 88 390 88 192 l 88 989 l 365 989 l 365 394 q 402 265 365 310 q 508 219 439 219 q 614 265 578 219 q 650 394 650 310 l 650 989 l 928 989 l 928 390 m 618 1272 l 796 1056 l 589 1056 l 506 1168 l 424 1056 l 217 1056 l 393 1272 l 618 1272 z "},"Ü":{"ha":1015,"x_min":88,"x_max":928,"o":"m 928 390 q 819 85 928 193 q 508 -22 710 -22 q 197 85 307 -22 q 88 390 88 192 l 88 989 l 365 989 l 365 394 q 402 265 365 310 q 508 219 439 219 q 614 265 578 219 q 650 394 650 310 l 650 989 l 928 989 l 928 390 m 231 1068 l 231 1264 l 456 1264 l 456 1068 l 231 1068 m 558 1068 l 558 1264 l 785 1264 l 785 1068 l 558 1068 z "},"Ý":{"ha":957,"x_min":0,"x_max":956,"o":"m 617 0 l 339 0 l 339 361 l 0 989 l 306 989 l 383 815 q 476 571 442 685 l 479 571 q 574 815 517 689 l 651 989 l 956 989 l 617 361 l 617 0 m 331 1056 l 442 1272 l 731 1272 l 533 1056 l 331 1056 z "},"Þ":{"ha":935,"x_min":96,"x_max":907,"o":"m 514 851 q 807 760 707 851 q 907 508 907 669 q 807 254 907 346 q 514 163 707 163 l 375 163 l 375 0 l 96 0 l 96 989 l 375 989 l 375 851 l 514 851 m 375 388 l 464 388 q 584 416 547 388 q 621 507 621 444 q 583 599 621 569 q 464 628 546 628 l 375 628 l 375 388 z "},"ß":{"ha":832,"x_min":75,"x_max":800,"o":"m 421 1011 q 669 944 576 1011 q 763 763 763 876 q 721 627 763 679 q 592 547 679 575 l 592 544 q 749 452 697 517 q 800 283 800 388 q 710 68 800 140 q 447 -4 621 -4 q 396 0 417 -4 l 396 200 q 421 197 406 197 q 499 227 472 197 q 526 315 526 257 q 497 403 526 372 q 410 433 467 433 l 396 433 l 396 643 q 483 666 454 643 q 511 735 511 689 q 489 794 511 774 q 429 815 467 815 q 363 785 383 815 q 342 689 342 754 l 342 0 l 75 0 l 75 707 q 167 930 75 849 q 421 1011 260 1011 z "},"à":{"ha":800,"x_min":25,"x_max":754,"o":"m 394 728 q 649 653 565 728 q 732 435 732 578 l 732 206 q 754 0 732 75 l 514 0 q 503 89 503 40 l 500 89 q 271 -19 417 -19 q 92 43 158 -19 q 25 201 25 106 q 92 353 25 297 q 313 432 158 408 q 475 450 388 444 l 475 475 q 392 572 475 572 q 331 549 353 572 q 308 482 310 526 l 54 482 q 144 658 61 589 q 394 728 228 728 m 367 301 q 305 272 324 292 q 286 219 286 253 q 306 166 286 186 q 364 146 326 146 q 409 154 388 146 q 444 179 431 163 q 469 224 463 199 q 475 290 475 249 l 475 317 q 367 301 407 310 m 533 781 l 331 781 l 133 989 l 422 989 l 533 781 z "},"á":{"ha":800,"x_min":25,"x_max":754,"o":"m 394 728 q 649 653 565 728 q 732 435 732 578 l 732 206 q 754 0 732 75 l 514 0 q 503 89 503 40 l 500 89 q 271 -19 417 -19 q 92 43 158 -19 q 25 201 25 106 q 92 353 25 297 q 313 432 158 408 q 475 450 388 444 l 475 475 q 392 572 475 572 q 331 549 353 572 q 308 482 310 526 l 54 482 q 144 658 61 589 q 394 728 228 728 m 367 301 q 305 272 324 292 q 286 219 286 253 q 306 166 286 186 q 364 146 326 146 q 409 154 388 146 q 444 179 431 163 q 469 224 463 199 q 475 290 475 249 l 475 317 q 367 301 407 310 m 238 781 l 349 989 l 638 989 l 440 781 l 238 781 z "},"â":{"ha":800,"x_min":25,"x_max":754,"o":"m 394 728 q 649 653 565 728 q 732 435 732 578 l 732 206 q 754 0 732 75 l 514 0 q 503 89 503 40 l 500 89 q 271 -19 417 -19 q 92 43 158 -19 q 25 201 25 106 q 92 353 25 297 q 313 432 158 408 q 475 450 388 444 l 475 475 q 392 572 475 572 q 331 549 353 572 q 308 482 310 526 l 54 482 q 144 658 61 589 q 394 728 228 728 m 367 301 q 305 272 324 292 q 286 219 286 253 q 306 166 286 186 q 364 146 326 146 q 409 154 388 146 q 444 179 431 163 q 469 224 463 199 q 475 290 475 249 l 475 317 q 367 301 407 310 m 386 885 l 310 781 l 103 781 l 274 989 l 499 989 l 669 781 l 463 781 l 386 885 z "},"ã":{"ha":800,"x_min":25,"x_max":754,"o":"m 394 728 q 649 653 565 728 q 732 435 732 578 l 732 206 q 754 0 732 75 l 514 0 q 503 89 503 40 l 500 89 q 271 -19 417 -19 q 92 43 158 -19 q 25 201 25 106 q 92 353 25 297 q 313 432 158 408 q 475 450 388 444 l 475 475 q 392 572 475 572 q 331 549 353 572 q 308 482 310 526 l 54 482 q 144 658 61 589 q 394 728 228 728 m 367 301 q 305 272 324 292 q 286 219 286 253 q 306 166 286 186 q 364 146 326 146 q 409 154 388 146 q 444 179 431 163 q 469 224 463 199 q 475 290 475 249 l 475 317 q 367 301 407 310 m 665 989 q 615 834 661 890 q 485 778 568 778 q 428 786 453 778 q 368 811 403 794 q 328 829 343 824 q 299 835 314 835 q 260 821 274 835 q 243 778 247 807 l 106 778 q 158 933 111 878 q 288 989 204 989 q 344 981 319 989 q 404 956 369 972 q 431 944 408 954 q 474 933 454 933 q 512 947 499 933 q 528 989 525 960 l 665 989 z "},"ä":{"ha":800,"x_min":25,"x_max":754,"o":"m 394 728 q 649 653 565 728 q 732 435 732 578 l 732 206 q 754 0 732 75 l 514 0 q 503 89 503 40 l 500 89 q 271 -19 417 -19 q 92 43 158 -19 q 25 201 25 106 q 92 353 25 297 q 313 432 158 408 q 475 450 388 444 l 475 475 q 392 572 475 572 q 331 549 353 572 q 308 482 310 526 l 54 482 q 144 658 61 589 q 394 728 228 728 m 367 301 q 305 272 324 292 q 286 219 286 253 q 306 166 286 186 q 364 146 326 146 q 409 154 388 146 q 444 179 431 163 q 469 224 463 199 q 475 290 475 249 l 475 317 q 367 301 407 310 m 108 793 l 108 989 l 333 989 l 333 793 l 108 793 m 436 793 l 436 989 l 663 989 l 663 793 l 436 793 z "},"å":{"ha":800,"x_min":25,"x_max":754,"o":"m 394 728 q 649 653 565 728 q 732 435 732 578 l 732 206 q 754 0 732 75 l 514 0 q 503 89 503 40 l 500 89 q 271 -19 417 -19 q 92 43 158 -19 q 25 201 25 106 q 92 353 25 297 q 313 432 158 408 q 475 450 388 444 l 475 475 q 392 572 475 572 q 331 549 353 572 q 308 482 310 526 l 54 482 q 144 658 61 589 q 394 728 228 728 m 367 301 q 305 272 324 292 q 286 219 286 253 q 306 166 286 186 q 364 146 326 146 q 409 154 388 146 q 444 179 431 163 q 469 224 463 199 q 475 290 475 249 l 475 317 q 367 301 407 310 m 386 1096 q 503 1047 456 1096 q 551 929 551 999 q 503 811 551 860 q 386 763 456 763 q 269 812 318 763 q 219 929 219 861 q 269 1047 219 999 q 386 1096 318 1096 m 386 1010 q 369 1010 386 1010 q 329 986 353 1010 q 306 929 306 963 q 329 872 306 896 q 386 849 353 849 q 443 872 419 849 q 467 929 467 896 q 443 986 467 963 q 386 1010 419 1010 z "},"æ":{"ha":1265,"x_min":25,"x_max":1231,"o":"m 854 150 q 919 169 893 150 q 947 218 944 188 l 1219 218 q 1154 95 1204 150 q 1027 9 1104 40 q 857 -22 950 -22 q 703 7 771 -22 q 589 90 635 36 q 322 -22 507 -22 q 103 40 181 -22 q 25 201 25 103 q 126 385 25 331 q 447 439 228 439 l 492 439 l 492 475 q 470 549 492 525 q 401 572 449 572 q 310 482 311 572 l 56 482 q 147 658 63 589 q 401 728 232 728 q 635 660 554 728 q 853 728 722 728 q 1069 671 981 728 q 1199 510 1158 614 q 1223 419 1215 468 q 1231 299 1231 369 l 740 299 q 774 183 744 217 q 854 150 804 150 m 744 436 l 963 436 q 928 531 958 501 q 853 561 899 561 q 744 436 761 561 m 449 310 q 286 218 286 310 q 307 160 286 182 q 367 139 328 139 q 456 172 424 139 q 483 219 475 192 q 492 292 492 247 l 492 310 l 449 310 z "},"ç":{"ha":818,"x_min":35,"x_max":789,"o":"m 421 176 q 486 206 461 176 q 513 290 511 236 l 789 290 q 692 75 779 157 q 465 -19 606 -7 l 428 -82 q 472 -75 451 -75 q 565 -105 532 -75 q 599 -186 599 -135 q 550 -291 599 -250 q 413 -332 501 -332 q 321 -319 367 -332 q 236 -283 275 -307 l 278 -197 q 392 -229 344 -229 q 432 -219 418 -229 q 446 -193 446 -210 q 432 -164 446 -175 q 392 -153 418 -153 q 350 -162 369 -153 l 296 -118 l 356 -18 q 121 99 207 0 q 35 356 35 199 q 81 552 35 468 q 215 682 128 636 q 417 728 301 728 q 674 647 574 728 q 789 428 775 565 l 513 428 q 484 503 508 476 q 421 529 460 529 q 343 484 371 529 q 315 356 315 439 q 343 222 315 268 q 421 176 371 176 z "},"è":{"ha":825,"x_min":35,"x_max":790,"o":"m 413 150 q 478 169 453 150 q 508 218 504 188 l 781 218 q 715 95 765 150 q 588 9 665 40 q 415 -22 510 -22 q 209 27 294 -22 q 79 163 124 76 q 35 357 35 249 q 79 547 35 463 q 209 679 124 631 q 411 728 294 728 q 628 671 539 728 q 760 510 718 614 q 783 419 776 468 q 790 299 790 371 l 297 299 q 331 183 301 217 q 413 150 361 150 m 299 439 l 522 439 q 488 532 517 503 q 411 561 458 561 q 299 439 317 561 m 560 781 l 357 781 l 160 989 l 449 989 l 560 781 z "},"é":{"ha":825,"x_min":35,"x_max":790,"o":"m 413 150 q 478 169 453 150 q 508 218 504 188 l 781 218 q 715 95 765 150 q 588 9 665 40 q 415 -22 510 -22 q 209 27 294 -22 q 79 163 124 76 q 35 357 35 249 q 79 547 35 463 q 209 679 124 631 q 411 728 294 728 q 628 671 539 728 q 760 510 718 614 q 783 419 776 468 q 790 299 790 371 l 297 299 q 331 183 301 217 q 413 150 361 150 m 299 439 l 522 439 q 488 532 517 503 q 411 561 458 561 q 299 439 317 561 m 264 781 l 375 989 l 664 989 l 467 781 l 264 781 z "},"ê":{"ha":825,"x_min":35,"x_max":790,"o":"m 413 150 q 478 169 453 150 q 508 218 504 188 l 781 218 q 715 95 765 150 q 588 9 665 40 q 415 -22 510 -22 q 209 27 294 -22 q 79 163 124 76 q 35 357 35 249 q 79 547 35 463 q 209 679 124 631 q 411 728 294 728 q 628 671 539 728 q 760 510 718 614 q 783 419 776 468 q 790 299 790 371 l 297 299 q 331 183 301 217 q 413 150 361 150 m 299 439 l 522 439 q 488 532 517 503 q 411 561 458 561 q 299 439 317 561 m 413 885 l 336 781 l 129 781 l 300 989 l 525 989 l 696 781 l 489 781 l 413 885 z "},"ë":{"ha":825,"x_min":35,"x_max":790,"o":"m 413 150 q 478 169 453 150 q 508 218 504 188 l 781 218 q 715 95 765 150 q 588 9 665 40 q 415 -22 510 -22 q 209 27 294 -22 q 79 163 124 76 q 35 357 35 249 q 79 547 35 463 q 209 679 124 631 q 411 728 294 728 q 628 671 539 728 q 760 510 718 614 q 783 419 776 468 q 790 299 790 371 l 297 299 q 331 183 301 217 q 413 150 361 150 m 299 439 l 522 439 q 488 532 517 503 q 411 561 458 561 q 299 439 317 561 m 135 793 l 135 989 l 360 989 l 360 793 l 135 793 m 463 793 l 463 989 l 689 989 l 689 793 l 463 793 z "},"ì":{"ha":417,"x_min":-44,"x_max":356,"o":"m 75 0 l 75 706 l 342 706 l 342 0 l 75 0 m 356 781 l 153 781 l -44 989 l 244 989 l 356 781 z "},"í":{"ha":417,"x_min":61,"x_max":461,"o":"m 75 0 l 75 706 l 342 706 l 342 0 l 75 0 m 61 781 l 172 989 l 461 989 l 264 781 l 61 781 z "},"î":{"ha":417,"x_min":-54,"x_max":471,"o":"m 75 0 l 75 706 l 342 706 l 342 0 l 75 0 m 275 785 l 208 874 l 143 785 l -54 785 l 103 989 l 314 989 l 471 785 l 275 785 z "},"ï":{"ha":417,"x_min":-21,"x_max":439,"o":"m 75 0 l 75 706 l 342 706 l 342 0 l 75 0 m -21 793 l -21 989 l 176 989 l 176 793 l -21 793 m 240 793 l 240 989 l 439 989 l 439 793 l 240 793 z "},"ð":{"ha":840,"x_min":35,"x_max":806,"o":"m 697 718 q 779 550 753 635 q 806 367 806 465 q 758 158 806 246 q 622 24 710 69 q 414 -22 533 -22 q 214 21 300 -22 q 81 143 128 64 q 35 328 35 222 q 74 520 35 438 q 184 647 113 603 q 351 692 256 692 q 432 679 399 692 l 432 682 q 342 774 394 725 l 161 710 l 122 817 l 240 858 q 158 918 208 883 l 388 1011 q 481 944 440 978 l 653 1006 l 692 899 l 578 858 q 697 718 649 789 m 424 171 q 449 171 424 171 q 503 217 475 171 q 531 349 531 264 q 503 479 531 432 q 424 526 475 526 q 344 479 372 526 q 317 349 317 432 q 344 217 317 264 q 424 171 372 171 z "},"ñ":{"ha":856,"x_min":75,"x_max":788,"o":"m 529 725 q 719 650 650 725 q 788 435 788 575 l 788 0 l 521 0 l 521 401 q 438 519 521 519 q 342 354 342 519 l 342 0 l 75 0 l 75 706 l 322 706 l 322 625 l 325 625 q 413 699 361 672 q 529 725 464 725 m 711 989 q 660 834 707 890 q 531 778 614 778 q 474 786 499 778 q 414 811 449 794 q 374 829 389 824 q 344 835 360 835 q 306 821 319 835 q 289 778 293 807 l 151 778 q 203 933 157 878 q 333 989 250 989 q 390 981 365 989 q 450 956 415 972 q 477 944 454 954 q 519 933 500 933 q 558 947 544 933 q 574 989 571 960 l 711 989 z "},"ò":{"ha":858,"x_min":35,"x_max":824,"o":"m 429 728 q 489 728 429 728 q 638 682 549 728 q 775 551 726 636 q 824 353 824 467 q 775 154 824 239 q 638 24 726 69 q 429 -22 549 -22 q 221 24 310 -22 q 83 154 132 69 q 35 353 35 239 q 83 551 35 467 q 221 682 132 636 q 429 728 310 728 m 429 529 q 402 529 429 529 q 345 483 375 529 q 315 353 315 436 q 345 223 315 269 q 429 176 375 176 q 513 223 483 176 q 543 353 543 269 q 513 483 543 436 q 429 529 483 529 m 576 781 l 374 781 l 176 989 l 465 989 l 576 781 z "},"ó":{"ha":858,"x_min":35,"x_max":824,"o":"m 429 728 q 489 728 429 728 q 638 682 549 728 q 775 551 726 636 q 824 353 824 467 q 775 154 824 239 q 638 24 726 69 q 429 -22 549 -22 q 221 24 310 -22 q 83 154 132 69 q 35 353 35 239 q 83 551 35 467 q 221 682 132 636 q 429 728 310 728 m 429 529 q 402 529 429 529 q 345 483 375 529 q 315 353 315 436 q 345 223 315 269 q 429 176 375 176 q 513 223 483 176 q 543 353 543 269 q 513 483 543 436 q 429 529 483 529 m 282 781 l 393 989 l 682 989 l 485 781 l 282 781 z "},"ô":{"ha":858,"x_min":35,"x_max":824,"o":"m 429 728 q 489 728 429 728 q 638 682 549 728 q 775 551 726 636 q 824 353 824 467 q 775 154 824 239 q 638 24 726 69 q 429 -22 549 -22 q 221 24 310 -22 q 83 154 132 69 q 35 353 35 239 q 83 551 35 467 q 221 682 132 636 q 429 728 310 728 m 429 529 q 402 529 429 529 q 345 483 375 529 q 315 353 315 436 q 345 223 315 269 q 429 176 375 176 q 513 223 483 176 q 543 353 543 269 q 513 483 543 436 q 429 529 483 529 m 429 885 l 353 781 l 146 781 l 317 989 l 542 989 l 713 781 l 506 781 l 429 885 z "},"õ":{"ha":858,"x_min":35,"x_max":824,"o":"m 429 728 q 489 728 429 728 q 638 682 549 728 q 775 551 726 636 q 824 353 824 467 q 775 154 824 239 q 638 24 726 69 q 429 -22 549 -22 q 221 24 310 -22 q 83 154 132 69 q 35 353 35 239 q 83 551 35 467 q 221 682 132 636 q 429 728 310 728 m 429 529 q 402 529 429 529 q 345 483 375 529 q 315 353 315 436 q 345 223 315 269 q 429 176 375 176 q 513 223 483 176 q 543 353 543 269 q 513 483 543 436 q 429 529 483 529 m 708 989 q 658 834 704 890 q 528 778 611 778 q 471 786 496 778 q 411 811 446 794 q 372 829 386 824 q 342 835 357 835 q 303 821 317 835 q 286 778 290 807 l 149 778 q 201 933 154 878 q 331 989 247 989 q 388 981 363 989 q 447 956 413 972 q 474 944 451 954 q 517 933 497 933 q 555 947 542 933 q 571 989 568 960 l 708 989 z "},"ö":{"ha":858,"x_min":35,"x_max":824,"o":"m 429 728 q 489 728 429 728 q 638 682 549 728 q 775 551 726 636 q 824 353 824 467 q 775 154 824 239 q 638 24 726 69 q 429 -22 549 -22 q 221 24 310 -22 q 83 154 132 69 q 35 353 35 239 q 83 551 35 467 q 221 682 132 636 q 429 728 310 728 m 429 529 q 402 529 429 529 q 345 483 375 529 q 315 353 315 436 q 345 223 315 269 q 429 176 375 176 q 513 223 483 176 q 543 353 543 269 q 513 483 543 436 q 429 529 483 529 m 153 793 l 153 989 l 378 989 l 378 793 l 153 793 m 481 793 l 481 989 l 707 989 l 707 793 l 481 793 z "},"÷":{"ha":786,"x_min":76,"x_max":710,"o":"m 279 611 l 279 786 l 507 786 l 507 611 l 279 611 m 76 338 l 76 544 l 710 544 l 710 338 l 76 338 m 279 94 l 279 269 l 507 269 l 507 94 l 279 94 z "},"ø":{"ha":858,"x_min":35,"x_max":824,"o":"m 708 633 q 794 513 764 583 q 824 353 824 442 q 775 154 824 239 q 638 24 726 69 q 429 -22 549 -22 q 251 10 331 -22 l 179 -89 l 85 -19 l 151 71 q 65 192 94 121 q 35 353 35 264 q 83 551 35 467 q 221 682 132 636 q 429 728 310 728 q 608 696 528 728 l 681 794 l 775 725 l 708 633 m 429 542 q 332 490 367 542 q 297 353 297 439 q 308 268 297 308 l 494 522 q 429 542 467 542 m 429 164 q 526 215 492 164 q 561 353 561 267 q 551 436 561 403 l 365 182 q 429 164 394 164 z "},"ù":{"ha":856,"x_min":68,"x_max":781,"o":"m 326 -19 q 137 56 206 -19 q 68 271 68 131 l 68 706 l 335 706 l 335 304 q 418 186 335 186 q 514 351 514 186 l 514 706 l 781 706 l 781 0 l 533 0 l 533 81 l 531 81 q 443 7 494 33 q 326 -19 392 -19 m 576 781 l 374 781 l 176 989 l 465 989 l 576 781 z "},"ú":{"ha":856,"x_min":68,"x_max":781,"o":"m 326 -19 q 137 56 206 -19 q 68 271 68 131 l 68 706 l 335 706 l 335 304 q 418 186 335 186 q 514 351 514 186 l 514 706 l 781 706 l 781 0 l 533 0 l 533 81 l 531 81 q 443 7 494 33 q 326 -19 392 -19 m 281 781 l 392 989 l 681 989 l 483 781 l 281 781 z "},"û":{"ha":856,"x_min":68,"x_max":781,"o":"m 326 -19 q 137 56 206 -19 q 68 271 68 131 l 68 706 l 335 706 l 335 304 q 418 186 335 186 q 514 351 514 186 l 514 706 l 781 706 l 781 0 l 533 0 l 533 81 l 531 81 q 443 7 494 33 q 326 -19 392 -19 m 429 885 l 353 781 l 146 781 l 317 989 l 542 989 l 713 781 l 506 781 l 429 885 z "},"ü":{"ha":856,"x_min":68,"x_max":781,"o":"m 326 -19 q 137 56 206 -19 q 68 271 68 131 l 68 706 l 335 706 l 335 304 q 418 186 335 186 q 514 351 514 186 l 514 706 l 781 706 l 781 0 l 533 0 l 533 81 l 531 81 q 443 7 494 33 q 326 -19 392 -19 m 151 793 l 151 989 l 376 989 l 376 793 l 151 793 m 479 793 l 479 989 l 706 989 l 706 793 l 479 793 z "},"ý":{"ha":774,"x_min":-17,"x_max":786,"o":"m 568 31 q 488 -147 532 -83 q 383 -239 444 -211 q 228 -267 321 -267 q 89 -253 144 -267 l 89 -61 q 154 -69 121 -69 q 219 -52 196 -69 q 242 0 242 -35 q 235 39 242 15 q 197 144 228 63 l -17 706 l 272 706 l 335 471 q 400 178 372 326 l 403 178 q 460 472 424 311 l 514 706 l 786 706 l 568 31 m 244 781 l 356 989 l 644 989 l 447 781 l 244 781 z "},"þ":{"ha":864,"x_min":75,"x_max":829,"o":"m 344 639 q 424 704 375 682 q 529 726 474 726 q 688 681 619 726 q 792 550 756 635 q 829 353 829 465 q 792 156 829 240 q 688 25 756 71 q 529 -21 619 -21 q 424 1 474 -21 q 344 67 375 24 l 342 67 l 342 -257 l 75 -257 l 75 989 l 342 989 l 342 639 l 344 639 m 438 525 q 358 478 388 525 q 328 353 328 432 q 358 227 328 274 q 438 181 388 181 q 519 227 489 181 q 550 353 550 274 q 519 478 550 432 q 438 525 489 525 z "},"ÿ":{"ha":774,"x_min":-17,"x_max":786,"o":"m 568 31 q 488 -147 532 -83 q 383 -239 444 -211 q 228 -267 321 -267 q 89 -253 144 -267 l 89 -61 q 154 -69 121 -69 q 219 -52 196 -69 q 242 0 242 -35 q 235 39 242 15 q 197 144 228 63 l -17 706 l 272 706 l 335 471 q 400 178 372 326 l 403 178 q 460 472 424 311 l 514 706 l 786 706 l 568 31 m 115 793 l 115 989 l 340 989 l 340 793 l 115 793 m 443 793 l 443 989 l 669 989 l 669 793 l 443 793 z "},"Ā":{"ha":1015,"x_min":-3,"x_max":1018,"o":"m 340 178 l 290 0 l -3 0 l 329 989 l 686 989 l 1018 0 l 725 0 l 675 178 l 340 178 m 594 464 q 510 797 551 615 l 507 797 q 421 464 463 607 l 401 396 l 614 396 l 594 464 m 235 1076 l 235 1236 l 781 1236 l 781 1076 l 235 1076 z "},"ā":{"ha":800,"x_min":25,"x_max":754,"o":"m 394 728 q 649 653 565 728 q 732 435 732 578 l 732 206 q 754 0 732 75 l 514 0 q 503 89 503 40 l 500 89 q 271 -19 417 -19 q 92 43 158 -19 q 25 201 25 106 q 92 353 25 297 q 313 432 158 408 q 475 450 388 444 l 475 475 q 392 572 475 572 q 331 549 353 572 q 308 482 310 526 l 54 482 q 144 658 61 589 q 394 728 228 728 m 367 301 q 305 272 324 292 q 286 219 286 253 q 306 166 286 186 q 364 146 326 146 q 409 154 388 146 q 444 179 431 163 q 469 224 463 199 q 475 290 475 249 l 475 317 q 367 301 407 310 m 113 807 l 113 967 l 658 967 l 658 807 l 113 807 z "},"Ă":{"ha":1015,"x_min":-3,"x_max":1018,"o":"m 340 178 l 290 0 l -3 0 l 329 989 l 686 989 l 1018 0 l 725 0 l 675 178 l 340 178 m 594 464 q 510 797 551 615 l 507 797 q 421 464 463 607 l 401 396 l 614 396 l 594 464 m 760 1272 q 690 1111 756 1168 q 508 1054 625 1054 q 326 1111 392 1054 q 257 1272 261 1168 l 419 1272 q 508 1201 424 1201 q 597 1272 593 1201 l 760 1272 z "},"ă":{"ha":800,"x_min":25,"x_max":754,"o":"m 394 728 q 649 653 565 728 q 732 435 732 578 l 732 206 q 754 0 732 75 l 514 0 q 503 89 503 40 l 500 89 q 271 -19 417 -19 q 92 43 158 -19 q 25 201 25 106 q 92 353 25 297 q 313 432 158 408 q 475 450 388 444 l 475 475 q 392 572 475 572 q 331 549 353 572 q 308 482 310 526 l 54 482 q 144 658 61 589 q 394 728 228 728 m 367 301 q 305 272 324 292 q 286 219 286 253 q 306 166 286 186 q 364 146 326 146 q 409 154 388 146 q 444 179 431 163 q 469 224 463 199 q 475 290 475 249 l 475 317 q 367 301 407 310 m 638 989 q 568 828 633 885 q 386 771 503 771 q 204 828 269 771 q 135 989 139 885 l 297 989 q 386 918 301 918 q 475 989 471 918 l 638 989 z "},"Ą":{"ha":1015,"x_min":-3,"x_max":1022,"o":"m 340 178 l 290 0 l -3 0 l 329 989 l 686 989 l 1018 0 l 725 0 l 675 178 l 340 178 m 594 464 q 510 797 551 615 l 507 797 q 421 464 463 607 l 401 396 l 614 396 l 594 464 m 1018 0 q 953 -52 972 -29 q 935 -99 935 -75 q 978 -136 935 -136 q 1022 -128 1004 -136 l 1022 -257 q 875 -279 960 -279 q 735 -244 782 -279 q 689 -146 689 -210 q 720 -67 689 -101 q 814 0 751 -32 l 1018 0 z "},"ą":{"ha":800,"x_min":25,"x_max":758,"o":"m 758 -128 l 758 -257 q 611 -279 696 -279 q 472 -244 518 -279 q 425 -146 425 -210 q 456 -67 425 -101 q 550 0 488 -32 l 514 0 q 503 89 503 40 l 500 89 q 271 -19 417 -19 q 92 43 158 -19 q 25 201 25 106 q 92 353 25 297 q 313 432 158 408 q 475 450 388 444 l 475 475 q 392 572 475 572 q 331 549 353 572 q 308 482 310 526 l 54 482 q 144 658 61 589 q 394 728 228 728 q 649 653 565 728 q 732 435 732 578 l 732 206 q 754 0 732 75 q 690 -52 708 -29 q 671 -99 671 -75 q 714 -136 671 -136 q 758 -128 740 -136 m 367 301 q 305 272 324 292 q 286 219 286 253 q 306 166 286 186 q 364 146 326 146 q 409 154 388 146 q 444 179 431 163 q 469 224 463 199 q 475 290 475 249 l 475 317 q 367 301 407 310 z "},"Ć":{"ha":1014,"x_min":43,"x_max":972,"o":"m 515 1011 q 748 965 649 1011 q 904 830 847 918 q 967 621 961 742 l 675 621 q 626 735 667 694 q 515 775 585 775 q 383 700 432 775 q 333 494 333 625 q 383 290 333 365 q 515 214 432 214 q 626 257 583 214 q 676 376 669 300 l 972 376 q 835 81 957 185 q 515 -22 714 -22 q 263 40 369 -22 q 100 219 157 103 q 43 494 43 335 q 100 770 43 654 q 263 949 157 886 q 515 1011 369 1011 m 368 1056 l 479 1272 l 768 1272 l 571 1056 l 368 1056 z "},"ć":{"ha":818,"x_min":35,"x_max":789,"o":"m 417 728 q 674 647 574 728 q 789 428 775 565 l 513 428 q 484 503 508 476 q 421 529 460 529 q 343 484 371 529 q 315 356 315 439 q 343 222 315 268 q 421 176 371 176 q 486 206 461 176 q 513 290 511 236 l 789 290 q 677 61 778 144 q 417 -22 576 -22 q 215 24 301 -22 q 82 155 129 69 q 35 356 35 240 q 81 552 35 468 q 215 682 128 636 q 417 728 301 728 m 268 781 l 379 989 l 668 989 l 471 781 l 268 781 z "},"Ĉ":{"ha":1014,"x_min":43,"x_max":972,"o":"m 515 1011 q 748 965 649 1011 q 904 830 847 918 q 967 621 961 742 l 675 621 q 626 735 667 694 q 515 775 585 775 q 383 700 432 775 q 333 494 333 625 q 383 290 333 365 q 515 214 432 214 q 626 257 583 214 q 676 376 669 300 l 972 376 q 835 81 957 185 q 515 -22 714 -22 q 263 40 369 -22 q 100 219 157 103 q 43 494 43 335 q 100 770 43 654 q 263 949 157 886 q 515 1011 369 1011 m 626 1272 l 804 1056 l 597 1056 l 514 1168 l 432 1056 l 225 1056 l 401 1272 l 626 1272 z "},"ĉ":{"ha":818,"x_min":35,"x_max":789,"o":"m 417 728 q 674 647 574 728 q 789 428 775 565 l 513 428 q 484 503 508 476 q 421 529 460 529 q 343 484 371 529 q 315 356 315 439 q 343 222 315 268 q 421 176 371 176 q 486 206 461 176 q 513 290 511 236 l 789 290 q 677 61 778 144 q 417 -22 576 -22 q 215 24 301 -22 q 82 155 129 69 q 35 356 35 240 q 81 552 35 468 q 215 682 128 636 q 417 728 301 728 m 417 885 l 340 781 l 133 781 l 304 989 l 529 989 l 700 781 l 493 781 l 417 885 z "},"Ċ":{"ha":1014,"x_min":43,"x_max":972,"o":"m 515 1011 q 748 965 649 1011 q 904 830 847 918 q 967 621 961 742 l 675 621 q 626 735 667 694 q 515 775 585 775 q 383 700 432 775 q 333 494 333 625 q 383 290 333 365 q 515 214 432 214 q 626 257 583 214 q 676 376 669 300 l 972 376 q 835 81 957 185 q 515 -22 714 -22 q 263 40 369 -22 q 100 219 157 103 q 43 494 43 335 q 100 770 43 654 q 263 949 157 886 q 515 1011 369 1011 m 381 1068 l 381 1264 l 647 1264 l 647 1068 l 381 1068 z "},"ċ":{"ha":818,"x_min":35,"x_max":789,"o":"m 417 728 q 674 647 574 728 q 789 428 775 565 l 513 428 q 484 503 508 476 q 421 529 460 529 q 343 484 371 529 q 315 356 315 439 q 343 222 315 268 q 421 176 371 176 q 486 206 461 176 q 513 290 511 236 l 789 290 q 677 61 778 144 q 417 -22 576 -22 q 215 24 301 -22 q 82 155 129 69 q 35 356 35 240 q 81 552 35 468 q 215 682 128 636 q 417 728 301 728 m 283 793 l 283 989 l 550 989 l 550 793 l 283 793 z "},"Č":{"ha":1014,"x_min":43,"x_max":972,"o":"m 515 1011 q 748 965 649 1011 q 904 830 847 918 q 967 621 961 742 l 675 621 q 626 735 667 694 q 515 775 585 775 q 383 700 432 775 q 333 494 333 625 q 383 290 333 365 q 515 214 432 214 q 626 257 583 214 q 676 376 669 300 l 972 376 q 835 81 957 185 q 515 -22 714 -22 q 263 40 369 -22 q 100 219 157 103 q 43 494 43 335 q 100 770 43 654 q 263 949 157 886 q 515 1011 369 1011 m 403 1056 l 225 1272 l 432 1272 l 515 1160 l 597 1272 l 804 1272 l 628 1056 l 403 1056 z "},"č":{"ha":818,"x_min":35,"x_max":789,"o":"m 417 728 q 674 647 574 728 q 789 428 775 565 l 513 428 q 484 503 508 476 q 421 529 460 529 q 343 484 371 529 q 315 356 315 439 q 343 222 315 268 q 421 176 371 176 q 486 206 461 176 q 513 290 511 236 l 789 290 q 677 61 778 144 q 417 -22 576 -22 q 215 24 301 -22 q 82 155 129 69 q 35 356 35 240 q 81 552 35 468 q 215 682 128 636 q 417 728 301 728 m 304 781 l 133 989 l 340 989 l 417 885 l 493 989 l 700 989 l 529 781 l 304 781 z "},"Ď":{"ha":1043,"x_min":96,"x_max":1000,"o":"m 469 989 q 862 860 724 989 q 1000 494 1000 732 q 862 128 1000 257 q 469 0 724 0 l 96 0 l 96 989 l 469 989 m 374 233 l 461 233 q 646 301 582 233 q 710 494 710 368 q 646 688 710 621 q 461 756 582 756 l 374 756 l 374 233 m 371 1056 l 193 1272 l 400 1272 l 483 1160 l 565 1272 l 772 1272 l 596 1056 l 371 1056 z "},"ď":{"ha":864,"x_min":35,"x_max":1067,"o":"m 533 0 l 533 81 l 531 81 q 449 5 499 31 q 342 -21 400 -21 q 181 25 250 -21 q 73 156 111 71 q 35 353 35 240 q 72 550 35 465 q 176 681 108 635 q 335 726 244 726 q 440 704 390 726 q 519 639 489 682 l 522 639 l 522 989 l 789 989 l 789 0 l 533 0 m 426 525 q 344 478 375 525 q 314 353 314 432 q 344 227 314 274 q 426 181 375 181 q 506 227 476 181 q 536 353 536 274 q 506 478 536 432 q 426 525 476 525 m 828 742 l 857 989 l 1067 989 l 978 742 l 828 742 z "},"Đ":{"ha":1047,"x_min":18,"x_max":1004,"o":"m 474 989 q 867 860 729 989 q 1004 494 1004 732 q 867 128 1004 257 q 474 0 729 0 l 101 0 l 101 414 l 18 414 l 18 583 l 101 583 l 101 989 l 474 989 m 465 233 q 650 301 586 233 q 714 494 714 368 q 650 688 714 621 q 465 756 586 756 l 378 756 l 378 583 l 572 583 l 572 414 l 378 414 l 378 233 l 465 233 z "},"đ":{"ha":860,"x_min":35,"x_max":879,"o":"m 789 789 l 789 0 l 533 0 l 533 81 l 531 81 q 449 5 499 31 q 342 -21 400 -21 q 181 25 250 -21 q 73 156 111 71 q 35 353 35 240 q 72 550 35 465 q 176 681 108 635 q 335 726 244 726 q 440 704 390 726 q 519 639 489 682 l 522 639 l 522 789 l 335 789 l 335 907 l 522 907 l 522 989 l 789 989 l 789 907 l 879 907 l 879 789 l 789 789 m 426 181 q 506 227 476 181 q 536 353 536 274 q 506 478 536 432 q 426 525 476 525 q 344 478 375 525 q 314 353 314 432 q 344 227 314 274 q 426 181 375 181 z "},"Ē":{"ha":882,"x_min":96,"x_max":819,"o":"m 374 760 l 374 611 l 781 611 l 781 388 l 374 388 l 374 229 l 819 229 l 819 0 l 96 0 l 96 989 l 811 989 l 811 760 l 374 760 m 183 1076 l 183 1236 l 729 1236 l 729 1076 l 183 1076 z "},"ē":{"ha":825,"x_min":35,"x_max":790,"o":"m 413 150 q 478 169 453 150 q 508 218 504 188 l 781 218 q 715 95 765 150 q 588 9 665 40 q 415 -22 510 -22 q 209 27 294 -22 q 79 163 124 76 q 35 357 35 249 q 79 547 35 463 q 209 679 124 631 q 411 728 294 728 q 628 671 539 728 q 760 510 718 614 q 783 419 776 468 q 790 299 790 371 l 297 299 q 331 183 301 217 q 413 150 361 150 m 299 439 l 522 439 q 488 532 517 503 q 411 561 458 561 q 299 439 317 561 m 139 807 l 139 967 l 685 967 l 685 807 l 139 807 z "},"Ĕ":{"ha":882,"x_min":96,"x_max":819,"o":"m 374 760 l 374 611 l 781 611 l 781 388 l 374 388 l 374 229 l 819 229 l 819 0 l 96 0 l 96 989 l 811 989 l 811 760 l 374 760 m 708 1272 q 639 1111 704 1168 q 457 1054 574 1054 q 275 1111 340 1054 q 206 1272 210 1168 l 368 1272 q 457 1201 372 1201 q 546 1272 542 1201 l 708 1272 z "},"ĕ":{"ha":825,"x_min":35,"x_max":790,"o":"m 413 150 q 478 169 453 150 q 508 218 504 188 l 781 218 q 715 95 765 150 q 588 9 665 40 q 415 -22 510 -22 q 209 27 294 -22 q 79 163 124 76 q 35 357 35 249 q 79 547 35 463 q 209 679 124 631 q 411 728 294 728 q 628 671 539 728 q 760 510 718 614 q 783 419 776 468 q 790 299 790 371 l 297 299 q 331 183 301 217 q 413 150 361 150 m 299 439 l 522 439 q 488 532 517 503 q 411 561 458 561 q 299 439 317 561 m 664 989 q 594 828 660 885 q 413 771 529 771 q 231 828 296 771 q 161 989 165 885 l 324 989 q 413 918 328 918 q 501 989 497 918 l 664 989 z "},"Ė":{"ha":882,"x_min":96,"x_max":819,"o":"m 374 760 l 374 611 l 781 611 l 781 388 l 374 388 l 374 229 l 819 229 l 819 0 l 96 0 l 96 989 l 811 989 l 811 760 l 374 760 m 322 1068 l 322 1264 l 589 1264 l 589 1068 l 322 1068 z "},"ė":{"ha":825,"x_min":35,"x_max":790,"o":"m 413 150 q 478 169 453 150 q 508 218 504 188 l 781 218 q 715 95 765 150 q 588 9 665 40 q 415 -22 510 -22 q 209 27 294 -22 q 79 163 124 76 q 35 357 35 249 q 79 547 35 463 q 209 679 124 631 q 411 728 294 728 q 628 671 539 728 q 760 510 718 614 q 783 419 776 468 q 790 299 790 371 l 297 299 q 331 183 301 217 q 413 150 361 150 m 299 439 l 522 439 q 488 532 517 503 q 411 561 458 561 q 299 439 317 561 m 279 793 l 279 989 l 546 989 l 546 793 l 279 793 z "},"Ę":{"ha":882,"x_min":96,"x_max":825,"o":"m 374 760 l 374 611 l 781 611 l 781 388 l 374 388 l 374 229 l 819 229 l 819 0 l 96 0 l 96 989 l 811 989 l 811 760 l 374 760 m 821 0 q 756 -52 775 -29 q 738 -99 738 -75 q 781 -136 738 -136 q 825 -128 807 -136 l 825 -257 q 678 -279 763 -279 q 538 -244 585 -279 q 492 -146 492 -210 q 523 -67 492 -101 q 617 0 554 -32 l 821 0 z "},"ę":{"ha":825,"x_min":35,"x_max":790,"o":"m 669 40 q 613 -28 629 3 q 597 -89 597 -58 q 644 -136 597 -136 q 689 -128 669 -136 l 689 -257 q 540 -279 625 -279 q 402 -244 449 -279 q 356 -146 356 -210 q 377 -79 356 -108 q 442 -24 399 -50 l 442 -21 q 415 -22 432 -22 q 209 27 294 -22 q 79 163 124 76 q 35 357 35 249 q 79 547 35 463 q 209 679 124 631 q 411 728 294 728 q 628 671 539 728 q 760 510 718 614 q 783 419 776 468 q 790 299 790 371 l 297 299 q 331 183 301 217 q 413 150 361 150 q 478 169 453 150 q 508 218 504 188 l 781 218 q 669 40 760 129 m 299 439 l 522 439 q 488 532 517 503 q 411 561 458 561 q 299 439 317 561 z "},"Ě":{"ha":882,"x_min":96,"x_max":819,"o":"m 374 760 l 374 611 l 781 611 l 781 388 l 374 388 l 374 229 l 819 229 l 819 0 l 96 0 l 96 989 l 811 989 l 811 760 l 374 760 m 344 1056 l 167 1272 l 374 1272 l 457 1160 l 539 1272 l 746 1272 l 569 1056 l 344 1056 z "},"ě":{"ha":825,"x_min":35,"x_max":790,"o":"m 413 150 q 478 169 453 150 q 508 218 504 188 l 781 218 q 715 95 765 150 q 588 9 665 40 q 415 -22 510 -22 q 209 27 294 -22 q 79 163 124 76 q 35 357 35 249 q 79 547 35 463 q 209 679 124 631 q 411 728 294 728 q 628 671 539 728 q 760 510 718 614 q 783 419 776 468 q 790 299 790 371 l 297 299 q 331 183 301 217 q 413 150 361 150 m 299 439 l 522 439 q 488 532 517 503 q 411 561 458 561 q 299 439 317 561 m 300 781 l 129 989 l 336 989 l 413 885 l 489 989 l 696 989 l 525 781 l 300 781 z "},"Ĝ":{"ha":1053,"x_min":43,"x_max":971,"o":"m 533 1011 q 756 969 660 1011 q 908 848 853 926 q 971 667 964 769 l 676 667 q 630 756 667 725 q 532 788 593 788 q 387 708 440 788 q 333 490 333 628 q 387 268 333 350 q 533 186 440 186 q 659 234 613 186 q 710 364 706 282 l 519 364 l 519 567 l 968 567 l 968 0 l 731 0 l 731 94 l 728 94 q 617 8 683 38 q 464 -21 550 -21 q 240 41 335 -21 q 94 218 144 103 q 43 490 43 333 q 102 769 43 651 q 272 949 161 886 q 533 1011 382 1011 m 635 1272 l 813 1056 l 606 1056 l 522 1168 l 440 1056 l 233 1056 l 410 1272 l 635 1272 z "},"ĝ":{"ha":851,"x_min":35,"x_max":776,"o":"m 328 726 q 440 696 388 726 q 525 611 493 665 l 528 611 l 528 706 l 776 706 l 776 49 q 401 -274 776 -274 q 165 -213 253 -274 q 65 -44 78 -153 l 318 -44 q 344 -94 321 -76 q 406 -112 367 -112 q 488 -77 460 -112 q 517 40 517 -42 l 517 108 l 514 108 q 432 35 483 61 q 321 10 381 10 q 169 53 233 10 q 69 178 104 97 q 35 368 35 260 q 70 558 35 476 q 172 683 106 639 q 328 726 239 726 m 418 525 q 338 482 368 525 q 308 368 308 439 q 338 255 308 297 q 418 213 367 213 q 496 255 467 213 q 525 368 525 297 q 496 482 525 439 q 418 525 467 525 m 403 885 l 326 781 l 119 781 l 290 989 l 515 989 l 686 781 l 479 781 l 403 885 z "},"Ğ":{"ha":1053,"x_min":43,"x_max":971,"o":"m 533 1011 q 756 969 660 1011 q 908 848 853 926 q 971 667 964 769 l 676 667 q 630 756 667 725 q 532 788 593 788 q 387 708 440 788 q 333 490 333 628 q 387 268 333 350 q 533 186 440 186 q 659 234 613 186 q 710 364 706 282 l 519 364 l 519 567 l 968 567 l 968 0 l 731 0 l 731 94 l 728 94 q 617 8 683 38 q 464 -21 550 -21 q 240 41 335 -21 q 94 218 144 103 q 43 490 43 333 q 102 769 43 651 q 272 949 161 886 q 533 1011 382 1011 m 775 1272 q 706 1111 771 1168 q 524 1054 640 1054 q 342 1111 407 1054 q 272 1272 276 1168 l 435 1272 q 524 1201 439 1201 q 613 1272 608 1201 l 775 1272 z "},"ğ":{"ha":851,"x_min":35,"x_max":776,"o":"m 328 726 q 440 696 388 726 q 525 611 493 665 l 528 611 l 528 706 l 776 706 l 776 49 q 401 -274 776 -274 q 165 -213 253 -274 q 65 -44 78 -153 l 318 -44 q 344 -94 321 -76 q 406 -112 367 -112 q 488 -77 460 -112 q 517 40 517 -42 l 517 108 l 514 108 q 432 35 483 61 q 321 10 381 10 q 169 53 233 10 q 69 178 104 97 q 35 368 35 260 q 70 558 35 476 q 172 683 106 639 q 328 726 239 726 m 418 525 q 338 482 368 525 q 308 368 308 439 q 338 255 308 297 q 418 213 367 213 q 496 255 467 213 q 525 368 525 297 q 496 482 525 439 q 418 525 467 525 m 654 989 q 585 828 650 885 q 403 771 519 771 q 221 828 286 771 q 151 989 156 885 l 314 989 q 403 918 318 918 q 492 989 488 918 l 654 989 z "},"Ġ":{"ha":1053,"x_min":43,"x_max":971,"o":"m 533 1011 q 756 969 660 1011 q 908 848 853 926 q 971 667 964 769 l 676 667 q 630 756 667 725 q 532 788 593 788 q 387 708 440 788 q 333 490 333 628 q 387 268 333 350 q 533 186 440 186 q 659 234 613 186 q 710 364 706 282 l 519 364 l 519 567 l 968 567 l 968 0 l 731 0 l 731 94 l 728 94 q 617 8 683 38 q 464 -21 550 -21 q 240 41 335 -21 q 94 218 144 103 q 43 490 43 333 q 102 769 43 651 q 272 949 161 886 q 533 1011 382 1011 m 389 1068 l 389 1264 l 656 1264 l 656 1068 l 389 1068 z "},"ġ":{"ha":851,"x_min":35,"x_max":776,"o":"m 328 726 q 440 696 388 726 q 525 611 493 665 l 528 611 l 528 706 l 776 706 l 776 49 q 401 -274 776 -274 q 165 -213 253 -274 q 65 -44 78 -153 l 318 -44 q 344 -94 321 -76 q 406 -112 367 -112 q 488 -77 460 -112 q 517 40 517 -42 l 517 108 l 514 108 q 432 35 483 61 q 321 10 381 10 q 169 53 233 10 q 69 178 104 97 q 35 368 35 260 q 70 558 35 476 q 172 683 106 639 q 328 726 239 726 m 418 525 q 338 482 368 525 q 308 368 308 439 q 338 255 308 297 q 418 213 367 213 q 496 255 467 213 q 525 368 525 297 q 496 482 525 439 q 418 525 467 525 m 269 793 l 269 989 l 536 989 l 536 793 l 269 793 z "},"Ģ":{"ha":1053,"x_min":43,"x_max":971,"o":"m 533 1011 q 756 969 660 1011 q 908 848 853 926 q 971 667 964 769 l 676 667 q 630 756 667 725 q 532 788 593 788 q 387 708 440 788 q 333 490 333 628 q 387 268 333 350 q 533 186 440 186 q 659 234 613 186 q 710 364 706 282 l 519 364 l 519 567 l 968 567 l 968 0 l 731 0 l 731 94 l 728 94 q 617 8 683 38 q 464 -21 550 -21 q 240 41 335 -21 q 94 218 144 103 q 43 490 43 333 q 102 769 43 651 q 272 949 161 886 q 533 1011 382 1011 m 526 -389 l 429 -389 l 494 -236 l 429 -236 l 429 -68 l 628 -68 l 628 -236 l 526 -389 z "},"ģ":{"ha":851,"x_min":35,"x_max":776,"o":"m 328 726 q 440 696 388 726 q 525 611 493 665 l 528 611 l 528 706 l 776 706 l 776 49 q 401 -274 776 -274 q 165 -213 253 -274 q 65 -44 78 -153 l 318 -44 q 344 -94 321 -76 q 406 -112 367 -112 q 488 -77 460 -112 q 517 40 517 -42 l 517 108 l 514 108 q 432 35 483 61 q 321 10 381 10 q 169 53 233 10 q 69 178 104 97 q 35 368 35 260 q 70 558 35 476 q 172 683 106 639 q 328 726 239 726 m 418 525 q 338 482 368 525 q 308 368 308 439 q 338 255 308 297 q 418 213 367 213 q 496 255 467 213 q 525 368 525 297 q 496 482 525 439 q 418 525 467 525 m 501 956 l 501 788 l 303 788 l 303 956 l 404 1108 l 501 1108 l 436 956 l 501 956 z "},"Ĥ":{"ha":1071,"x_min":96,"x_max":975,"o":"m 697 0 l 697 392 l 374 392 l 374 0 l 96 0 l 96 989 l 374 989 l 374 625 l 697 625 l 697 989 l 975 989 l 975 0 l 697 0 m 647 1272 l 825 1056 l 618 1056 l 535 1168 l 453 1056 l 246 1056 l 422 1272 l 647 1272 z "},"ĥ":{"ha":856,"x_min":75,"x_max":788,"o":"m 344 642 q 424 703 376 682 q 529 725 471 725 q 719 650 650 725 q 788 435 788 575 l 788 0 l 521 0 l 521 401 q 438 519 521 519 q 342 354 342 519 l 342 0 l 75 0 l 75 989 l 342 989 l 342 642 l 344 642 m 538 1272 l 715 1056 l 508 1056 l 425 1168 l 343 1056 l 136 1056 l 313 1272 l 538 1272 z "},"Ħ":{"ha":1071,"x_min":26,"x_max":1044,"o":"m 975 776 l 975 0 l 697 0 l 697 392 l 374 392 l 374 0 l 96 0 l 96 776 l 26 776 l 26 901 l 96 901 l 96 989 l 374 989 l 374 901 l 697 901 l 697 989 l 975 989 l 975 901 l 1044 901 l 1044 776 l 975 776 m 374 776 l 374 625 l 697 625 l 697 776 l 374 776 z "},"ħ":{"ha":856,"x_min":-21,"x_max":788,"o":"m 529 725 q 719 650 650 725 q 788 435 788 575 l 788 0 l 521 0 l 521 401 q 438 519 521 519 q 342 354 342 519 l 342 0 l 75 0 l 75 789 l -21 789 l -21 903 l 75 903 l 75 989 l 342 989 l 342 903 l 525 903 l 525 789 l 342 789 l 342 642 l 344 642 q 424 703 376 682 q 529 725 471 725 z "},"Ĩ":{"ha":469,"x_min":-46,"x_max":514,"o":"m 96 0 l 96 989 l 374 989 l 374 0 l 96 0 m 514 1272 q 463 1117 510 1174 q 333 1061 417 1061 q 276 1069 301 1061 q 217 1094 251 1078 q 177 1113 192 1107 q 147 1118 163 1118 q 109 1104 122 1118 q 92 1061 96 1090 l -46 1061 q 6 1217 -40 1161 q 136 1272 53 1272 q 193 1264 168 1272 q 253 1239 218 1256 q 280 1227 257 1238 q 322 1217 303 1217 q 360 1230 347 1217 q 376 1272 374 1243 l 514 1272 z "},"ĩ":{"ha":417,"x_min":-40,"x_max":457,"o":"m 75 0 l 75 706 l 342 706 l 342 0 l 75 0 m 457 989 q 410 832 453 889 q 290 775 367 775 q 240 784 263 775 q 190 810 218 793 q 174 819 188 811 q 148 831 160 828 q 126 835 136 835 q 79 775 85 835 l -40 775 q 7 933 -35 876 q 126 989 49 989 q 178 980 156 989 q 228 954 200 971 q 261 936 247 942 q 290 931 275 931 q 336 989 332 931 l 457 989 z "},"Ī":{"ha":469,"x_min":-39,"x_max":507,"o":"m 96 0 l 96 989 l 374 989 l 374 0 l 96 0 m -39 1076 l -39 1236 l 507 1236 l 507 1076 l -39 1076 z "},"ī":{"ha":417,"x_min":-10,"x_max":425,"o":"m 75 0 l 75 706 l 342 706 l 342 0 l 75 0 m -10 806 l -10 967 l 425 967 l 425 806 l -10 806 z "},"Ĭ":{"ha":469,"x_min":-17,"x_max":486,"o":"m 96 0 l 96 989 l 374 989 l 374 0 l 96 0 m 486 1272 q 417 1111 482 1168 q 235 1054 351 1054 q 53 1111 118 1054 q -17 1272 -12 1168 l 146 1272 q 235 1201 150 1201 q 324 1272 319 1201 l 486 1272 z "},"ĭ":{"ha":417,"x_min":-21,"x_max":438,"o":"m 75 0 l 75 706 l 342 706 l 342 0 l 75 0 m 438 989 q 376 827 435 883 q 208 771 317 771 q 41 827 100 771 q -21 989 -18 883 l 136 989 q 208 915 138 915 q 260 933 243 915 q 281 989 278 951 l 438 989 z "},"Į":{"ha":469,"x_min":44,"x_max":378,"o":"m 96 0 l 96 989 l 374 989 l 374 0 l 96 0 m 374 0 q 309 -52 328 -29 q 290 -99 290 -75 q 333 -136 290 -136 q 378 -128 360 -136 l 378 -257 q 231 -279 315 -279 q 91 -244 138 -279 q 44 -146 44 -210 q 76 -67 44 -101 q 169 0 107 -32 l 374 0 z "},"į":{"ha":417,"x_min":13,"x_max":346,"o":"m 75 793 l 75 989 l 342 989 l 342 793 l 75 793 m 346 -128 l 346 -257 q 199 -279 283 -279 q 59 -244 106 -279 q 13 -146 13 -210 q 44 -67 13 -101 q 138 0 75 -32 l 75 0 l 75 706 l 342 706 l 342 0 q 277 -52 296 -29 q 258 -99 258 -75 q 301 -136 258 -136 q 346 -128 328 -136 z "},"İ":{"ha":469,"x_min":96,"x_max":374,"o":"m 96 0 l 96 989 l 374 989 l 374 0 l 96 0 m 100 1068 l 100 1264 l 367 1264 l 367 1068 l 100 1068 z "},"ı":{"ha":417,"x_min":75,"x_max":342,"o":"m 75 0 l 75 706 l 342 706 l 342 0 l 75 0 z "},"Ĳ":{"ha":1064,"x_min":96,"x_max":975,"o":"m 96 0 l 96 989 l 374 989 l 374 0 l 96 0 m 975 353 q 888 75 975 164 q 617 -14 800 -14 q 490 1 557 -14 l 490 228 q 551 222 526 222 q 638 240 607 222 q 683 299 669 257 q 697 418 697 342 l 697 989 l 975 989 l 975 353 z "},"ĳ":{"ha":833,"x_min":75,"x_max":758,"o":"m 75 793 l 75 989 l 342 989 l 342 793 l 75 793 m 492 793 l 492 989 l 758 989 l 758 793 l 492 793 m 75 0 l 75 706 l 342 706 l 342 0 l 75 0 m 758 19 q 683 -194 758 -124 q 481 -265 607 -265 q 353 -250 407 -265 l 353 -67 q 388 -71 368 -71 q 467 -42 442 -71 q 492 65 492 -12 l 492 706 l 758 706 l 758 19 z "},"Ĵ":{"ha":594,"x_min":21,"x_max":658,"o":"m 506 353 q 418 75 506 164 q 147 -14 331 -14 q 21 1 88 -14 l 21 228 q 82 222 57 222 q 169 240 138 222 q 214 299 200 257 q 228 418 228 342 l 228 989 l 506 989 l 506 353 m 481 1272 l 658 1056 l 451 1056 l 368 1168 l 286 1056 l 79 1056 l 256 1272 l 481 1272 z "},"ĵ":{"ha":417,"x_min":-64,"x_max":471,"o":"m 342 19 q 266 -194 342 -124 q 64 -265 190 -265 q -64 -250 -10 -265 l -64 -67 q -29 -71 -49 -71 q 50 -42 25 -71 q 75 65 75 -12 l 75 706 l 342 706 l 342 19 m 275 785 l 208 874 l 143 785 l -54 785 l 103 989 l 314 989 l 471 785 l 275 785 z "},"Ķ":{"ha":994,"x_min":96,"x_max":990,"o":"m 990 0 l 643 0 l 376 443 l 374 443 l 374 0 l 96 0 l 96 989 l 374 989 l 374 572 l 376 572 l 635 989 l 969 989 l 626 522 l 990 0 m 496 -389 l 399 -389 l 464 -236 l 399 -236 l 399 -68 l 597 -68 l 597 -236 l 496 -389 z "},"ķ":{"ha":818,"x_min":75,"x_max":832,"o":"m 506 0 l 344 308 l 342 308 l 342 0 l 75 0 l 75 989 l 342 989 l 342 436 l 344 436 l 493 706 l 808 706 l 572 372 l 832 0 l 506 0 m 418 -389 l 321 -389 l 386 -236 l 321 -236 l 321 -68 l 519 -68 l 519 -236 l 418 -389 z "},"ĸ":{"ha":826,"x_min":75,"x_max":832,"o":"m 506 0 l 344 308 l 342 308 l 342 0 l 75 0 l 75 706 l 342 706 l 342 436 l 344 436 l 493 706 l 808 706 l 572 372 l 832 0 l 506 0 z "},"Ĺ":{"ha":814,"x_min":96,"x_max":803,"o":"m 803 233 l 803 0 l 96 0 l 96 989 l 374 989 l 374 233 l 803 233 m 129 1056 l 240 1272 l 529 1272 l 332 1056 l 129 1056 z "},"ĺ":{"ha":417,"x_min":75,"x_max":476,"o":"m 75 0 l 75 989 l 342 989 l 342 0 l 75 0 m 76 1064 l 188 1272 l 476 1272 l 279 1064 l 76 1064 z "},"Ļ":{"ha":814,"x_min":96,"x_max":803,"o":"m 803 233 l 803 0 l 96 0 l 96 989 l 374 989 l 374 233 l 803 233 m 447 -389 l 350 -389 l 415 -236 l 350 -236 l 350 -68 l 549 -68 l 549 -236 l 447 -389 z "},"ļ":{"ha":417,"x_min":75,"x_max":342,"o":"m 75 0 l 75 989 l 342 989 l 342 0 l 75 0 m 207 -389 l 110 -389 l 175 -236 l 110 -236 l 110 -68 l 308 -68 l 308 -236 l 207 -389 z "},"Ľ":{"ha":814,"x_min":96,"x_max":803,"o":"m 803 233 l 803 0 l 96 0 l 96 989 l 374 989 l 374 233 l 803 233 m 419 664 l 449 989 l 658 989 l 569 664 l 419 664 z "},"ľ":{"ha":417,"x_min":75,"x_max":619,"o":"m 75 0 l 75 989 l 342 989 l 342 0 l 75 0 m 381 742 l 410 989 l 619 989 l 531 742 l 381 742 z "},"Ŀ":{"ha":932,"x_min":96,"x_max":842,"o":"m 803 233 l 803 0 l 96 0 l 96 989 l 374 989 l 374 233 l 803 233 m 564 474 l 564 753 l 842 753 l 842 474 l 564 474 z "},"ŀ":{"ha":754,"x_min":75,"x_max":724,"o":"m 75 0 l 75 989 l 342 989 l 342 0 l 75 0 m 446 354 l 446 633 l 724 633 l 724 354 l 446 354 z "},"Ł":{"ha":833,"x_min":14,"x_max":822,"o":"m 822 0 l 115 0 l 115 383 l 14 324 l 14 525 l 115 585 l 115 989 l 393 989 l 393 722 l 599 844 l 599 642 l 393 521 l 393 233 l 822 233 l 822 0 z "},"ł":{"ha":517,"x_min":14,"x_max":503,"o":"m 392 486 l 392 0 l 125 0 l 125 361 l 14 294 l 14 486 l 125 553 l 125 989 l 392 989 l 392 676 l 503 743 l 503 553 l 392 486 z "},"Ń":{"ha":1149,"x_min":96,"x_max":1051,"o":"m 649 0 l 494 379 q 353 763 415 578 l 350 763 q 361 358 361 583 l 361 0 l 96 0 l 96 989 l 500 989 l 653 610 q 794 226 733 414 l 797 226 q 786 631 786 442 l 786 989 l 1051 989 l 1051 0 l 649 0 m 426 1056 l 538 1272 l 826 1272 l 629 1056 l 426 1056 z "},"ń":{"ha":856,"x_min":75,"x_max":788,"o":"m 529 725 q 719 650 650 725 q 788 435 788 575 l 788 0 l 521 0 l 521 401 q 438 519 521 519 q 342 354 342 519 l 342 0 l 75 0 l 75 706 l 322 706 l 322 625 l 325 625 q 413 699 361 672 q 529 725 464 725 m 285 781 l 396 989 l 685 989 l 488 781 l 285 781 z "},"Ņ":{"ha":1149,"x_min":96,"x_max":1051,"o":"m 649 0 l 494 379 q 353 763 415 578 l 350 763 q 361 358 361 583 l 361 0 l 96 0 l 96 989 l 500 989 l 653 610 q 794 226 733 414 l 797 226 q 786 631 786 442 l 786 989 l 1051 989 l 1051 0 l 649 0 m 571 -389 l 474 -389 l 539 -236 l 474 -236 l 474 -68 l 672 -68 l 672 -236 l 571 -389 z "},"ņ":{"ha":856,"x_min":75,"x_max":788,"o":"m 529 725 q 719 650 650 725 q 788 435 788 575 l 788 0 l 521 0 l 521 401 q 438 519 521 519 q 342 354 342 519 l 342 0 l 75 0 l 75 706 l 322 706 l 322 625 l 325 625 q 413 699 361 672 q 529 725 464 725 m 429 -389 l 332 -389 l 397 -236 l 332 -236 l 332 -68 l 531 -68 l 531 -236 l 429 -389 z "},"Ň":{"ha":1149,"x_min":96,"x_max":1051,"o":"m 649 0 l 494 379 q 353 763 415 578 l 350 763 q 361 358 361 583 l 361 0 l 96 0 l 96 989 l 500 989 l 653 610 q 794 226 733 414 l 797 226 q 786 631 786 442 l 786 989 l 1051 989 l 1051 0 l 649 0 m 463 1056 l 285 1272 l 492 1272 l 575 1160 l 657 1272 l 864 1272 l 688 1056 l 463 1056 z "},"ň":{"ha":856,"x_min":75,"x_max":788,"o":"m 529 725 q 719 650 650 725 q 788 435 788 575 l 788 0 l 521 0 l 521 401 q 438 519 521 519 q 342 354 342 519 l 342 0 l 75 0 l 75 706 l 322 706 l 322 625 l 325 625 q 413 699 361 672 q 529 725 464 725 m 319 781 l 149 989 l 356 989 l 432 885 l 508 989 l 715 989 l 544 781 l 319 781 z "},"ŉ":{"ha":1118,"x_min":49,"x_max":1050,"o":"m 182 535 l 49 535 l 149 751 l 72 751 l 72 989 l 308 989 l 308 751 l 182 535 m 792 725 q 981 650 913 725 q 1050 435 1050 575 l 1050 0 l 783 0 l 783 401 q 700 519 783 519 q 604 354 604 519 l 604 0 l 338 0 l 338 706 l 585 706 l 585 625 l 588 625 q 675 699 624 672 q 792 725 726 725 z "},"Ŋ":{"ha":1074,"x_min":96,"x_max":978,"o":"m 978 7 q 901 -203 978 -135 q 696 -271 825 -271 q 574 -257 621 -271 l 574 -81 q 610 -85 589 -85 q 678 -68 656 -85 q 700 -12 700 -51 q 690 35 700 11 q 642 132 681 58 l 493 406 q 350 710 403 576 l 347 710 q 361 361 361 544 l 361 0 l 96 0 l 96 989 l 439 989 l 579 726 q 725 421 647 604 l 728 421 q 713 768 713 579 l 713 989 l 978 989 l 978 7 z "},"ŋ":{"ha":856,"x_min":75,"x_max":788,"o":"m 710 663 q 769 567 750 624 q 788 413 788 510 l 788 21 q 712 -192 788 -122 q 510 -262 636 -262 q 382 -247 436 -262 l 382 -65 q 417 -69 397 -69 q 496 -40 471 -69 q 521 68 521 -10 l 521 386 q 514 458 521 432 q 492 500 507 483 q 439 521 471 521 q 342 353 342 521 l 342 0 l 75 0 l 75 706 l 342 706 l 342 642 l 344 642 q 533 726 421 726 q 710 663 646 726 z "},"Ō":{"ha":1065,"x_min":43,"x_max":1022,"o":"m 532 1011 q 606 1011 532 1011 q 792 948 681 1011 q 963 768 903 885 q 1022 494 1022 651 q 963 221 1022 338 q 792 41 903 104 q 532 -22 681 -22 q 273 41 383 -22 q 103 221 163 104 q 43 494 43 338 q 103 768 43 651 q 273 948 163 885 q 532 1011 383 1011 m 532 775 q 386 702 438 775 q 335 494 335 629 q 386 287 335 360 q 532 214 438 214 q 679 287 628 214 q 731 494 731 360 q 679 702 731 629 q 532 775 628 775 m 260 1076 l 260 1236 l 806 1236 l 806 1076 l 260 1076 z "},"ō":{"ha":858,"x_min":35,"x_max":824,"o":"m 429 728 q 489 728 429 728 q 638 682 549 728 q 775 551 726 636 q 824 353 824 467 q 775 154 824 239 q 638 24 726 69 q 429 -22 549 -22 q 221 24 310 -22 q 83 154 132 69 q 35 353 35 239 q 83 551 35 467 q 221 682 132 636 q 429 728 310 728 m 429 529 q 402 529 429 529 q 345 483 375 529 q 315 353 315 436 q 345 223 315 269 q 429 176 375 176 q 513 223 483 176 q 543 353 543 269 q 513 483 543 436 q 429 529 483 529 m 157 807 l 157 967 l 703 967 l 703 807 l 157 807 z "},"Ŏ":{"ha":1065,"x_min":43,"x_max":1022,"o":"m 532 1011 q 606 1011 532 1011 q 792 948 681 1011 q 963 768 903 885 q 1022 494 1022 651 q 963 221 1022 338 q 792 41 903 104 q 532 -22 681 -22 q 273 41 383 -22 q 103 221 163 104 q 43 494 43 338 q 103 768 43 651 q 273 948 163 885 q 532 1011 383 1011 m 532 775 q 386 702 438 775 q 335 494 335 629 q 386 287 335 360 q 532 214 438 214 q 679 287 628 214 q 731 494 731 360 q 679 702 731 629 q 532 775 628 775 m 783 1272 q 714 1111 779 1168 q 532 1054 649 1054 q 350 1111 415 1054 q 281 1272 285 1168 l 443 1272 q 532 1201 447 1201 q 621 1272 617 1201 l 783 1272 z "},"ŏ":{"ha":858,"x_min":35,"x_max":824,"o":"m 429 728 q 489 728 429 728 q 638 682 549 728 q 775 551 726 636 q 824 353 824 467 q 775 154 824 239 q 638 24 726 69 q 429 -22 549 -22 q 221 24 310 -22 q 83 154 132 69 q 35 353 35 239 q 83 551 35 467 q 221 682 132 636 q 429 728 310 728 m 429 529 q 402 529 429 529 q 345 483 375 529 q 315 353 315 436 q 345 223 315 269 q 429 176 375 176 q 513 223 483 176 q 543 353 543 269 q 513 483 543 436 q 429 529 483 529 m 681 989 q 611 828 676 885 q 429 771 546 771 q 247 828 313 771 q 178 989 182 885 l 340 989 q 429 918 344 918 q 518 989 514 918 l 681 989 z "},"Ő":{"ha":1065,"x_min":43,"x_max":1022,"o":"m 532 1011 q 606 1011 532 1011 q 792 948 681 1011 q 963 768 903 885 q 1022 494 1022 651 q 963 221 1022 338 q 792 41 903 104 q 532 -22 681 -22 q 273 41 383 -22 q 103 221 163 104 q 43 494 43 338 q 103 768 43 651 q 273 948 163 885 q 532 1011 383 1011 m 532 775 q 386 702 438 775 q 335 494 335 629 q 386 287 335 360 q 532 214 438 214 q 679 287 628 214 q 731 494 731 360 q 679 702 731 629 q 532 775 628 775 m 244 1056 l 383 1272 l 632 1272 l 435 1056 l 244 1056 m 551 1056 l 689 1272 l 938 1272 l 740 1056 l 551 1056 z "},"ő":{"ha":858,"x_min":35,"x_max":833,"o":"m 429 728 q 489 728 429 728 q 638 682 549 728 q 775 551 726 636 q 824 353 824 467 q 775 154 824 239 q 638 24 726 69 q 429 -22 549 -22 q 221 24 310 -22 q 83 154 132 69 q 35 353 35 239 q 83 551 35 467 q 221 682 132 636 q 429 728 310 728 m 429 529 q 402 529 429 529 q 345 483 375 529 q 315 353 315 436 q 345 223 315 269 q 429 176 375 176 q 513 223 483 176 q 543 353 543 269 q 513 483 543 436 q 429 529 483 529 m 140 781 l 279 989 l 528 989 l 331 781 l 140 781 m 447 781 l 585 989 l 833 989 l 636 781 l 447 781 z "},"Œ":{"ha":1419,"x_min":43,"x_max":1357,"o":"m 911 760 l 911 611 l 1318 611 l 1318 388 l 911 388 l 911 229 l 1357 229 l 1357 0 l 581 0 q 184 129 325 0 q 43 494 43 258 q 184 860 43 731 q 581 989 325 989 l 1351 989 l 1351 760 l 911 760 m 583 760 q 397 692 460 760 q 333 494 333 624 q 397 297 333 365 q 583 229 460 229 l 643 229 l 643 760 l 583 760 z "},"œ":{"ha":1317,"x_min":35,"x_max":1282,"o":"m 906 150 q 970 169 944 150 q 1000 218 996 188 l 1271 218 q 1206 95 1256 150 q 1080 9 1157 40 q 910 -22 1003 -22 q 663 68 757 -22 q 419 -22 569 -22 q 216 24 303 -22 q 82 154 129 69 q 35 353 35 239 q 82 551 35 467 q 216 682 129 636 q 419 728 303 728 q 663 638 569 728 q 906 728 756 728 q 1121 671 1032 728 q 1251 510 1210 614 q 1275 419 1268 468 q 1282 299 1282 371 l 793 299 q 826 183 797 217 q 906 150 856 150 m 794 439 l 1014 439 q 979 531 1008 501 q 906 561 950 561 q 794 439 811 561 m 429 176 q 456 176 429 176 q 513 223 483 176 q 543 353 543 269 q 513 483 543 436 q 429 529 483 529 q 345 483 375 529 q 315 353 315 436 q 345 223 315 269 q 429 176 375 176 z "},"Ŕ":{"ha":979,"x_min":96,"x_max":967,"o":"m 903 706 q 854 553 903 615 q 718 464 806 490 l 718 461 q 805 398 772 442 q 875 256 838 354 l 967 0 l 672 0 l 601 213 q 542 315 576 286 q 443 343 508 343 l 374 343 l 374 0 l 96 0 l 96 989 l 536 989 q 903 706 903 989 m 374 544 l 492 544 q 632 667 632 544 q 594 753 632 726 q 485 781 557 781 l 374 781 l 374 544 m 326 1056 l 438 1272 l 726 1272 l 529 1056 l 326 1056 z "},"ŕ":{"ha":607,"x_min":75,"x_max":600,"o":"m 600 708 l 600 481 q 519 489 564 489 q 388 436 433 489 q 342 285 342 383 l 342 0 l 75 0 l 75 706 l 322 706 l 322 610 l 325 610 q 413 691 363 665 q 531 717 464 717 q 600 708 569 717 m 172 781 l 283 989 l 572 989 l 375 781 l 172 781 z "},"Ŗ":{"ha":979,"x_min":96,"x_max":967,"o":"m 903 706 q 854 553 903 615 q 718 464 806 490 l 718 461 q 805 398 772 442 q 875 256 838 354 l 967 0 l 672 0 l 601 213 q 542 315 576 286 q 443 343 508 343 l 374 343 l 374 0 l 96 0 l 96 989 l 536 989 q 903 706 903 989 m 374 544 l 492 544 q 632 667 632 544 q 594 753 632 726 q 485 781 557 781 l 374 781 l 374 544 m 500 -389 l 403 -389 l 468 -236 l 403 -236 l 403 -68 l 601 -68 l 601 -236 l 500 -389 z "},"ŗ":{"ha":607,"x_min":75,"x_max":600,"o":"m 600 708 l 600 481 q 519 489 564 489 q 388 436 433 489 q 342 285 342 383 l 342 0 l 75 0 l 75 706 l 322 706 l 322 610 l 325 610 q 413 691 363 665 q 531 717 464 717 q 600 708 569 717 m 207 -389 l 110 -389 l 175 -236 l 110 -236 l 110 -68 l 308 -68 l 308 -236 l 207 -389 z "},"Ř":{"ha":979,"x_min":96,"x_max":967,"o":"m 903 706 q 854 553 903 615 q 718 464 806 490 l 718 461 q 805 398 772 442 q 875 256 838 354 l 967 0 l 672 0 l 601 213 q 542 315 576 286 q 443 343 508 343 l 374 343 l 374 0 l 96 0 l 96 989 l 536 989 q 903 706 903 989 m 374 544 l 492 544 q 632 667 632 544 q 594 753 632 726 q 485 781 557 781 l 374 781 l 374 544 m 363 1056 l 185 1272 l 392 1272 l 475 1160 l 557 1272 l 764 1272 l 588 1056 l 363 1056 z "},"ř":{"ha":607,"x_min":38,"x_max":604,"o":"m 600 708 l 600 481 q 519 489 564 489 q 388 436 433 489 q 342 285 342 383 l 342 0 l 75 0 l 75 706 l 322 706 l 322 610 l 325 610 q 413 691 363 665 q 531 717 464 717 q 600 708 569 717 m 208 781 l 38 989 l 244 989 l 321 885 l 397 989 l 604 989 l 433 781 l 208 781 z "},"Ś":{"ha":918,"x_min":29,"x_max":876,"o":"m 456 1011 q 751 928 646 1011 q 856 689 856 846 l 564 689 q 533 772 564 743 q 442 801 501 801 q 361 781 390 801 q 332 725 332 760 q 349 680 332 697 q 401 650 365 663 q 511 619 438 638 q 705 558 629 590 q 828 463 781 525 q 876 297 876 400 q 826 127 876 199 q 681 17 775 56 q 456 -22 586 -22 q 142 68 254 -22 q 29 321 29 158 l 329 321 q 465 194 329 194 q 552 217 521 194 q 583 279 583 240 q 567 327 583 310 q 517 357 550 344 q 410 388 483 369 q 215 451 288 421 q 96 542 143 482 q 49 701 49 601 q 97 865 49 794 q 238 973 146 935 q 456 1011 329 1011 m 308 1056 l 419 1272 l 708 1272 l 511 1056 l 308 1056 z "},"ś":{"ha":776,"x_min":36,"x_max":739,"o":"m 386 728 q 628 669 542 728 q 714 494 714 611 l 461 494 q 382 572 461 572 q 317 525 317 572 q 328 497 317 507 q 367 476 339 486 q 454 450 394 465 q 601 402 543 426 q 699 331 660 378 q 739 208 739 283 q 649 40 739 103 q 396 -22 558 -22 q 36 229 36 -22 l 303 229 q 326 163 303 185 q 397 142 349 142 q 453 154 435 142 q 472 190 472 167 q 458 224 472 211 q 411 248 443 238 q 310 276 379 258 q 177 319 229 297 q 90 386 125 342 q 54 504 54 431 q 138 667 54 606 q 386 728 222 728 m 238 781 l 349 989 l 638 989 l 440 781 l 238 781 z "},"Ŝ":{"ha":918,"x_min":29,"x_max":876,"o":"m 456 1011 q 751 928 646 1011 q 856 689 856 846 l 564 689 q 533 772 564 743 q 442 801 501 801 q 361 781 390 801 q 332 725 332 760 q 349 680 332 697 q 401 650 365 663 q 511 619 438 638 q 705 558 629 590 q 828 463 781 525 q 876 297 876 400 q 826 127 876 199 q 681 17 775 56 q 456 -22 586 -22 q 142 68 254 -22 q 29 321 29 158 l 329 321 q 465 194 329 194 q 552 217 521 194 q 583 279 583 240 q 567 327 583 310 q 517 357 550 344 q 410 388 483 369 q 215 451 288 421 q 96 542 143 482 q 49 701 49 601 q 97 865 49 794 q 238 973 146 935 q 456 1011 329 1011 m 568 1272 l 746 1056 l 539 1056 l 456 1168 l 374 1056 l 167 1056 l 343 1272 l 568 1272 z "},"ŝ":{"ha":776,"x_min":36,"x_max":739,"o":"m 386 728 q 628 669 542 728 q 714 494 714 611 l 461 494 q 382 572 461 572 q 317 525 317 572 q 328 497 317 507 q 367 476 339 486 q 454 450 394 465 q 601 402 543 426 q 699 331 660 378 q 739 208 739 283 q 649 40 739 103 q 396 -22 558 -22 q 36 229 36 -22 l 303 229 q 326 163 303 185 q 397 142 349 142 q 453 154 435 142 q 472 190 472 167 q 458 224 472 211 q 411 248 443 238 q 310 276 379 258 q 177 319 229 297 q 90 386 125 342 q 54 504 54 431 q 138 667 54 606 q 386 728 222 728 m 386 885 l 310 781 l 103 781 l 274 989 l 499 989 l 669 781 l 463 781 l 386 885 z "},"Ş":{"ha":918,"x_min":29,"x_max":876,"o":"m 876 297 q 777 74 876 158 q 501 -21 678 -10 l 464 -82 q 508 -75 488 -75 q 601 -105 568 -75 q 635 -186 635 -135 q 586 -291 635 -250 q 449 -332 538 -332 q 357 -319 403 -332 q 272 -283 311 -307 l 314 -197 q 428 -229 381 -229 q 468 -219 454 -229 q 482 -193 482 -210 q 468 -164 482 -175 q 428 -153 454 -153 q 386 -162 406 -153 l 332 -118 l 392 -19 q 124 83 219 -6 q 29 321 29 171 l 329 321 q 465 194 329 194 q 552 217 521 194 q 583 279 583 240 q 567 327 583 310 q 517 357 550 344 q 410 388 483 369 q 215 451 288 421 q 96 542 143 482 q 49 701 49 601 q 97 865 49 794 q 238 973 146 935 q 456 1011 329 1011 q 751 928 646 1011 q 856 689 856 846 l 564 689 q 533 772 564 743 q 442 801 501 801 q 361 781 390 801 q 332 725 332 760 q 349 680 332 697 q 401 650 365 663 q 511 619 438 638 q 705 558 629 590 q 828 463 781 525 q 876 297 876 400 z "},"ş":{"ha":776,"x_min":36,"x_max":739,"o":"m 739 208 q 662 49 739 110 q 443 -21 585 -11 l 406 -82 q 450 -75 429 -75 q 543 -105 510 -75 q 576 -186 576 -135 q 528 -291 576 -250 q 390 -332 479 -332 q 299 -319 344 -332 q 214 -283 253 -307 l 256 -197 q 369 -229 322 -229 q 410 -219 396 -229 q 424 -193 424 -210 q 410 -164 424 -175 q 369 -153 396 -153 q 328 -162 347 -153 l 274 -118 l 332 -19 q 36 229 36 1 l 303 229 q 326 163 303 185 q 397 142 349 142 q 453 154 435 142 q 472 190 472 167 q 458 224 472 211 q 411 248 443 238 q 310 276 379 258 q 177 319 229 297 q 90 386 125 342 q 54 504 54 431 q 138 667 54 606 q 386 728 222 728 q 628 669 542 728 q 714 494 714 611 l 461 494 q 382 572 461 572 q 317 525 317 572 q 328 497 317 507 q 367 476 339 486 q 454 450 394 465 q 601 402 543 426 q 699 331 660 378 q 739 208 739 283 z "},"Š":{"ha":918,"x_min":29,"x_max":876,"o":"m 456 1011 q 751 928 646 1011 q 856 689 856 846 l 564 689 q 533 772 564 743 q 442 801 501 801 q 361 781 390 801 q 332 725 332 760 q 349 680 332 697 q 401 650 365 663 q 511 619 438 638 q 705 558 629 590 q 828 463 781 525 q 876 297 876 400 q 826 127 876 199 q 681 17 775 56 q 456 -22 586 -22 q 142 68 254 -22 q 29 321 29 158 l 329 321 q 465 194 329 194 q 552 217 521 194 q 583 279 583 240 q 567 327 583 310 q 517 357 550 344 q 410 388 483 369 q 215 451 288 421 q 96 542 143 482 q 49 701 49 601 q 97 865 49 794 q 238 973 146 935 q 456 1011 329 1011 m 344 1056 l 167 1272 l 374 1272 l 457 1160 l 539 1272 l 746 1272 l 569 1056 l 344 1056 z "},"š":{"ha":776,"x_min":36,"x_max":739,"o":"m 386 728 q 628 669 542 728 q 714 494 714 611 l 461 494 q 382 572 461 572 q 317 525 317 572 q 328 497 317 507 q 367 476 339 486 q 454 450 394 465 q 601 402 543 426 q 699 331 660 378 q 739 208 739 283 q 649 40 739 103 q 396 -22 558 -22 q 36 229 36 -22 l 303 229 q 326 163 303 185 q 397 142 349 142 q 453 154 435 142 q 472 190 472 167 q 458 224 472 211 q 411 248 443 238 q 310 276 379 258 q 177 319 229 297 q 90 386 125 342 q 54 504 54 431 q 138 667 54 606 q 386 728 222 728 m 274 781 l 103 989 l 310 989 l 386 885 l 463 989 l 669 989 l 499 781 l 274 781 z "},"Ţ":{"ha":886,"x_min":11,"x_max":875,"o":"m 582 756 l 582 0 l 304 0 l 304 756 l 11 756 l 11 989 l 875 989 l 875 756 l 582 756 m 440 -389 l 343 -389 l 408 -236 l 343 -236 l 343 -68 l 542 -68 l 542 -236 l 440 -389 z "},"ţ":{"ha":553,"x_min":7,"x_max":518,"o":"m 518 203 l 518 6 q 456 -8 493 -3 q 389 -12 419 -12 q 179 44 244 -12 q 114 228 114 101 l 114 515 l 7 515 l 7 706 l 114 706 l 114 903 l 381 903 l 381 706 l 511 706 l 511 515 l 381 515 l 381 300 q 401 219 381 243 q 468 196 421 196 q 518 203 497 196 m 410 -68 l 410 -236 l 308 -389 l 211 -389 l 276 -236 l 211 -236 l 211 -68 l 410 -68 z "},"Ť":{"ha":886,"x_min":11,"x_max":875,"o":"m 582 756 l 582 0 l 304 0 l 304 756 l 11 756 l 11 989 l 875 989 l 875 756 l 582 756 m 332 1056 l 154 1272 l 361 1272 l 444 1160 l 526 1272 l 733 1272 l 557 1056 l 332 1056 z "},"ť":{"ha":553,"x_min":7,"x_max":657,"o":"m 518 203 l 518 6 q 456 -8 493 -3 q 389 -12 419 -12 q 179 44 244 -12 q 114 228 114 101 l 114 515 l 7 515 l 7 706 l 114 706 l 114 903 l 381 903 l 381 706 l 511 706 l 511 515 l 381 515 l 381 300 q 401 219 381 243 q 468 196 421 196 q 518 203 497 196 m 418 742 l 447 989 l 657 989 l 568 742 l 418 742 z "},"Ŧ":{"ha":886,"x_min":11,"x_max":875,"o":"m 582 533 l 760 533 l 760 364 l 582 364 l 582 0 l 304 0 l 304 364 l 126 364 l 126 533 l 304 533 l 304 756 l 11 756 l 11 989 l 875 989 l 875 756 l 582 756 l 582 533 z "},"ŧ":{"ha":553,"x_min":7,"x_max":518,"o":"m 518 193 l 518 6 q 456 -8 493 -3 q 389 -12 419 -12 q 179 44 244 -12 q 114 228 114 101 l 114 297 l 14 297 l 14 429 l 114 429 l 114 524 l 7 524 l 7 706 l 114 706 l 114 903 l 381 903 l 381 706 l 511 706 l 511 524 l 381 524 l 381 429 l 504 429 l 504 297 l 381 297 l 381 290 q 401 210 381 235 q 468 186 421 186 q 518 193 497 186 z "},"Ũ":{"ha":1015,"x_min":88,"x_max":928,"o":"m 928 390 q 819 85 928 193 q 508 -22 710 -22 q 197 85 307 -22 q 88 390 88 192 l 88 989 l 365 989 l 365 394 q 402 265 365 310 q 508 219 439 219 q 614 265 578 219 q 650 394 650 310 l 650 989 l 928 989 l 928 390 m 786 1272 q 735 1117 782 1174 q 606 1061 689 1061 q 549 1069 574 1061 q 489 1094 524 1078 q 449 1113 464 1107 q 419 1118 435 1118 q 381 1104 394 1118 q 364 1061 368 1090 l 226 1061 q 278 1217 232 1161 q 408 1272 325 1272 q 465 1264 440 1272 q 525 1239 490 1256 q 552 1227 529 1238 q 594 1217 575 1217 q 633 1230 619 1217 q 649 1272 646 1243 l 786 1272 z "},"ũ":{"ha":856,"x_min":68,"x_max":781,"o":"m 326 -19 q 137 56 206 -19 q 68 271 68 131 l 68 706 l 335 706 l 335 304 q 418 186 335 186 q 514 351 514 186 l 514 706 l 781 706 l 781 0 l 533 0 l 533 81 l 531 81 q 443 7 494 33 q 326 -19 392 -19 m 708 989 q 658 834 704 890 q 528 778 611 778 q 471 786 496 778 q 411 811 446 794 q 372 829 386 824 q 342 835 357 835 q 303 821 317 835 q 286 778 290 807 l 149 778 q 201 933 154 878 q 331 989 247 989 q 388 981 363 989 q 447 956 413 972 q 474 944 451 954 q 517 933 497 933 q 555 947 542 933 q 571 989 568 960 l 708 989 z "},"Ū":{"ha":1015,"x_min":88,"x_max":928,"o":"m 928 390 q 819 85 928 193 q 508 -22 710 -22 q 197 85 307 -22 q 88 390 88 192 l 88 989 l 365 989 l 365 394 q 402 265 365 310 q 508 219 439 219 q 614 265 578 219 q 650 394 650 310 l 650 989 l 928 989 l 928 390 m 235 1076 l 235 1236 l 781 1236 l 781 1076 l 235 1076 z "},"ū":{"ha":856,"x_min":68,"x_max":781,"o":"m 326 -19 q 137 56 206 -19 q 68 271 68 131 l 68 706 l 335 706 l 335 304 q 418 186 335 186 q 514 351 514 186 l 514 706 l 781 706 l 781 0 l 533 0 l 533 81 l 531 81 q 443 7 494 33 q 326 -19 392 -19 m 156 807 l 156 967 l 701 967 l 701 807 l 156 807 z "},"Ŭ":{"ha":1015,"x_min":88,"x_max":928,"o":"m 928 390 q 819 85 928 193 q 508 -22 710 -22 q 197 85 307 -22 q 88 390 88 192 l 88 989 l 365 989 l 365 394 q 402 265 365 310 q 508 219 439 219 q 614 265 578 219 q 650 394 650 310 l 650 989 l 928 989 l 928 390 m 758 1272 q 689 1111 754 1168 q 507 1054 624 1054 q 325 1111 390 1054 q 256 1272 260 1168 l 418 1272 q 507 1201 422 1201 q 596 1272 592 1201 l 758 1272 z "},"ŭ":{"ha":856,"x_min":68,"x_max":781,"o":"m 326 -19 q 137 56 206 -19 q 68 271 68 131 l 68 706 l 335 706 l 335 304 q 418 186 335 186 q 514 351 514 186 l 514 706 l 781 706 l 781 0 l 533 0 l 533 81 l 531 81 q 443 7 494 33 q 326 -19 392 -19 m 681 989 q 611 828 676 885 q 429 771 546 771 q 247 828 313 771 q 178 989 182 885 l 340 989 q 429 918 344 918 q 518 989 514 918 l 681 989 z "},"Ů":{"ha":1015,"x_min":88,"x_max":928,"o":"m 928 390 q 819 85 928 193 q 508 -22 710 -22 q 197 85 307 -22 q 88 390 88 192 l 88 989 l 365 989 l 365 394 q 402 265 365 310 q 508 219 439 219 q 614 265 578 219 q 650 394 650 310 l 650 989 l 928 989 l 928 390 m 507 1379 q 624 1331 576 1379 q 672 1213 672 1282 q 624 1094 672 1143 q 507 1046 576 1046 q 390 1095 439 1046 q 340 1213 340 1144 q 390 1331 340 1282 q 507 1379 439 1379 m 507 1293 q 490 1293 507 1293 q 450 1269 474 1293 q 426 1213 426 1246 q 450 1156 426 1179 q 507 1132 474 1132 q 564 1156 540 1132 q 588 1213 588 1179 q 564 1269 588 1246 q 507 1293 540 1293 z "},"ů":{"ha":856,"x_min":68,"x_max":781,"o":"m 326 -19 q 137 56 206 -19 q 68 271 68 131 l 68 706 l 335 706 l 335 304 q 418 186 335 186 q 514 351 514 186 l 514 706 l 781 706 l 781 0 l 533 0 l 533 81 l 531 81 q 443 7 494 33 q 326 -19 392 -19 m 429 1096 q 547 1047 499 1096 q 594 929 594 999 q 547 811 594 860 q 429 763 499 763 q 312 812 361 763 q 263 929 263 861 q 312 1047 263 999 q 429 1096 361 1096 m 429 1010 q 413 1010 429 1010 q 372 986 396 1010 q 349 929 349 963 q 372 872 349 896 q 429 849 396 849 q 486 872 463 849 q 510 929 510 896 q 486 986 510 963 q 429 1010 463 1010 z "},"Ű":{"ha":1015,"x_min":88,"x_max":928,"o":"m 928 390 q 819 85 928 193 q 508 -22 710 -22 q 197 85 307 -22 q 88 390 88 192 l 88 989 l 365 989 l 365 394 q 402 265 365 310 q 508 219 439 219 q 614 265 578 219 q 650 394 650 310 l 650 989 l 928 989 l 928 390 m 218 1056 l 357 1272 l 606 1272 l 408 1056 l 218 1056 m 525 1056 l 663 1272 l 911 1272 l 714 1056 l 525 1056 z "},"ű":{"ha":856,"x_min":68,"x_max":833,"o":"m 326 -19 q 137 56 206 -19 q 68 271 68 131 l 68 706 l 335 706 l 335 304 q 418 186 335 186 q 514 351 514 186 l 514 706 l 781 706 l 781 0 l 533 0 l 533 81 l 531 81 q 443 7 494 33 q 326 -19 392 -19 m 140 781 l 279 989 l 528 989 l 331 781 l 140 781 m 447 781 l 585 989 l 833 989 l 636 781 l 447 781 z "},"Ų":{"ha":1015,"x_min":88,"x_max":928,"o":"m 928 390 q 888 186 928 271 q 768 35 849 101 q 701 -35 721 -4 q 681 -96 681 -67 q 725 -142 681 -142 q 771 -132 749 -142 l 771 -257 q 629 -278 706 -278 q 494 -244 539 -278 q 449 -146 449 -210 q 469 -79 449 -108 q 533 -24 490 -50 l 533 -21 q 508 -22 525 -22 q 197 85 307 -22 q 88 390 88 192 l 88 989 l 365 989 l 365 394 q 402 265 365 310 q 508 219 439 219 q 614 265 578 219 q 650 394 650 310 l 650 989 l 928 989 l 928 390 z "},"ų":{"ha":856,"x_min":68,"x_max":785,"o":"m 785 -128 l 785 -257 q 638 -279 722 -279 q 498 -244 544 -279 q 451 -146 451 -210 q 483 -67 451 -101 q 576 0 514 -32 l 533 0 l 533 81 l 531 81 q 443 7 494 33 q 326 -19 392 -19 q 137 56 206 -19 q 68 271 68 131 l 68 706 l 335 706 l 335 304 q 418 186 335 186 q 514 351 514 186 l 514 706 l 781 706 l 781 0 q 716 -52 735 -29 q 697 -99 697 -75 q 740 -136 697 -136 q 785 -128 767 -136 z "},"Ŵ":{"ha":1424,"x_min":8,"x_max":1415,"o":"m 847 0 l 772 399 q 714 772 732 626 l 711 772 q 651 399 692 610 l 576 0 l 201 0 l 8 989 l 278 989 l 338 636 q 396 236 369 451 l 399 236 q 464 636 424 432 l 533 989 l 890 989 l 960 636 q 1026 236 999 443 l 1029 236 q 1086 636 1053 436 l 1147 989 l 1415 989 l 1222 0 l 847 0 m 822 1272 l 1000 1056 l 793 1056 l 710 1168 l 628 1056 l 421 1056 l 597 1272 l 822 1272 z "},"ŵ":{"ha":1231,"x_min":6,"x_max":1225,"o":"m 714 0 l 664 251 q 617 544 638 383 l 614 544 q 567 251 593 383 l 517 0 l 164 0 l 6 706 l 263 706 l 300 460 q 336 167 324 303 l 339 167 q 393 463 357 292 l 447 706 l 783 706 l 838 463 q 892 167 874 292 l 894 167 q 931 460 907 303 l 968 706 l 1225 706 l 1067 0 l 714 0 m 615 885 l 539 781 l 332 781 l 503 989 l 728 989 l 899 781 l 692 781 l 615 885 z "},"Ŷ":{"ha":957,"x_min":0,"x_max":956,"o":"m 617 0 l 339 0 l 339 361 l 0 989 l 306 989 l 383 815 q 476 571 442 685 l 479 571 q 574 815 517 689 l 651 989 l 956 989 l 617 361 l 617 0 m 590 1272 l 768 1056 l 561 1056 l 478 1168 l 396 1056 l 189 1056 l 365 1272 l 590 1272 z "},"ŷ":{"ha":774,"x_min":-17,"x_max":786,"o":"m 568 31 q 488 -147 532 -83 q 383 -239 444 -211 q 228 -267 321 -267 q 89 -253 144 -267 l 89 -61 q 154 -69 121 -69 q 219 -52 196 -69 q 242 0 242 -35 q 235 39 242 15 q 197 144 228 63 l -17 706 l 272 706 l 335 471 q 400 178 372 326 l 403 178 q 460 472 424 311 l 514 706 l 786 706 l 568 31 m 392 885 l 315 781 l 108 781 l 279 989 l 504 989 l 675 781 l 468 781 l 392 885 z "},"Ÿ":{"ha":957,"x_min":0,"x_max":956,"o":"m 617 0 l 339 0 l 339 361 l 0 989 l 306 989 l 383 815 q 476 571 442 685 l 479 571 q 574 815 517 689 l 651 989 l 956 989 l 617 361 l 617 0 m 201 1068 l 201 1264 l 426 1264 l 426 1068 l 201 1068 m 529 1068 l 529 1264 l 756 1264 l 756 1068 l 529 1068 z "},"Ź":{"ha":840,"x_min":28,"x_max":810,"o":"m 361 231 l 361 228 l 810 228 l 810 0 l 28 0 l 28 239 l 454 758 l 454 761 l 47 761 l 47 989 l 786 989 l 786 750 l 361 231 m 271 1056 l 382 1272 l 671 1272 l 474 1056 l 271 1056 z "},"ź":{"ha":724,"x_min":42,"x_max":682,"o":"m 375 204 l 375 201 l 682 201 l 682 0 l 42 0 l 42 207 l 339 501 l 339 504 l 51 504 l 51 706 l 671 706 l 671 499 l 375 204 m 218 781 l 329 989 l 618 989 l 421 781 l 218 781 z "},"Ż":{"ha":840,"x_min":28,"x_max":810,"o":"m 361 231 l 361 228 l 810 228 l 810 0 l 28 0 l 28 239 l 454 758 l 454 761 l 47 761 l 47 989 l 786 989 l 786 750 l 361 231 m 283 1068 l 283 1264 l 550 1264 l 550 1068 l 283 1068 z "},"ż":{"ha":724,"x_min":42,"x_max":682,"o":"m 375 204 l 375 201 l 682 201 l 682 0 l 42 0 l 42 207 l 339 501 l 339 504 l 51 504 l 51 706 l 671 706 l 671 499 l 375 204 m 233 793 l 233 989 l 500 989 l 500 793 l 233 793 z "},"Ž":{"ha":840,"x_min":28,"x_max":810,"o":"m 361 231 l 361 228 l 810 228 l 810 0 l 28 0 l 28 239 l 454 758 l 454 761 l 47 761 l 47 989 l 786 989 l 786 750 l 361 231 m 306 1056 l 128 1272 l 335 1272 l 418 1160 l 500 1272 l 707 1272 l 531 1056 l 306 1056 z "},"ž":{"ha":724,"x_min":42,"x_max":682,"o":"m 375 204 l 375 201 l 682 201 l 682 0 l 42 0 l 42 207 l 339 501 l 339 504 l 51 504 l 51 706 l 671 706 l 671 499 l 375 204 m 254 781 l 83 989 l 290 989 l 367 885 l 443 989 l 650 989 l 479 781 l 254 781 z "},"ſ":{"ha":528,"x_min":10,"x_max":519,"o":"m 519 989 l 519 808 q 485 813 510 813 q 409 790 433 813 q 385 715 385 767 l 385 0 l 118 0 l 118 515 l 10 515 l 10 706 l 118 706 l 118 746 q 189 938 118 874 q 396 1003 260 1003 q 519 989 456 1003 z "},"Ə":{"ha":1093,"x_min":43,"x_max":1050,"o":"m 536 1011 q 813 947 697 1011 q 990 765 929 882 q 1050 497 1050 649 q 989 232 1050 350 q 813 46 928 114 q 543 -22 699 -22 q 278 40 390 -22 q 104 219 165 103 q 43 492 43 335 q 49 574 43 547 l 760 574 q 691 744 751 692 q 538 797 631 797 q 422 765 467 797 q 367 681 376 732 l 68 681 q 151 848 89 772 q 313 967 214 924 q 536 1011 411 1011 m 543 190 q 683 238 628 190 q 756 385 739 286 l 335 385 q 403 239 347 288 q 543 190 460 190 z "},"ƒ":{"ha":911,"x_min":39,"x_max":872,"o":"m 872 992 l 872 808 q 793 817 839 817 q 709 791 739 817 q 665 711 679 765 l 650 650 l 804 650 l 804 467 l 606 467 l 497 36 q 372 -194 457 -121 q 153 -267 288 -267 q 39 -253 86 -267 l 39 -69 q 110 -78 72 -78 q 197 -49 167 -78 q 249 60 228 -19 l 351 467 l 213 467 l 213 650 l 396 650 l 418 735 q 534 940 453 872 q 750 1007 615 1007 q 872 992 819 1007 z "},"Ǻ":{"ha":1015,"x_min":-3,"x_max":1018,"o":"m 340 178 l 290 0 l -3 0 l 329 989 l 686 989 l 1018 0 l 725 0 l 675 178 l 340 178 m 594 464 q 510 797 551 615 l 507 797 q 421 464 463 607 l 401 396 l 614 396 l 594 464 m 508 1351 q 626 1303 578 1351 q 674 1185 674 1254 q 626 1067 674 1115 q 508 1018 578 1018 q 391 1067 440 1018 q 342 1185 342 1117 q 391 1303 342 1254 q 508 1351 440 1351 m 508 1265 q 492 1265 508 1265 q 451 1242 475 1265 q 428 1185 428 1218 q 451 1128 428 1151 q 508 1104 475 1104 q 565 1128 542 1104 q 589 1185 589 1151 q 565 1242 589 1218 q 508 1265 542 1265 m 360 1379 l 471 1596 l 760 1596 l 563 1379 l 360 1379 z "},"ǻ":{"ha":800,"x_min":25,"x_max":754,"o":"m 394 728 q 649 653 565 728 q 732 435 732 578 l 732 206 q 754 0 732 75 l 514 0 q 503 89 503 40 l 500 89 q 271 -19 417 -19 q 92 43 158 -19 q 25 201 25 106 q 92 353 25 297 q 313 432 158 408 q 475 450 388 444 l 475 475 q 392 572 475 572 q 331 549 353 572 q 308 482 310 526 l 54 482 q 144 658 61 589 q 394 728 228 728 m 367 301 q 305 272 324 292 q 286 219 286 253 q 306 166 286 186 q 364 146 326 146 q 409 154 388 146 q 444 179 431 163 q 469 224 463 199 q 475 290 475 249 l 475 317 q 367 301 407 310 m 386 1090 q 503 1042 456 1090 q 551 924 551 993 q 503 806 551 854 q 386 757 456 757 q 269 806 318 757 q 219 924 219 856 q 269 1042 219 993 q 386 1090 318 1090 m 386 1004 q 369 1004 386 1004 q 329 981 353 1004 q 306 924 306 957 q 329 867 306 890 q 386 843 353 843 q 443 867 419 843 q 467 924 467 890 q 443 981 467 957 q 386 1004 419 1004 m 238 1118 l 349 1326 l 638 1326 l 440 1118 l 238 1118 z "},"Ǽ":{"ha":1374,"x_min":-8,"x_max":1311,"o":"m 1311 0 l 726 0 l 699 197 l 371 197 l 292 0 l -8 0 l 414 989 l 1307 989 l 1307 760 l 879 760 l 901 611 l 1272 611 l 1272 388 l 932 388 l 956 229 l 1311 229 l 1311 0 m 618 763 l 599 763 l 461 419 l 668 419 l 618 763 m 567 1056 l 678 1272 l 967 1272 l 769 1056 l 567 1056 z "},"ǽ":{"ha":1265,"x_min":25,"x_max":1231,"o":"m 854 150 q 919 169 893 150 q 947 218 944 188 l 1219 218 q 1154 95 1204 150 q 1027 9 1104 40 q 857 -22 950 -22 q 703 7 771 -22 q 589 90 635 36 q 322 -22 507 -22 q 103 40 181 -22 q 25 201 25 103 q 126 385 25 331 q 447 439 228 439 l 492 439 l 492 475 q 470 549 492 525 q 401 572 449 572 q 310 482 311 572 l 56 482 q 147 658 63 589 q 401 728 232 728 q 635 660 554 728 q 853 728 722 728 q 1069 671 981 728 q 1199 510 1158 614 q 1223 419 1215 468 q 1231 299 1231 369 l 740 299 q 774 183 744 217 q 854 150 804 150 m 744 436 l 963 436 q 928 531 958 501 q 853 561 899 561 q 744 436 761 561 m 449 310 q 286 218 286 310 q 307 160 286 182 q 367 139 328 139 q 456 172 424 139 q 483 219 475 192 q 492 292 492 247 l 492 310 l 449 310 m 481 781 l 592 989 l 881 989 l 683 781 l 481 781 z "},"Ǿ":{"ha":1065,"x_min":43,"x_max":1022,"o":"m 893 868 q 989 706 956 801 q 1022 494 1022 611 q 963 221 1022 338 q 792 41 903 104 q 532 -22 681 -22 q 281 36 390 -22 l 199 -75 l 89 6 l 174 119 q 76 283 110 188 q 43 494 43 378 q 103 768 43 651 q 273 948 163 885 q 532 1011 383 1011 q 785 951 676 1011 l 868 1064 l 978 983 l 893 868 m 340 347 l 643 758 q 532 789 594 789 q 375 712 431 789 q 319 494 319 635 q 340 347 319 408 m 532 200 q 690 277 635 200 q 746 494 746 354 q 726 640 746 578 l 424 231 q 532 200 468 200 m 385 1056 l 496 1272 l 785 1272 l 588 1056 l 385 1056 z "},"ǿ":{"ha":858,"x_min":35,"x_max":824,"o":"m 708 633 q 794 513 764 583 q 824 353 824 442 q 775 154 824 239 q 638 24 726 69 q 429 -22 549 -22 q 251 10 331 -22 l 179 -89 l 85 -19 l 151 71 q 65 192 94 121 q 35 353 35 264 q 83 551 35 467 q 221 682 132 636 q 429 728 310 728 q 608 696 528 728 l 681 794 l 775 725 l 708 633 m 429 542 q 332 490 367 542 q 297 353 297 439 q 308 268 297 308 l 494 522 q 429 542 467 542 m 429 164 q 526 215 492 164 q 561 353 561 267 q 551 436 561 403 l 365 182 q 429 164 394 164 m 282 781 l 393 989 l 682 989 l 485 781 l 282 781 z "},"Ș":{"ha":918,"x_min":29,"x_max":876,"o":"m 456 1011 q 751 928 646 1011 q 856 689 856 846 l 564 689 q 533 772 564 743 q 442 801 501 801 q 361 781 390 801 q 332 725 332 760 q 349 680 332 697 q 401 650 365 663 q 511 619 438 638 q 705 558 629 590 q 828 463 781 525 q 876 297 876 400 q 826 127 876 199 q 681 17 775 56 q 456 -22 586 -22 q 142 68 254 -22 q 29 321 29 158 l 329 321 q 465 194 329 194 q 552 217 521 194 q 583 279 583 240 q 567 327 583 310 q 517 357 550 344 q 410 388 483 369 q 215 451 288 421 q 96 542 143 482 q 49 701 49 601 q 97 865 49 794 q 238 973 146 935 q 456 1011 329 1011 m 450 -389 l 353 -389 l 418 -236 l 353 -236 l 353 -68 l 551 -68 l 551 -236 l 450 -389 z "},"ș":{"ha":776,"x_min":36,"x_max":739,"o":"m 386 728 q 628 669 542 728 q 714 494 714 611 l 461 494 q 382 572 461 572 q 317 525 317 572 q 328 497 317 507 q 367 476 339 486 q 454 450 394 465 q 601 402 543 426 q 699 331 660 378 q 739 208 739 283 q 649 40 739 103 q 396 -22 558 -22 q 36 229 36 -22 l 303 229 q 326 163 303 185 q 397 142 349 142 q 453 154 435 142 q 472 190 472 167 q 458 224 472 211 q 411 248 443 238 q 310 276 379 258 q 177 319 229 297 q 90 386 125 342 q 54 504 54 431 q 138 667 54 606 q 386 728 222 728 m 392 -389 l 294 -389 l 360 -236 l 294 -236 l 294 -68 l 493 -68 l 493 -236 l 392 -389 z "},"Ț":{"ha":886,"x_min":11,"x_max":875,"o":"m 582 756 l 582 0 l 304 0 l 304 756 l 11 756 l 11 989 l 875 989 l 875 756 l 582 756 m 440 -389 l 343 -389 l 408 -236 l 343 -236 l 343 -68 l 542 -68 l 542 -236 l 440 -389 z "},"ț":{"ha":553,"x_min":7,"x_max":518,"o":"m 518 203 l 518 6 q 456 -8 493 -3 q 389 -12 419 -12 q 179 44 244 -12 q 114 228 114 101 l 114 515 l 7 515 l 7 706 l 114 706 l 114 903 l 381 903 l 381 706 l 511 706 l 511 515 l 381 515 l 381 300 q 401 219 381 243 q 468 196 421 196 q 518 203 497 196 m 308 -389 l 211 -389 l 276 -236 l 211 -236 l 211 -68 l 410 -68 l 410 -236 l 308 -389 z "},"ȷ":{"ha":417,"x_min":-64,"x_max":342,"o":"m 342 19 q 266 -194 342 -124 q 64 -265 190 -265 q -64 -250 -10 -265 l -64 -67 q -29 -71 -49 -71 q 50 -42 25 -71 q 75 65 75 -12 l 75 706 l 342 706 l 342 19 z "},"ə":{"ha":825,"x_min":35,"x_max":790,"o":"m 408 728 q 615 680 529 728 q 746 547 701 632 q 790 356 790 463 q 746 163 790 249 q 616 27 701 76 q 413 -22 531 -22 q 212 24 297 -22 q 81 153 126 69 q 35 350 35 238 q 39 410 35 386 l 529 410 q 494 523 525 490 q 411 556 463 556 q 352 537 375 556 q 325 489 329 518 l 53 489 q 117 611 68 557 q 241 697 165 665 q 408 728 317 728 m 528 269 l 303 269 q 338 175 308 206 q 413 144 368 144 q 528 269 510 144 z "},"ʼ":{"ha":385,"x_min":49,"x_max":308,"o":"m 182 535 l 49 535 l 149 751 l 72 751 l 72 989 l 308 989 l 308 751 l 182 535 z "},"ˆ":{"ha":706,"x_min":69,"x_max":636,"o":"m 353 885 l 276 781 l 69 781 l 240 989 l 465 989 l 636 781 l 429 781 l 353 885 z "},"ˇ":{"ha":706,"x_min":69,"x_max":636,"o":"m 240 781 l 69 989 l 276 989 l 353 885 l 429 989 l 636 989 l 465 781 l 240 781 z "},"ˉ":{"ha":685,"x_min":69,"x_max":615,"o":"m 69 807 l 69 967 l 615 967 l 615 807 l 69 807 z "},"˘":{"ha":642,"x_min":69,"x_max":572,"o":"m 572 989 q 503 828 568 885 q 321 771 438 771 q 139 828 204 771 q 69 989 74 885 l 232 989 q 321 918 236 918 q 410 989 406 918 l 572 989 z "},"˙":{"ha":406,"x_min":69,"x_max":336,"o":"m 69 793 l 69 989 l 336 989 l 336 793 l 69 793 z "},"˚":{"ha":471,"x_min":69,"x_max":401,"o":"m 236 1096 q 353 1047 306 1096 q 401 929 401 999 q 353 811 401 860 q 236 763 306 763 q 119 812 168 763 q 69 929 69 861 q 119 1047 69 999 q 236 1096 168 1096 m 236 1010 q 219 1010 236 1010 q 179 986 203 1010 q 156 929 156 963 q 179 872 156 896 q 236 849 203 849 q 293 872 269 849 q 317 929 317 896 q 293 986 317 963 q 236 1010 269 1010 z "},"˛":{"ha":472,"x_min":69,"x_max":403,"o":"m 399 0 q 334 -52 353 -29 q 315 -99 315 -75 q 358 -136 315 -136 q 403 -128 385 -136 l 403 -257 q 256 -279 340 -279 q 116 -244 163 -279 q 69 -146 69 -210 q 101 -67 69 -101 q 194 0 132 -32 l 399 0 z "},"˜":{"ha":699,"x_min":69,"x_max":629,"o":"m 629 989 q 578 834 625 890 q 449 778 532 778 q 392 786 417 778 q 332 811 367 794 q 292 829 307 824 q 263 835 278 835 q 224 821 238 835 q 207 778 211 807 l 69 778 q 122 933 75 878 q 251 989 168 989 q 308 981 283 989 q 368 956 333 972 q 395 944 372 954 q 438 933 418 933 q 476 947 463 933 q 492 989 489 960 l 629 989 z "},"˝":{"ha":832,"x_min":69,"x_max":763,"o":"m 69 781 l 208 989 l 457 989 l 260 781 l 69 781 m 376 781 l 514 989 l 763 989 l 565 781 l 376 781 z "},"̒":{"ha":0,"x_min":69,"x_max":268,"o":"m 268 956 l 268 788 l 69 788 l 69 956 l 171 1108 l 268 1108 l 203 956 l 268 956 z "},"̦":{"ha":0,"x_min":69,"x_max":268,"o":"m 167 -389 l 69 -389 l 135 -236 l 69 -236 l 69 -68 l 268 -68 l 268 -236 l 167 -389 z "},"̳":{"ha":0,"x_min":-694,"x_max":0,"o":"m -694 -204 l -694 -69 l 0 -69 l 0 -204 l -694 -204 m -694 -437 l -694 -303 l 0 -303 l 0 -437 l -694 -437 z "},"ʹ":{"ha":351,"x_min":42,"x_max":310,"o":"m 42 706 l 76 989 l 310 989 l 210 706 l 42 706 z "},"͵":{"ha":351,"x_min":42,"x_max":310,"o":"m 42 -128 l 76 156 l 310 156 l 210 -128 l 42 -128 z "},";":{"ha":404,"x_min":35,"x_max":340,"o":"m 63 428 l 63 706 l 340 706 l 340 428 l 63 428 m 192 -257 l 35 -257 l 151 0 l 63 0 l 63 278 l 340 278 l 340 0 l 192 -257 z "},"΄":{"ha":440,"x_min":69,"x_max":371,"o":"m 69 783 l 111 1017 l 371 1017 l 265 783 l 69 783 z "},"΅":{"ha":850,"x_min":69,"x_max":781,"o":"m 306 783 l 346 1013 l 558 1013 l 479 783 l 306 783 m 69 796 l 69 982 l 272 982 l 272 796 l 69 796 m 578 796 l 578 982 l 781 982 l 781 796 l 578 796 z "},"Ά":{"ha":1015,"x_min":-51,"x_max":1018,"o":"m 340 178 l 290 0 l -3 0 l 329 989 l 686 989 l 1018 0 l 725 0 l 675 178 l 340 178 m 594 464 q 510 797 551 615 l 507 797 q 421 464 463 607 l 401 396 l 614 396 l 594 464 m -51 700 l -10 989 l 250 989 l 144 700 l -51 700 z "},"·":{"ha":403,"x_min":63,"x_max":340,"o":"m 63 426 l 63 706 l 340 706 l 340 426 l 63 426 z "},"Έ":{"ha":882,"x_min":-239,"x_max":819,"o":"m 374 760 l 374 611 l 781 611 l 781 388 l 374 388 l 374 229 l 819 229 l 819 0 l 96 0 l 96 989 l 811 989 l 811 760 l 374 760 m -239 700 l -197 989 l 63 989 l -43 700 l -239 700 z "},"Ή":{"ha":1071,"x_min":-239,"x_max":975,"o":"m 697 0 l 697 392 l 374 392 l 374 0 l 96 0 l 96 989 l 374 989 l 374 625 l 697 625 l 697 989 l 975 989 l 975 0 l 697 0 m -239 700 l -197 989 l 63 989 l -43 700 l -239 700 z "},"Ί":{"ha":469,"x_min":-239,"x_max":374,"o":"m 96 0 l 96 989 l 374 989 l 374 0 l 96 0 m -239 700 l -197 989 l 63 989 l -43 700 l -239 700 z "},"Ό":{"ha":1065,"x_min":-175,"x_max":1022,"o":"m 532 1011 q 606 1011 532 1011 q 792 948 681 1011 q 963 768 903 885 q 1022 494 1022 651 q 963 221 1022 338 q 792 41 903 104 q 532 -22 681 -22 q 273 41 383 -22 q 103 221 163 104 q 43 494 43 338 q 103 768 43 651 q 273 948 163 885 q 532 1011 383 1011 m 532 775 q 386 702 438 775 q 335 494 335 629 q 386 287 335 360 q 532 214 438 214 q 679 287 628 214 q 731 494 731 360 q 679 702 731 629 q 532 775 628 775 m -175 700 l -133 989 l 126 989 l 21 700 l -175 700 z "},"Ύ":{"ha":957,"x_min":-319,"x_max":956,"o":"m 617 0 l 339 0 l 339 361 l 0 989 l 306 989 l 383 815 q 476 571 442 685 l 479 571 q 574 815 517 689 l 651 989 l 956 989 l 617 361 l 617 0 m -319 700 l -278 989 l -18 989 l -124 700 l -319 700 z "},"Ώ":{"ha":1054,"x_min":-194,"x_max":1019,"o":"m 528 1011 q 874 901 744 1011 q 1004 582 1004 792 q 959 394 1004 475 q 832 235 914 313 l 832 232 l 1019 232 l 1019 0 l 586 0 l 586 240 q 679 372 646 301 q 713 535 713 442 q 662 713 713 651 q 528 774 611 774 q 392 713 443 774 q 342 535 342 651 q 375 372 342 442 q 468 240 408 301 l 468 0 l 35 0 l 35 232 l 222 232 l 222 235 q 95 394 140 313 q 50 582 50 475 q 180 901 50 792 q 528 1011 310 1011 m -194 700 l -153 989 l 107 989 l 1 700 l -194 700 z "},"ΐ":{"ha":488,"x_min":-154,"x_max":557,"o":"m 335 306 q 355 216 335 243 q 422 189 375 189 q 472 196 451 189 l 472 3 q 410 -8 447 -4 q 343 -12 372 -12 q 133 52 199 -12 q 68 260 68 117 l 68 706 l 335 706 l 335 306 m 82 783 l 122 1013 l 335 1013 l 256 783 l 82 783 m -154 796 l -154 982 l 49 982 l 49 796 l -154 796 m 354 796 l 354 982 l 557 982 l 557 796 l 354 796 z "},"Α":{"ha":1015,"x_min":-3,"x_max":1018,"o":"m 340 178 l 290 0 l -3 0 l 329 989 l 686 989 l 1018 0 l 725 0 l 675 178 l 340 178 m 594 464 q 510 797 551 615 l 507 797 q 421 464 463 607 l 401 396 l 614 396 l 594 464 z "},"Β":{"ha":940,"x_min":96,"x_max":900,"o":"m 515 989 q 785 920 694 989 q 875 733 875 851 q 835 594 875 649 q 711 511 796 540 l 711 508 q 852 428 804 488 q 900 278 900 369 q 801 75 900 150 q 529 0 703 0 l 96 0 l 96 989 l 515 989 m 364 597 l 471 597 q 573 620 540 597 q 606 692 606 643 q 575 762 606 739 q 479 785 544 785 l 364 785 l 364 597 m 364 206 l 476 206 q 582 228 550 206 q 614 303 614 251 q 580 379 614 356 q 471 403 546 403 l 364 403 l 364 206 z "},"Γ":{"ha":736,"x_min":96,"x_max":725,"o":"m 96 989 l 725 989 l 725 756 l 374 756 l 374 0 l 96 0 l 96 989 z "},"Δ":{"ha":1014,"x_min":-3,"x_max":1017,"o":"m -3 0 l 335 989 l 682 989 l 1017 0 l -3 0 m 594 464 q 508 800 549 622 l 506 800 q 418 464 471 643 l 349 218 l 664 218 l 594 464 z "},"Ε":{"ha":882,"x_min":96,"x_max":819,"o":"m 374 760 l 374 611 l 781 611 l 781 388 l 374 388 l 374 229 l 819 229 l 819 0 l 96 0 l 96 989 l 811 989 l 811 760 l 374 760 z "},"Ζ":{"ha":840,"x_min":28,"x_max":810,"o":"m 361 231 l 361 228 l 810 228 l 810 0 l 28 0 l 28 239 l 454 758 l 454 761 l 47 761 l 47 989 l 786 989 l 786 750 l 361 231 z "},"Η":{"ha":1071,"x_min":96,"x_max":975,"o":"m 697 0 l 697 392 l 374 392 l 374 0 l 96 0 l 96 989 l 374 989 l 374 625 l 697 625 l 697 989 l 975 989 l 975 0 l 697 0 z "},"Θ":{"ha":1065,"x_min":43,"x_max":1022,"o":"m 532 1011 q 606 1011 532 1011 q 791 948 681 1011 q 962 768 901 885 q 1022 494 1022 651 q 962 221 1022 338 q 791 41 901 104 q 532 -22 681 -22 q 273 41 383 -22 q 103 221 163 104 q 43 494 43 338 q 103 768 43 651 q 273 948 163 885 q 532 1011 383 1011 m 532 788 q 481 788 532 788 q 374 711 429 788 q 319 494 319 635 q 374 278 319 356 q 532 201 429 201 q 690 278 635 201 q 746 494 746 356 q 690 711 746 635 q 532 788 635 788 m 369 406 l 369 583 l 694 583 l 694 406 l 369 406 z "},"Ι":{"ha":469,"x_min":96,"x_max":374,"o":"m 96 0 l 96 989 l 374 989 l 374 0 l 96 0 z "},"Κ":{"ha":994,"x_min":96,"x_max":990,"o":"m 990 0 l 643 0 l 376 443 l 374 443 l 374 0 l 96 0 l 96 989 l 374 989 l 374 572 l 376 572 l 635 989 l 969 989 l 626 522 l 990 0 z "},"Λ":{"ha":997,"x_min":-3,"x_max":1000,"o":"m 701 0 l 576 457 q 500 786 532 626 l 497 786 q 419 457 463 615 l 296 0 l -3 0 l 318 989 l 679 989 l 1000 0 l 701 0 z "},"Μ":{"ha":1447,"x_min":96,"x_max":1351,"o":"m 1093 0 l 1093 474 q 1101 836 1093 656 l 1099 836 q 1015 478 1057 636 l 892 0 l 556 0 l 432 478 q 349 836 390 636 l 346 836 q 354 474 354 656 l 354 0 l 96 0 l 96 989 l 538 989 l 647 564 q 722 200 694 389 l 725 200 q 800 564 750 369 l 910 989 l 1351 989 l 1351 0 l 1093 0 z "},"Ν":{"ha":1149,"x_min":96,"x_max":1051,"o":"m 649 0 l 494 379 q 353 763 415 578 l 350 763 q 361 358 361 583 l 361 0 l 96 0 l 96 989 l 500 989 l 653 610 q 794 226 733 414 l 797 226 q 786 631 786 442 l 786 989 l 1051 989 l 1051 0 l 649 0 z "},"Ξ":{"ha":940,"x_min":63,"x_max":878,"o":"m 82 747 l 82 989 l 858 989 l 858 747 l 82 747 m 106 378 l 106 619 l 835 619 l 835 378 l 106 378 m 63 0 l 63 242 l 878 242 l 878 0 l 63 0 z "},"Ο":{"ha":1065,"x_min":43,"x_max":1022,"o":"m 532 1011 q 606 1011 532 1011 q 792 948 681 1011 q 963 768 903 885 q 1022 494 1022 651 q 963 221 1022 338 q 792 41 903 104 q 532 -22 681 -22 q 273 41 383 -22 q 103 221 163 104 q 43 494 43 338 q 103 768 43 651 q 273 948 163 885 q 532 1011 383 1011 m 532 775 q 386 702 438 775 q 335 494 335 629 q 386 287 335 360 q 532 214 438 214 q 679 287 628 214 q 731 494 731 360 q 679 702 731 629 q 532 775 628 775 z "},"Π":{"ha":1057,"x_min":96,"x_max":961,"o":"m 683 0 l 683 756 l 374 756 l 374 0 l 96 0 l 96 989 l 961 989 l 961 0 l 683 0 z "},"Ρ":{"ha":935,"x_min":96,"x_max":907,"o":"m 514 989 q 808 899 708 989 q 907 651 907 810 q 808 403 907 493 q 514 313 708 313 l 374 313 l 374 0 l 96 0 l 96 989 l 514 989 m 374 531 l 475 531 q 621 651 621 531 q 475 771 621 771 l 374 771 l 374 531 z "},"Σ":{"ha":836,"x_min":35,"x_max":806,"o":"m 361 757 l 361 754 l 567 503 l 344 235 l 344 232 l 806 232 l 806 0 l 35 0 l 35 239 l 244 504 l 50 753 l 50 989 l 786 989 l 786 757 l 361 757 z "},"Τ":{"ha":886,"x_min":11,"x_max":875,"o":"m 582 756 l 582 0 l 304 0 l 304 756 l 11 756 l 11 989 l 875 989 l 875 756 l 582 756 z "},"Υ":{"ha":957,"x_min":0,"x_max":956,"o":"m 617 0 l 339 0 l 339 361 l 0 989 l 306 989 l 383 815 q 476 571 442 685 l 479 571 q 574 815 517 689 l 651 989 l 956 989 l 617 361 l 617 0 z "},"Φ":{"ha":1232,"x_min":43,"x_max":1189,"o":"m 747 944 q 1073 817 957 929 q 1189 497 1189 706 q 1073 180 1189 292 q 747 53 957 68 l 747 -47 l 485 -47 l 485 53 q 158 181 274 68 q 43 500 43 293 q 158 818 43 707 q 485 944 274 929 l 485 1036 l 747 1036 l 747 944 m 493 739 q 367 670 411 731 q 322 500 322 610 q 367 327 322 388 q 493 260 411 267 l 493 739 m 739 260 q 865 327 821 267 q 910 497 910 388 q 865 670 910 610 q 739 739 821 731 l 739 260 z "},"Χ":{"ha":985,"x_min":0,"x_max":983,"o":"m 983 0 l 657 0 l 493 332 l 490 332 l 328 0 l 0 0 l 306 513 l 21 989 l 340 989 l 490 671 l 493 671 l 644 989 l 964 989 l 679 513 l 983 0 z "},"Ψ":{"ha":1221,"x_min":43,"x_max":1178,"o":"m 1178 654 q 1069 337 1178 447 q 746 211 960 226 l 746 0 l 475 0 l 475 211 q 43 654 43 240 l 43 989 l 314 989 l 314 671 q 351 498 314 551 q 475 438 388 444 l 475 989 l 746 989 l 746 438 q 869 499 832 444 q 907 671 907 553 l 907 989 l 1178 989 l 1178 654 z "},"Ω":{"ha":1054,"x_min":35,"x_max":1019,"o":"m 528 1011 q 874 901 744 1011 q 1004 582 1004 792 q 959 394 1004 475 q 832 235 914 313 l 832 232 l 1019 232 l 1019 0 l 586 0 l 586 240 q 679 372 646 301 q 713 535 713 442 q 662 713 713 651 q 528 774 611 774 q 392 713 443 774 q 342 535 342 651 q 375 372 342 442 q 468 240 408 301 l 468 0 l 35 0 l 35 232 l 222 232 l 222 235 q 95 394 140 313 q 50 582 50 475 q 180 901 50 792 q 528 1011 310 1011 z "},"Ϊ":{"ha":469,"x_min":-43,"x_max":511,"o":"m 96 0 l 96 989 l 374 989 l 374 0 l 96 0 m -43 1076 l -43 1272 l 182 1272 l 182 1076 l -43 1076 m 285 1076 l 285 1272 l 511 1272 l 511 1076 l 285 1076 z "},"Ϋ":{"ha":957,"x_min":0,"x_max":956,"o":"m 617 0 l 339 0 l 339 361 l 0 989 l 306 989 l 383 815 q 476 571 442 685 l 479 571 q 574 815 517 689 l 651 989 l 956 989 l 617 361 l 617 0 m 201 1068 l 201 1264 l 426 1264 l 426 1068 l 201 1068 m 529 1068 l 529 1264 l 756 1264 l 756 1068 l 529 1068 z "},"ά":{"ha":906,"x_min":35,"x_max":888,"o":"m 342 726 q 450 701 400 726 q 532 624 500 675 l 535 624 q 543 706 538 674 l 810 706 q 796 456 796 606 l 796 261 q 810 202 796 219 q 854 185 824 185 q 888 189 871 185 l 888 8 q 733 -15 824 -15 q 544 83 592 -15 l 542 83 q 455 6 508 32 q 340 -21 401 -21 q 179 25 249 -21 q 72 156 110 71 q 35 353 35 240 q 73 550 35 465 q 181 681 111 635 q 342 726 250 726 m 426 525 q 344 478 375 525 q 314 353 314 432 q 344 227 314 274 q 426 181 375 181 q 506 227 476 181 q 536 353 536 274 q 506 478 536 432 q 426 525 476 525 m 328 783 l 369 1017 l 629 1017 l 524 783 l 328 783 z "},"έ":{"ha":763,"x_min":39,"x_max":733,"o":"m 381 728 q 628 658 536 728 q 719 465 719 588 l 483 465 q 458 528 483 506 q 385 550 433 550 q 322 535 343 550 q 300 492 300 519 q 323 448 300 464 q 389 432 346 432 l 457 432 l 457 281 l 389 281 q 289 218 289 281 q 313 173 289 189 q 379 157 338 157 q 485 243 485 157 l 733 243 q 641 45 733 113 q 379 -22 549 -22 q 126 33 214 -22 q 39 197 39 89 q 71 303 39 263 q 174 368 103 344 l 174 371 q 83 428 110 393 q 56 519 56 463 q 144 674 56 619 q 381 728 233 728 m 276 783 l 318 1017 l 578 1017 l 472 783 l 276 783 z "},"ή":{"ha":892,"x_min":18,"x_max":824,"o":"m 569 725 q 756 650 689 725 q 824 433 824 575 l 824 -257 l 557 -257 l 557 400 q 537 490 557 458 q 475 521 517 521 q 378 354 378 521 l 378 0 l 111 0 l 111 433 q 98 501 111 481 q 53 522 85 522 q 18 518 33 522 l 18 696 q 164 719 89 719 q 284 692 240 719 q 347 604 328 665 l 350 604 q 442 693 386 661 q 569 725 499 725 m 289 783 l 331 1017 l 590 1017 l 485 783 l 289 783 z "},"ί":{"ha":488,"x_min":68,"x_max":472,"o":"m 335 306 q 355 216 335 243 q 422 189 375 189 q 472 196 451 189 l 472 3 q 410 -8 447 -4 q 343 -12 372 -12 q 133 52 199 -12 q 68 260 68 117 l 68 706 l 335 706 l 335 306 m 103 783 l 144 1017 l 404 1017 l 299 783 l 103 783 z "},"ΰ":{"ha":865,"x_min":11,"x_max":814,"o":"m 157 719 q 319 665 267 719 q 372 476 372 610 l 372 279 q 391 202 372 226 q 447 178 410 178 q 549 382 549 178 q 504 706 549 567 l 763 706 q 814 360 814 549 q 724 76 814 174 q 451 -22 633 -22 q 192 47 279 -22 q 104 267 104 117 l 104 417 q 90 497 104 475 q 46 519 76 519 q 11 515 25 519 l 11 696 q 157 719 85 719 m 303 783 l 343 1013 l 556 1013 l 476 783 l 303 783 m 67 796 l 67 982 l 269 982 l 269 796 l 67 796 m 575 796 l 575 982 l 778 982 l 778 796 l 575 796 z "},"α":{"ha":906,"x_min":35,"x_max":888,"o":"m 342 726 q 450 701 400 726 q 532 624 500 675 l 535 624 q 543 706 538 674 l 810 706 q 796 456 796 606 l 796 261 q 810 202 796 219 q 854 185 824 185 q 888 189 871 185 l 888 8 q 733 -15 824 -15 q 544 83 592 -15 l 542 83 q 455 6 508 32 q 340 -21 401 -21 q 179 25 249 -21 q 72 156 110 71 q 35 353 35 240 q 73 550 35 465 q 181 681 111 635 q 342 726 250 726 m 426 525 q 344 478 375 525 q 314 353 314 432 q 344 227 314 274 q 426 181 375 181 q 506 227 476 181 q 536 353 536 274 q 506 478 536 432 q 426 525 476 525 z "},"β":{"ha":863,"x_min":75,"x_max":831,"o":"m 433 1011 q 690 942 594 1011 q 785 756 785 874 q 744 614 785 668 q 618 531 703 560 l 618 528 q 777 438 724 500 q 831 272 831 376 q 744 63 831 140 q 508 -14 658 -14 q 344 36 401 -14 l 342 36 l 342 -257 l 75 -257 l 75 675 q 171 922 75 833 q 433 1011 267 1011 m 442 818 q 365 785 389 818 q 342 682 342 753 l 342 279 q 367 208 342 233 q 442 182 392 182 q 527 213 496 182 q 558 300 558 243 q 521 390 558 360 q 411 419 483 419 l 397 419 l 397 625 l 411 625 q 501 652 469 625 q 533 728 533 679 q 509 794 533 771 q 442 818 485 818 z "},"γ":{"ha":818,"x_min":10,"x_max":810,"o":"m 810 706 q 724 348 789 507 q 529 7 658 189 l 529 -8 q 525 -133 529 -60 q 514 -257 521 -206 l 247 -257 q 258 -133 254 -206 q 263 -8 263 -60 q 236 191 263 75 q 164 407 210 307 q 104 499 132 475 q 42 522 76 522 q 10 519 29 522 l 10 701 q 139 722 75 722 q 274 684 224 722 q 367 542 325 646 q 440 292 415 422 l 443 292 q 503 491 481 392 q 533 706 525 590 l 810 706 z "},"δ":{"ha":843,"x_min":35,"x_max":808,"o":"m 725 974 l 725 772 q 596 806 663 794 q 474 818 529 818 q 426 810 440 818 q 413 789 413 803 q 441 753 413 771 q 546 699 469 735 q 744 549 681 636 q 808 324 808 463 q 760 140 808 218 q 625 21 713 63 q 422 -21 538 -21 q 218 21 306 -21 q 83 140 131 63 q 35 321 35 217 q 97 506 35 429 q 272 613 158 583 l 272 615 q 166 710 200 665 q 132 814 132 756 q 439 1003 132 1003 q 725 974 589 1003 m 422 489 q 344 446 372 489 q 315 329 315 403 q 344 213 315 256 q 422 169 372 169 q 499 213 471 169 q 528 329 528 256 q 499 446 528 403 q 422 489 471 489 z "},"ε":{"ha":763,"x_min":39,"x_max":733,"o":"m 381 728 q 628 658 536 728 q 719 465 719 588 l 483 465 q 458 528 483 506 q 385 550 433 550 q 322 535 343 550 q 300 492 300 519 q 323 448 300 464 q 389 432 346 432 l 457 432 l 457 281 l 389 281 q 289 218 289 281 q 313 173 289 189 q 379 157 338 157 q 485 243 485 157 l 733 243 q 641 45 733 113 q 379 -22 549 -22 q 126 33 214 -22 q 39 197 39 89 q 71 303 39 263 q 174 368 103 344 l 174 371 q 83 428 110 393 q 56 519 56 463 q 144 674 56 619 q 381 728 233 728 z "},"ζ":{"ha":704,"x_min":36,"x_max":689,"o":"m 686 800 q 408 588 503 700 q 314 338 314 475 q 356 228 314 265 q 503 174 397 192 q 649 103 608 156 q 689 -40 689 51 q 646 -201 689 -124 l 438 -201 q 456 -112 456 -157 q 429 -42 456 -67 q 328 -7 403 -17 q 102 79 168 13 q 36 276 36 146 q 130 560 36 426 q 394 797 224 694 l 394 800 l 71 800 l 71 989 l 686 989 l 686 800 z "},"η":{"ha":892,"x_min":18,"x_max":824,"o":"m 569 725 q 756 650 689 725 q 824 433 824 575 l 824 -257 l 557 -257 l 557 400 q 537 490 557 458 q 475 521 517 521 q 378 354 378 521 l 378 0 l 111 0 l 111 433 q 98 501 111 481 q 53 522 85 522 q 18 518 33 522 l 18 696 q 164 719 89 719 q 284 692 240 719 q 347 604 328 665 l 350 604 q 442 693 386 661 q 569 725 499 725 z "},"θ":{"ha":907,"x_min":40,"x_max":867,"o":"m 453 1010 q 760 877 654 1010 q 867 494 867 744 q 760 112 867 244 q 453 -21 654 -21 q 147 112 253 -21 q 40 494 40 244 q 147 877 40 744 q 453 1010 253 1010 m 315 582 l 590 582 q 547 760 582 700 q 453 819 513 819 q 315 582 335 819 m 453 169 q 547 229 513 169 q 590 407 582 289 l 315 407 q 453 169 335 169 z "},"ι":{"ha":488,"x_min":68,"x_max":472,"o":"m 335 306 q 355 216 335 243 q 422 189 375 189 q 472 196 451 189 l 472 3 q 410 -8 447 -4 q 343 -12 372 -12 q 133 52 199 -12 q 68 260 68 117 l 68 706 l 335 706 l 335 306 z "},"κ":{"ha":844,"x_min":74,"x_max":860,"o":"m 392 203 l 340 144 l 340 0 l 74 0 l 74 706 l 340 706 l 340 439 l 343 439 l 443 560 q 582 683 517 649 q 732 718 647 718 q 815 706 772 718 l 815 489 q 763 496 790 496 q 662 470 711 496 q 554 388 613 444 l 860 0 l 544 0 l 392 203 z "},"λ":{"ha":879,"x_min":-12,"x_max":871,"o":"m 247 1006 q 390 981 332 1006 q 495 894 449 957 q 585 714 542 831 l 731 325 q 790 212 763 240 q 851 183 817 183 q 871 186 860 183 l 871 0 q 764 -15 815 -15 q 647 3 693 -15 q 567 69 601 22 q 503 207 532 117 q 432 428 471 301 l 429 428 q 342 181 383 292 l 274 0 l -12 0 l 299 694 q 251 776 279 751 q 176 800 222 800 q 110 789 139 800 l 110 983 q 247 1006 168 1006 z "},"μ":{"ha":889,"x_min":75,"x_max":876,"o":"m 785 261 q 799 202 785 219 q 842 185 813 185 q 876 189 860 185 l 876 8 q 722 -15 810 -15 q 542 82 588 -15 l 539 82 q 484 16 519 39 q 401 -7 449 -7 q 342 6 365 -7 l 342 -257 l 75 -257 l 75 706 l 342 706 l 342 313 q 424 186 342 186 q 518 340 518 186 l 518 706 l 785 706 l 785 261 z "},"ν":{"ha":804,"x_min":4,"x_max":785,"o":"m 131 719 q 281 663 225 719 q 356 483 336 607 l 406 182 l 408 182 q 494 457 469 351 q 518 653 518 563 q 514 706 518 681 l 776 706 q 785 636 785 671 q 767 480 785 557 q 708 294 750 403 q 581 0 665 185 l 215 0 l 114 410 q 80 499 97 475 q 33 522 63 522 q 4 518 17 522 l 4 697 q 131 719 57 719 z "},"ξ":{"ha":711,"x_min":36,"x_max":694,"o":"m 533 800 q 344 682 344 800 q 380 614 344 638 q 481 590 415 590 l 639 590 l 639 401 l 493 401 q 358 372 403 401 q 314 290 314 342 q 356 211 314 238 q 506 171 397 185 q 653 103 613 156 q 694 -40 694 51 q 651 -201 694 -119 l 443 -201 q 461 -112 461 -157 q 426 -39 461 -65 q 297 -1 392 -12 q 97 74 158 14 q 36 240 36 133 q 90 404 36 340 q 251 490 143 468 l 251 493 q 144 551 182 508 q 106 657 106 593 q 203 797 106 765 l 203 800 l 69 800 l 69 989 l 693 989 l 693 800 l 533 800 z "},"ο":{"ha":858,"x_min":35,"x_max":824,"o":"m 429 728 q 489 728 429 728 q 638 682 549 728 q 775 551 726 636 q 824 353 824 467 q 775 154 824 239 q 638 24 726 69 q 429 -22 549 -22 q 221 24 310 -22 q 83 154 132 69 q 35 353 35 239 q 83 551 35 467 q 221 682 132 636 q 429 728 310 728 m 429 529 q 402 529 429 529 q 345 483 375 529 q 315 353 315 436 q 345 223 315 269 q 429 176 375 176 q 513 223 483 176 q 543 353 543 269 q 513 483 543 436 q 429 529 483 529 z "},"π":{"ha":960,"x_min":10,"x_max":938,"o":"m 821 515 l 821 265 q 836 201 821 218 q 885 183 851 183 q 922 189 910 183 l 922 3 q 856 -9 894 -4 q 782 -14 817 -14 q 608 41 663 -14 q 554 228 554 96 l 554 515 l 392 515 l 392 0 l 125 0 l 125 515 l 10 515 l 10 706 l 938 706 l 938 515 l 821 515 z "},"ρ":{"ha":863,"x_min":68,"x_max":828,"o":"m 446 728 q 647 681 561 728 q 781 547 733 633 q 828 342 828 460 q 786 152 828 233 q 667 26 744 71 q 488 -18 590 -18 q 401 -5 440 -18 q 338 32 361 8 l 335 32 l 335 -257 l 68 -257 l 68 353 q 115 551 68 467 q 247 682 161 636 q 446 728 332 728 m 432 525 q 350 478 381 525 q 319 353 319 432 q 350 228 319 275 q 432 181 381 181 q 515 227 485 181 q 546 353 546 274 q 515 479 546 433 q 432 525 485 525 z "},"ς":{"ha":817,"x_min":33,"x_max":786,"o":"m 411 728 q 681 641 586 728 q 786 403 776 554 l 511 403 q 481 496 507 463 q 411 529 456 529 q 340 490 367 529 q 314 383 314 451 q 362 252 314 299 q 513 192 410 206 q 681 119 635 176 q 728 -40 728 61 q 685 -201 728 -119 l 475 -201 q 494 -112 494 -162 q 459 -36 494 -62 q 322 1 424 -10 q 106 107 178 17 q 33 357 33 197 q 134 630 33 532 q 411 728 235 728 z "},"σ":{"ha":900,"x_min":35,"x_max":890,"o":"m 744 517 l 744 514 q 810 328 810 440 q 763 143 810 222 q 631 21 717 64 q 429 -22 544 -22 q 221 22 310 -22 q 83 149 132 67 q 35 342 35 232 q 83 535 35 453 q 221 661 132 617 q 429 706 310 706 l 890 706 l 890 517 l 744 517 m 429 519 q 401 519 429 519 q 344 475 374 519 q 315 349 315 431 q 344 222 315 267 q 429 176 374 176 q 514 222 485 176 q 543 349 543 267 q 514 475 543 431 q 429 519 485 519 z "},"τ":{"ha":690,"x_min":10,"x_max":681,"o":"m 471 517 l 471 265 q 486 201 471 218 q 535 183 501 183 q 572 189 560 183 l 572 3 q 506 -9 544 -4 q 432 -14 467 -14 q 258 41 313 -14 q 204 228 204 96 l 204 517 l 10 517 l 10 706 l 681 706 l 681 517 l 471 517 z "},"υ":{"ha":865,"x_min":11,"x_max":814,"o":"m 157 719 q 319 665 267 719 q 372 476 372 610 l 372 279 q 391 202 372 226 q 447 178 410 178 q 549 382 549 178 q 504 706 549 567 l 763 706 q 814 360 814 549 q 724 76 814 174 q 451 -22 633 -22 q 192 47 279 -22 q 104 267 104 117 l 104 417 q 90 497 104 475 q 46 519 76 519 q 11 515 25 519 l 11 696 q 157 719 85 719 z "},"φ":{"ha":1151,"x_min":35,"x_max":1117,"o":"m 1117 353 q 1117 269 1117 353 q 1005 85 1117 185 q 701 -22 893 -14 l 701 -257 l 450 -257 l 450 -22 q 147 85 258 -14 q 35 353 35 185 q 147 620 35 521 q 450 728 258 719 l 450 919 l 701 919 l 701 728 q 1005 620 893 719 q 1117 353 1117 521 m 306 353 q 306 310 306 353 q 342 219 306 267 q 450 165 379 172 l 450 540 q 342 486 379 533 q 306 353 306 439 m 701 167 q 844 353 844 176 q 701 539 844 529 l 701 167 z "},"χ":{"ha":878,"x_min":-17,"x_max":886,"o":"m 144 726 q 297 687 243 726 q 393 547 351 647 l 446 422 l 449 422 l 593 706 l 886 706 l 606 219 l 693 35 q 752 -52 724 -31 q 822 -74 781 -74 q 861 -69 843 -74 l 861 -249 q 729 -271 799 -271 q 578 -231 633 -271 q 479 -90 522 -190 l 435 13 l 432 13 l 275 -257 l -17 -257 l 282 206 l 185 414 q 124 506 153 482 q 53 529 96 529 q 10 524 35 529 l 10 701 q 72 719 35 713 q 144 726 108 726 z "},"ψ":{"ha":1208,"x_min":68,"x_max":1156,"o":"m 1156 369 q 1053 98 1156 196 q 742 -12 950 0 l 742 -257 l 475 -257 l 475 -12 q 170 83 272 -1 q 68 336 68 167 l 68 706 l 335 706 l 335 364 q 369 242 335 285 q 475 188 404 199 l 475 919 l 742 919 l 742 189 q 889 390 889 217 q 835 706 889 567 l 1099 706 q 1156 369 1156 556 z "},"ω":{"ha":1213,"x_min":53,"x_max":1160,"o":"m 1069 706 q 1137 517 1114 618 q 1160 311 1160 417 q 1085 65 1160 150 q 856 -21 1010 -21 q 608 126 654 -21 l 606 126 q 358 -21 560 -21 q 128 65 203 -21 q 53 311 53 150 q 76 517 53 417 q 143 706 99 618 l 421 706 q 353 533 376 625 q 329 343 329 440 q 410 176 329 176 q 474 271 474 176 l 474 544 l 740 544 l 740 271 q 803 176 740 176 q 883 343 883 176 q 860 533 883 440 q 792 706 836 625 l 1069 706 z "},"ϊ":{"ha":488,"x_min":-75,"x_max":479,"o":"m 335 306 q 355 216 335 243 q 422 189 375 189 q 472 196 451 189 l 472 3 q 410 -8 447 -4 q 343 -12 372 -12 q 133 52 199 -12 q 68 260 68 117 l 68 706 l 335 706 l 335 306 m -75 793 l -75 989 l 150 989 l 150 793 l -75 793 m 253 793 l 253 989 l 479 989 l 479 793 l 253 793 z "},"ϋ":{"ha":865,"x_min":11,"x_max":814,"o":"m 157 719 q 319 665 267 719 q 372 476 372 610 l 372 279 q 391 202 372 226 q 447 178 410 178 q 549 382 549 178 q 504 706 549 567 l 763 706 q 814 360 814 549 q 724 76 814 174 q 451 -22 633 -22 q 192 47 279 -22 q 104 267 104 117 l 104 417 q 90 497 104 475 q 46 519 76 519 q 11 515 25 519 l 11 696 q 157 719 85 719 m 144 793 l 144 989 l 369 989 l 369 793 l 144 793 m 472 793 l 472 989 l 699 989 l 699 793 l 472 793 z "},"ό":{"ha":858,"x_min":35,"x_max":824,"o":"m 429 728 q 489 728 429 728 q 638 682 549 728 q 775 551 726 636 q 824 353 824 467 q 775 154 824 239 q 638 24 726 69 q 429 -22 549 -22 q 221 24 310 -22 q 83 154 132 69 q 35 353 35 239 q 83 551 35 467 q 221 682 132 636 q 429 728 310 728 m 429 529 q 402 529 429 529 q 345 483 375 529 q 315 353 315 436 q 345 223 315 269 q 429 176 375 176 q 513 223 483 176 q 543 353 543 269 q 513 483 543 436 q 429 529 483 529 m 331 783 l 372 1017 l 632 1017 l 526 783 l 331 783 z "},"ύ":{"ha":865,"x_min":11,"x_max":814,"o":"m 157 719 q 319 665 267 719 q 372 476 372 610 l 372 279 q 391 202 372 226 q 447 178 410 178 q 549 382 549 178 q 504 706 549 567 l 763 706 q 814 360 814 549 q 724 76 814 174 q 451 -22 633 -22 q 192 47 279 -22 q 104 267 104 117 l 104 417 q 90 497 104 475 q 46 519 76 519 q 11 515 25 519 l 11 696 q 157 719 85 719 m 324 783 l 365 1017 l 625 1017 l 519 783 l 324 783 z "},"ώ":{"ha":1213,"x_min":53,"x_max":1160,"o":"m 1069 706 q 1137 517 1114 618 q 1160 311 1160 417 q 1085 65 1160 150 q 856 -21 1010 -21 q 608 126 654 -21 l 606 126 q 358 -21 560 -21 q 128 65 203 -21 q 53 311 53 150 q 76 517 53 417 q 143 706 99 618 l 421 706 q 353 533 376 625 q 329 343 329 440 q 410 176 329 176 q 474 271 474 176 l 474 544 l 740 544 l 740 271 q 803 176 740 176 q 883 343 883 176 q 860 533 883 440 q 792 706 836 625 l 1069 706 m 508 783 l 550 1017 l 810 1017 l 704 783 l 508 783 z "},"Ѐ":{"ha":882,"x_min":96,"x_max":819,"o":"m 374 760 l 374 611 l 781 611 l 781 388 l 374 388 l 374 229 l 819 229 l 819 0 l 96 0 l 96 989 l 811 989 l 811 760 l 374 760 m 604 1056 l 401 1056 l 204 1272 l 493 1272 l 604 1056 z "},"Ё":{"ha":882,"x_min":96,"x_max":819,"o":"m 374 760 l 374 611 l 781 611 l 781 388 l 374 388 l 374 229 l 819 229 l 819 0 l 96 0 l 96 989 l 811 989 l 811 760 l 374 760 m 179 1068 l 179 1264 l 404 1264 l 404 1068 l 179 1068 m 507 1068 l 507 1264 l 733 1264 l 733 1068 l 507 1068 z "},"Ђ":{"ha":1160,"x_min":11,"x_max":1132,"o":"m 582 756 l 582 600 q 782 643 669 643 q 1041 556 950 643 q 1132 307 1132 468 q 1044 68 1132 154 q 790 -18 956 -18 q 658 0 713 -18 l 658 206 q 729 197 688 197 q 824 224 793 197 q 856 310 856 250 q 821 397 856 367 q 718 426 786 426 q 582 392 643 426 l 582 0 l 304 0 l 304 756 l 11 756 l 11 989 l 875 989 l 875 756 l 582 756 z "},"Ѓ":{"ha":736,"x_min":96,"x_max":725,"o":"m 96 989 l 725 989 l 725 756 l 374 756 l 374 0 l 96 0 l 96 989 m 264 1056 l 375 1272 l 664 1272 l 467 1056 l 264 1056 z "},"Є":{"ha":1033,"x_min":43,"x_max":992,"o":"m 992 367 q 851 79 975 181 q 526 -22 728 -22 q 267 40 376 -22 q 101 219 158 103 q 43 494 43 335 q 101 770 43 654 q 269 949 160 886 q 528 1011 379 1011 q 764 966 663 1011 q 923 835 865 921 q 986 631 981 749 l 701 631 q 647 744 692 704 q 528 785 603 785 q 406 737 456 785 q 338 603 357 689 l 625 603 l 625 388 l 338 388 q 406 252 357 300 q 526 204 456 204 q 647 247 600 204 q 704 367 693 289 l 992 367 z "},"Ѕ":{"ha":918,"x_min":29,"x_max":876,"o":"m 456 1011 q 751 928 646 1011 q 856 689 856 846 l 564 689 q 533 772 564 743 q 442 801 501 801 q 361 781 390 801 q 332 725 332 760 q 349 680 332 697 q 401 650 365 663 q 511 619 438 638 q 705 558 629 590 q 828 463 781 525 q 876 297 876 400 q 826 127 876 199 q 681 17 775 56 q 456 -22 586 -22 q 142 68 254 -22 q 29 321 29 158 l 329 321 q 465 194 329 194 q 552 217 521 194 q 583 279 583 240 q 567 327 583 310 q 517 357 550 344 q 410 388 483 369 q 215 451 288 421 q 96 542 143 482 q 49 701 49 601 q 97 865 49 794 q 238 973 146 935 q 456 1011 329 1011 z "},"І":{"ha":469,"x_min":96,"x_max":374,"o":"m 96 0 l 96 989 l 374 989 l 374 0 l 96 0 z "},"Ї":{"ha":469,"x_min":-43,"x_max":511,"o":"m 96 0 l 96 989 l 374 989 l 374 0 l 96 0 m -43 1068 l -43 1264 l 182 1264 l 182 1068 l -43 1068 m 285 1068 l 285 1264 l 511 1264 l 511 1068 l 285 1068 z "},"Ј":{"ha":594,"x_min":21,"x_max":506,"o":"m 506 353 q 418 75 506 164 q 147 -14 331 -14 q 21 1 88 -14 l 21 228 q 82 222 57 222 q 169 240 138 222 q 214 299 200 257 q 228 418 228 342 l 228 989 l 506 989 l 506 353 z "},"Љ":{"ha":1513,"x_min":14,"x_max":1485,"o":"m 1092 676 q 1385 586 1286 676 q 1485 338 1485 496 q 1385 90 1485 179 q 1092 0 1286 0 l 674 0 l 674 757 l 467 757 q 412 272 453 436 q 299 48 371 107 q 103 -11 228 -11 q 14 0 56 -11 l 14 222 q 39 219 28 219 q 131 276 99 219 q 180 495 163 333 q 207 989 197 657 l 951 989 l 951 676 l 1092 676 m 951 218 l 1053 218 q 1199 338 1199 218 q 1053 458 1199 458 l 951 458 l 951 218 z "},"Њ":{"ha":1536,"x_min":96,"x_max":1508,"o":"m 1115 676 q 1409 586 1310 676 q 1508 338 1508 496 q 1409 90 1508 179 q 1115 0 1310 0 l 697 0 l 697 392 l 374 392 l 374 0 l 96 0 l 96 989 l 374 989 l 374 625 l 697 625 l 697 989 l 975 989 l 975 676 l 1115 676 m 1222 338 q 1076 458 1222 458 l 975 458 l 975 218 l 1076 218 q 1222 338 1222 218 z "},"Ћ":{"ha":1163,"x_min":11,"x_max":1122,"o":"m 794 613 q 1038 531 953 613 q 1122 296 1122 449 l 1122 0 l 844 0 l 844 243 q 811 344 844 310 q 713 379 778 379 q 582 360 638 379 l 582 0 l 304 0 l 304 756 l 11 756 l 11 989 l 875 989 l 875 756 l 582 756 l 582 586 q 794 613 669 613 z "},"Ќ":{"ha":994,"x_min":96,"x_max":990,"o":"m 990 0 l 643 0 l 376 443 l 374 443 l 374 0 l 96 0 l 96 989 l 374 989 l 374 572 l 376 572 l 635 989 l 969 989 l 626 522 l 990 0 m 350 1056 l 461 1272 l 750 1272 l 553 1056 l 350 1056 z "},"Ѝ":{"ha":1149,"x_min":96,"x_max":1051,"o":"m 361 631 q 350 226 361 406 l 353 226 q 494 610 415 411 l 649 989 l 1051 989 l 1051 0 l 786 0 l 786 358 q 797 763 786 547 l 794 763 q 653 379 733 575 l 500 0 l 96 0 l 96 989 l 361 989 l 361 631 m 697 1056 l 494 1056 l 297 1272 l 586 1272 l 697 1056 z "},"Ў":{"ha":994,"x_min":0,"x_max":994,"o":"m 615 200 q 481 34 558 82 q 300 -14 404 -14 q 167 0 217 -14 l 167 225 q 235 215 199 215 q 306 234 281 215 q 331 290 331 253 q 319 340 331 314 q 256 474 308 367 l 0 989 l 303 989 l 404 742 q 497 501 451 632 l 500 501 q 592 743 546 633 l 692 989 l 994 989 l 615 200 m 749 1272 q 679 1111 744 1168 q 497 1054 614 1054 q 315 1111 381 1054 q 246 1272 250 1168 l 408 1272 q 497 1201 413 1201 q 586 1272 582 1201 l 749 1272 z "},"Џ":{"ha":1057,"x_min":96,"x_max":961,"o":"m 658 0 l 658 -222 l 392 -222 l 392 0 l 96 0 l 96 989 l 375 989 l 375 233 l 682 233 l 682 989 l 961 989 l 961 0 l 658 0 z "},"А":{"ha":1015,"x_min":-3,"x_max":1018,"o":"m 340 178 l 290 0 l -3 0 l 329 989 l 686 989 l 1018 0 l 725 0 l 675 178 l 340 178 m 594 464 q 510 797 551 615 l 507 797 q 421 464 463 607 l 401 396 l 614 396 l 594 464 z "},"Б":{"ha":953,"x_min":96,"x_max":907,"o":"m 364 771 l 364 617 l 538 617 q 809 534 711 617 q 907 308 907 451 q 809 83 907 165 q 538 0 711 0 l 96 0 l 96 989 l 842 989 l 842 771 l 364 771 m 364 201 l 479 201 q 585 227 551 201 q 619 308 619 253 q 585 388 619 363 q 479 414 551 414 l 364 414 l 364 201 z "},"В":{"ha":940,"x_min":96,"x_max":900,"o":"m 515 989 q 785 920 694 989 q 875 733 875 851 q 835 594 875 649 q 711 511 796 540 l 711 508 q 852 428 804 488 q 900 278 900 369 q 801 75 900 150 q 529 0 703 0 l 96 0 l 96 989 l 515 989 m 364 597 l 471 597 q 573 620 540 597 q 606 692 606 643 q 575 762 606 739 q 479 785 544 785 l 364 785 l 364 597 m 364 206 l 476 206 q 582 228 550 206 q 614 303 614 251 q 580 379 614 356 q 471 403 546 403 l 364 403 l 364 206 z "},"Г":{"ha":736,"x_min":96,"x_max":725,"o":"m 96 989 l 725 989 l 725 756 l 374 756 l 374 0 l 96 0 l 96 989 z "},"Д":{"ha":1140,"x_min":15,"x_max":1128,"o":"m 1128 -222 l 861 -222 l 861 0 l 282 0 l 282 -222 l 15 -222 l 15 233 l 140 233 q 200 485 179 319 q 228 989 221 650 l 1010 989 l 1010 233 l 1128 233 l 1128 -222 m 488 757 q 422 233 474 417 l 732 233 l 732 757 l 488 757 z "},"Е":{"ha":882,"x_min":96,"x_max":819,"o":"m 374 760 l 374 611 l 781 611 l 781 388 l 374 388 l 374 229 l 819 229 l 819 0 l 96 0 l 96 989 l 811 989 l 811 760 l 374 760 z "},"Ж":{"ha":1372,"x_min":4,"x_max":1368,"o":"m 1368 0 l 1042 0 l 825 474 l 822 474 l 822 0 l 550 0 l 550 474 l 547 474 l 332 0 l 4 0 l 300 515 l 17 989 l 338 989 l 547 551 l 550 551 l 550 989 l 822 989 l 822 551 l 825 551 l 1035 989 l 1356 989 l 1074 515 l 1368 0 z "},"З":{"ha":929,"x_min":21,"x_max":888,"o":"m 463 1010 q 763 935 651 1010 q 874 726 874 861 q 833 597 874 647 q 700 515 792 546 l 700 513 q 842 423 797 481 q 888 274 888 365 q 777 55 888 132 q 469 -22 667 -22 q 138 67 254 -22 q 21 329 21 157 l 321 329 q 359 229 321 263 q 469 196 397 196 q 561 221 526 196 q 596 289 596 246 q 556 365 596 339 q 442 392 517 392 l 383 392 l 383 601 l 442 601 q 548 628 510 601 q 586 701 586 656 q 553 769 586 744 q 461 793 519 793 q 363 760 397 793 q 328 665 328 726 l 36 665 q 88 850 36 772 q 235 969 139 928 q 463 1010 332 1010 z "},"И":{"ha":1149,"x_min":96,"x_max":1051,"o":"m 361 631 q 350 226 361 406 l 353 226 q 494 610 415 411 l 649 989 l 1051 989 l 1051 0 l 786 0 l 786 358 q 797 763 786 547 l 794 763 q 653 379 733 575 l 500 0 l 96 0 l 96 989 l 361 989 l 361 631 z "},"Й":{"ha":1149,"x_min":96,"x_max":1051,"o":"m 361 631 q 350 226 361 406 l 353 226 q 494 610 415 411 l 649 989 l 1051 989 l 1051 0 l 786 0 l 786 358 q 797 763 786 547 l 794 763 q 653 379 733 575 l 500 0 l 96 0 l 96 989 l 361 989 l 361 631 m 800 1272 q 731 1111 796 1168 q 549 1054 665 1054 q 367 1111 432 1054 q 297 1272 301 1168 l 460 1272 q 549 1201 464 1201 q 638 1272 633 1201 l 800 1272 z "},"К":{"ha":994,"x_min":96,"x_max":990,"o":"m 990 0 l 643 0 l 376 443 l 374 443 l 374 0 l 96 0 l 96 989 l 374 989 l 374 572 l 376 572 l 635 989 l 969 989 l 626 522 l 990 0 z "},"Л":{"ha":1047,"x_min":14,"x_max":951,"o":"m 674 0 l 674 757 l 467 757 q 412 272 453 436 q 299 48 371 107 q 103 -11 228 -11 q 14 0 56 -11 l 14 222 q 39 219 28 219 q 131 276 99 219 q 180 495 163 333 q 207 989 197 657 l 951 989 l 951 0 l 674 0 z "},"М":{"ha":1447,"x_min":96,"x_max":1351,"o":"m 1093 0 l 1093 474 q 1101 836 1093 656 l 1099 836 q 1015 478 1057 636 l 892 0 l 556 0 l 432 478 q 349 836 390 636 l 346 836 q 354 474 354 656 l 354 0 l 96 0 l 96 989 l 538 989 l 647 564 q 722 200 694 389 l 725 200 q 800 564 750 369 l 910 989 l 1351 989 l 1351 0 l 1093 0 z "},"Н":{"ha":1071,"x_min":96,"x_max":975,"o":"m 697 0 l 697 392 l 374 392 l 374 0 l 96 0 l 96 989 l 374 989 l 374 625 l 697 625 l 697 989 l 975 989 l 975 0 l 697 0 z "},"О":{"ha":1065,"x_min":43,"x_max":1022,"o":"m 532 1011 q 606 1011 532 1011 q 792 948 681 1011 q 963 768 903 885 q 1022 494 1022 651 q 963 221 1022 338 q 792 41 903 104 q 532 -22 681 -22 q 273 41 383 -22 q 103 221 163 104 q 43 494 43 338 q 103 768 43 651 q 273 948 163 885 q 532 1011 383 1011 m 532 775 q 386 702 438 775 q 335 494 335 629 q 386 287 335 360 q 532 214 438 214 q 679 287 628 214 q 731 494 731 360 q 679 702 731 629 q 532 775 628 775 z "},"П":{"ha":1057,"x_min":96,"x_max":961,"o":"m 683 0 l 683 756 l 374 756 l 374 0 l 96 0 l 96 989 l 961 989 l 961 0 l 683 0 z "},"Р":{"ha":935,"x_min":96,"x_max":907,"o":"m 514 989 q 808 899 708 989 q 907 651 907 810 q 808 403 907 493 q 514 313 708 313 l 374 313 l 374 0 l 96 0 l 96 989 l 514 989 m 374 531 l 475 531 q 621 651 621 531 q 475 771 621 771 l 374 771 l 374 531 z "},"С":{"ha":1014,"x_min":43,"x_max":972,"o":"m 515 1011 q 748 965 649 1011 q 904 830 847 918 q 967 621 961 742 l 675 621 q 626 735 667 694 q 515 775 585 775 q 383 700 432 775 q 333 494 333 625 q 383 290 333 365 q 515 214 432 214 q 626 257 583 214 q 676 376 669 300 l 972 376 q 835 81 957 185 q 515 -22 714 -22 q 263 40 369 -22 q 100 219 157 103 q 43 494 43 335 q 100 770 43 654 q 263 949 157 886 q 515 1011 369 1011 z "},"Т":{"ha":886,"x_min":11,"x_max":875,"o":"m 582 756 l 582 0 l 304 0 l 304 756 l 11 756 l 11 989 l 875 989 l 875 756 l 582 756 z "},"У":{"ha":994,"x_min":0,"x_max":994,"o":"m 615 200 q 481 34 558 82 q 300 -14 404 -14 q 167 0 217 -14 l 167 225 q 235 215 199 215 q 306 234 281 215 q 331 290 331 253 q 319 340 331 314 q 256 474 308 367 l 0 989 l 303 989 l 404 742 q 497 501 451 632 l 500 501 q 592 743 546 633 l 692 989 l 994 989 l 615 200 z "},"Ф":{"ha":1247,"x_min":43,"x_max":1204,"o":"m 1204 494 q 1204 398 1204 494 q 1090 192 1204 301 q 757 67 975 82 l 757 -36 l 490 -36 l 490 67 q 158 192 272 82 q 43 494 43 301 q 158 797 43 688 q 490 922 272 907 l 490 1025 l 757 1025 l 757 922 q 1090 797 975 907 q 1204 494 1204 688 m 500 279 l 500 710 q 325 494 325 681 q 500 279 325 307 m 922 494 q 747 710 922 681 l 747 279 q 922 494 922 307 z "},"Х":{"ha":985,"x_min":0,"x_max":983,"o":"m 983 0 l 657 0 l 493 332 l 490 332 l 328 0 l 0 0 l 306 513 l 21 989 l 340 989 l 490 671 l 493 671 l 644 989 l 964 989 l 679 513 l 983 0 z "},"Ц":{"ha":1096,"x_min":96,"x_max":1079,"o":"m 1079 233 l 1079 -222 l 813 -222 l 813 0 l 96 0 l 96 989 l 375 989 l 375 233 l 682 233 l 682 989 l 961 989 l 961 233 l 1079 233 z "},"Ч":{"ha":992,"x_min":40,"x_max":896,"o":"m 618 0 l 618 343 q 392 317 515 317 q 131 399 221 317 q 40 635 40 481 l 40 989 l 318 989 l 318 688 q 356 585 318 621 q 468 550 394 550 q 618 569 553 550 l 618 989 l 896 989 l 896 0 l 618 0 z "},"Ш":{"ha":1471,"x_min":96,"x_max":1375,"o":"m 96 0 l 96 989 l 375 989 l 375 233 l 596 233 l 596 989 l 875 989 l 875 233 l 1096 233 l 1096 989 l 1375 989 l 1375 0 l 96 0 z "},"Щ":{"ha":1506,"x_min":96,"x_max":1493,"o":"m 1493 233 l 1493 -222 l 1226 -222 l 1226 0 l 96 0 l 96 989 l 375 989 l 375 233 l 596 233 l 596 989 l 875 989 l 875 233 l 1096 233 l 1096 989 l 1375 989 l 1375 233 l 1493 233 z "},"Ъ":{"ha":1101,"x_min":11,"x_max":1074,"o":"m 681 676 q 974 586 875 676 q 1074 338 1074 496 q 974 90 1074 179 q 681 0 875 0 l 263 0 l 263 756 l 11 756 l 11 989 l 540 989 l 540 676 l 681 676 m 540 218 l 642 218 q 788 338 788 218 q 642 458 788 458 l 540 458 l 540 218 z "},"Ы":{"ha":1404,"x_min":96,"x_max":1308,"o":"m 96 989 l 374 989 l 374 676 l 514 676 q 808 586 708 676 q 907 338 907 496 q 808 90 907 179 q 514 0 708 0 l 96 0 l 96 989 m 1031 0 l 1031 989 l 1308 989 l 1308 0 l 1031 0 m 621 338 q 475 458 621 458 l 374 458 l 374 218 l 475 218 q 621 338 621 218 z "},"Ь":{"ha":935,"x_min":96,"x_max":907,"o":"m 96 989 l 374 989 l 374 676 l 514 676 q 808 586 708 676 q 907 338 907 496 q 808 90 907 179 q 514 0 708 0 l 96 0 l 96 989 m 621 338 q 475 458 621 458 l 374 458 l 374 218 l 475 218 q 621 338 621 218 z "},"Э":{"ha":1033,"x_min":42,"x_max":990,"o":"m 506 1011 q 764 949 654 1011 q 932 770 874 886 q 990 494 990 654 q 932 219 990 335 q 765 40 874 103 q 506 -22 656 -22 q 182 79 306 -22 q 42 367 58 181 l 329 367 q 385 247 339 290 q 506 204 432 204 q 627 253 578 204 q 696 388 676 301 l 408 388 l 408 603 l 696 603 q 627 737 676 689 q 506 785 578 785 q 386 744 431 785 q 331 631 342 704 l 47 631 q 110 835 53 749 q 269 966 168 921 q 506 1011 371 1011 z "},"Ю":{"ha":1490,"x_min":96,"x_max":1447,"o":"m 981 1011 q 1228 948 1122 1011 q 1390 767 1333 885 q 1447 492 1447 650 q 1390 220 1447 336 q 1228 41 1333 104 q 981 -22 1122 -22 q 673 84 794 -22 q 521 378 551 190 l 374 378 l 374 0 l 96 0 l 96 989 l 374 989 l 374 611 l 521 611 q 673 905 551 799 q 981 1011 794 1011 m 981 214 q 1024 214 981 214 q 1113 286 1067 214 q 1160 492 1160 358 q 1113 701 1160 628 q 981 775 1067 775 q 848 702 894 775 q 801 494 801 629 q 848 287 801 360 q 981 214 894 214 z "},"Я":{"ha":968,"x_min":-3,"x_max":871,"o":"m 871 0 l 594 0 l 594 332 l 443 332 l 292 0 l -3 0 l 192 386 q 47 668 47 468 q 144 907 47 825 q 432 989 240 989 l 871 989 l 871 0 m 465 781 q 318 658 318 781 q 458 533 318 533 l 594 533 l 594 781 l 465 781 z "},"а":{"ha":800,"x_min":25,"x_max":754,"o":"m 394 728 q 649 653 565 728 q 732 435 732 578 l 732 206 q 754 0 732 75 l 514 0 q 503 89 503 40 l 500 89 q 271 -19 417 -19 q 92 43 158 -19 q 25 201 25 106 q 92 353 25 297 q 313 432 158 408 q 475 450 388 444 l 475 475 q 392 572 475 572 q 331 549 353 572 q 308 482 310 526 l 54 482 q 144 658 61 589 q 394 728 228 728 m 367 301 q 305 272 324 292 q 286 219 286 253 q 306 166 286 186 q 364 146 326 146 q 409 154 388 146 q 444 179 431 163 q 469 224 463 199 q 475 290 475 249 l 475 317 q 367 301 407 310 z "},"б":{"ha":851,"x_min":39,"x_max":814,"o":"m 544 776 q 367 751 431 774 q 276 685 304 728 q 239 568 247 642 l 242 568 q 479 679 304 679 q 723 591 632 679 q 814 351 814 503 q 767 153 814 238 q 631 24 719 69 q 426 -22 543 -22 q 138 85 238 -22 q 39 401 39 193 q 88 738 39 615 q 235 915 138 861 q 492 979 333 969 q 771 1011 675 989 l 771 801 q 544 776 696 782 m 424 501 q 342 458 369 501 q 315 336 315 415 q 343 212 315 256 q 424 168 371 168 q 504 211 476 168 q 532 333 532 254 q 504 458 532 414 q 424 501 476 501 z "},"в":{"ha":817,"x_min":75,"x_max":778,"o":"m 463 706 q 683 658 610 706 q 756 514 756 611 q 724 419 756 454 q 622 364 692 383 l 622 361 q 736 306 694 349 q 778 199 778 263 q 698 51 778 103 q 471 0 618 0 l 75 0 l 75 706 l 463 706 m 328 426 l 407 426 q 499 489 499 426 q 407 553 499 553 l 328 553 l 328 426 m 328 153 l 404 153 q 511 221 511 153 q 404 288 511 288 l 328 288 l 328 153 z "},"г":{"ha":642,"x_min":75,"x_max":632,"o":"m 342 515 l 342 0 l 75 0 l 75 706 l 632 706 l 632 515 l 342 515 z "},"д":{"ha":968,"x_min":11,"x_max":957,"o":"m 957 -222 l 694 -222 l 694 0 l 274 0 l 274 -222 l 11 -222 l 11 190 l 92 190 q 149 360 128 250 q 182 706 169 469 l 864 706 l 864 190 l 957 190 l 957 -222 m 429 515 q 382 190 415 310 l 601 190 l 601 515 l 429 515 z "},"е":{"ha":825,"x_min":35,"x_max":790,"o":"m 413 150 q 478 169 453 150 q 508 218 504 188 l 781 218 q 715 95 765 150 q 588 9 665 40 q 415 -22 510 -22 q 209 27 294 -22 q 79 163 124 76 q 35 357 35 249 q 79 547 35 463 q 209 679 124 631 q 411 728 294 728 q 628 671 539 728 q 760 510 718 614 q 783 419 776 468 q 790 299 790 371 l 297 299 q 331 183 301 217 q 413 150 361 150 m 299 439 l 522 439 q 488 532 517 503 q 411 561 458 561 q 299 439 317 561 z "},"ж":{"ha":1151,"x_min":-15,"x_max":1167,"o":"m 857 0 l 707 339 l 704 339 l 704 0 l 447 0 l 447 339 l 444 339 l 296 0 l -15 0 l 217 372 l 7 706 l 306 706 l 444 406 l 447 406 l 447 706 l 704 706 l 704 406 l 707 406 l 846 706 l 1144 706 l 935 372 l 1167 0 l 857 0 z "},"з":{"ha":763,"x_min":28,"x_max":724,"o":"m 382 728 q 618 674 529 728 q 707 519 707 619 q 679 428 707 463 q 589 371 651 393 l 589 368 q 691 303 658 344 q 724 197 724 263 q 636 34 724 90 q 383 -22 549 -22 q 121 45 214 -22 q 28 243 28 113 l 278 243 q 382 157 278 157 q 449 173 424 157 q 474 218 474 189 q 374 281 474 281 l 304 281 l 304 432 l 374 432 q 440 448 417 432 q 463 492 463 464 q 440 535 463 519 q 378 550 418 550 q 304 528 329 550 q 279 465 279 506 l 42 465 q 134 658 42 588 q 382 728 226 728 z "},"и":{"ha":978,"x_min":75,"x_max":903,"o":"m 649 0 l 649 239 q 665 518 649 358 l 663 518 q 572 260 625 388 l 457 0 l 75 0 l 75 706 l 328 706 l 328 468 q 311 188 328 328 l 314 188 q 404 446 350 318 l 518 706 l 903 706 l 903 0 l 649 0 z "},"й":{"ha":978,"x_min":75,"x_max":903,"o":"m 649 0 l 649 239 q 665 518 649 358 l 663 518 q 572 260 625 388 l 457 0 l 75 0 l 75 706 l 328 706 l 328 468 q 311 188 328 328 l 314 188 q 404 446 350 318 l 518 706 l 903 706 l 903 0 l 649 0 m 742 989 q 672 828 738 885 q 490 771 607 771 q 308 828 374 771 q 239 989 243 885 l 401 989 q 490 918 406 918 q 579 989 575 918 l 742 989 z "},"к":{"ha":826,"x_min":75,"x_max":832,"o":"m 506 0 l 344 308 l 342 308 l 342 0 l 75 0 l 75 706 l 342 706 l 342 436 l 344 436 l 493 706 l 808 706 l 572 372 l 832 0 l 506 0 z "},"л":{"ha":854,"x_min":10,"x_max":779,"o":"m 513 0 l 513 515 l 386 515 q 346 185 379 299 q 253 30 313 71 q 96 -11 194 -11 q 10 0 47 -11 l 10 186 q 36 183 24 183 q 106 222 81 183 q 144 372 131 261 q 161 706 157 483 l 779 706 l 779 0 l 513 0 z "},"м":{"ha":1196,"x_min":75,"x_max":1121,"o":"m 888 0 l 888 304 q 894 551 888 415 l 892 551 q 835 307 872 456 l 756 0 l 440 0 l 361 307 q 304 551 342 381 l 301 551 q 308 304 308 415 l 308 0 l 75 0 l 75 706 l 474 706 l 547 421 q 596 163 583 292 l 599 163 q 649 421 617 299 l 722 706 l 1121 706 l 1121 0 l 888 0 z "},"н":{"ha":875,"x_min":75,"x_max":800,"o":"m 533 0 l 533 263 l 342 263 l 342 0 l 75 0 l 75 706 l 342 706 l 342 454 l 533 454 l 533 706 l 800 706 l 800 0 l 533 0 z "},"о":{"ha":858,"x_min":35,"x_max":824,"o":"m 429 728 q 489 728 429 728 q 638 682 549 728 q 775 551 726 636 q 824 353 824 467 q 775 154 824 239 q 638 24 726 69 q 429 -22 549 -22 q 221 24 310 -22 q 83 154 132 69 q 35 353 35 239 q 83 551 35 467 q 221 682 132 636 q 429 728 310 728 m 429 529 q 402 529 429 529 q 345 483 375 529 q 315 353 315 436 q 345 223 315 269 q 429 176 375 176 q 513 223 483 176 q 543 353 543 269 q 513 483 543 436 q 429 529 483 529 z "},"п":{"ha":868,"x_min":75,"x_max":793,"o":"m 526 0 l 526 515 l 342 515 l 342 0 l 75 0 l 75 706 l 793 706 l 793 0 l 526 0 z "},"р":{"ha":864,"x_min":75,"x_max":829,"o":"m 522 726 q 683 681 614 726 q 791 550 753 635 q 829 353 829 465 q 792 156 829 240 q 688 25 756 71 q 529 -21 619 -21 q 424 1 474 -21 q 344 67 375 24 l 342 67 l 342 -257 l 75 -257 l 75 706 l 331 706 l 331 625 l 333 625 q 415 701 365 675 q 522 726 464 726 m 438 525 q 358 478 388 525 q 328 353 328 432 q 358 227 328 274 q 438 181 388 181 q 519 227 489 181 q 550 353 550 274 q 519 478 550 432 q 438 525 489 525 z "},"с":{"ha":818,"x_min":35,"x_max":789,"o":"m 417 728 q 674 647 574 728 q 789 428 775 565 l 513 428 q 484 503 508 476 q 421 529 460 529 q 343 484 371 529 q 315 356 315 439 q 343 222 315 268 q 421 176 371 176 q 486 206 461 176 q 513 290 511 236 l 789 290 q 677 61 778 144 q 417 -22 576 -22 q 215 24 301 -22 q 82 155 129 69 q 35 356 35 240 q 81 552 35 468 q 215 682 128 636 q 417 728 301 728 z "},"т":{"ha":694,"x_min":4,"x_max":690,"o":"m 481 515 l 481 0 l 214 0 l 214 515 l 4 515 l 4 706 l 690 706 l 690 515 l 481 515 z "},"у":{"ha":774,"x_min":-17,"x_max":786,"o":"m 568 31 q 488 -147 532 -83 q 383 -239 444 -211 q 228 -267 321 -267 q 89 -253 144 -267 l 89 -61 q 154 -69 121 -69 q 219 -52 196 -69 q 242 0 242 -35 q 235 39 242 15 q 197 144 228 63 l -17 706 l 272 706 l 335 471 q 400 178 372 326 l 403 178 q 460 472 424 311 l 514 706 l 786 706 l 568 31 z "},"ф":{"ha":1199,"x_min":35,"x_max":1164,"o":"m 871 726 q 1026 681 960 726 q 1128 550 1092 635 q 1164 353 1164 465 q 1128 156 1164 240 q 1025 25 1092 71 q 869 -21 958 -21 q 729 32 789 -21 l 729 -257 l 469 -257 l 469 32 q 329 -21 410 -21 q 174 25 240 -21 q 71 156 107 71 q 35 353 35 240 q 71 550 35 465 q 173 681 107 635 q 328 726 239 726 q 469 674 410 726 l 469 989 l 729 989 l 729 674 q 871 726 789 726 m 415 529 q 335 482 364 529 q 307 353 307 435 q 335 224 307 271 q 415 176 364 176 q 469 199 449 176 l 469 507 q 415 529 449 529 m 729 507 l 729 199 q 783 176 750 176 q 863 224 833 176 q 892 353 892 271 q 863 482 892 435 q 783 529 833 529 q 729 507 750 529 z "},"х":{"ha":779,"x_min":-8,"x_max":788,"o":"m 788 0 l 489 0 l 392 215 l 389 215 l 292 0 l -8 0 l 221 363 l 7 706 l 307 706 l 389 511 l 392 511 l 474 706 l 772 706 l 558 363 l 788 0 z "},"ц":{"ha":892,"x_min":75,"x_max":881,"o":"m 881 190 l 881 -222 l 614 -222 l 614 0 l 75 0 l 75 706 l 342 706 l 342 190 l 521 190 l 521 706 l 788 706 l 788 190 l 881 190 z "},"ч":{"ha":815,"x_min":32,"x_max":740,"o":"m 474 0 l 474 235 q 288 213 388 213 q 98 271 164 213 q 32 436 32 329 l 32 706 l 299 706 l 299 488 q 388 404 299 404 q 474 417 433 404 l 474 706 l 740 706 l 740 0 l 474 0 z "},"ш":{"ha":1253,"x_min":75,"x_max":1178,"o":"m 75 0 l 75 706 l 342 706 l 342 190 l 493 190 l 493 706 l 760 706 l 760 190 l 911 190 l 911 706 l 1178 706 l 1178 0 l 75 0 z "},"щ":{"ha":1282,"x_min":75,"x_max":1271,"o":"m 1271 190 l 1271 -222 l 1004 -222 l 1004 0 l 75 0 l 75 706 l 342 706 l 342 190 l 493 190 l 493 706 l 760 706 l 760 190 l 911 190 l 911 706 l 1178 706 l 1178 190 l 1271 190 z "},"ъ":{"ha":936,"x_min":4,"x_max":901,"o":"m 576 504 q 817 442 733 504 q 901 251 901 379 q 817 62 901 124 q 576 0 733 0 l 181 0 l 181 515 l 4 515 l 4 706 l 447 706 l 447 504 l 576 504 m 447 175 l 543 175 q 632 251 632 175 q 543 329 632 329 l 447 329 l 447 175 z "},"ы":{"ha":1215,"x_min":75,"x_max":1140,"o":"m 471 504 q 712 442 628 504 q 796 251 796 379 q 712 62 796 124 q 471 0 628 0 l 75 0 l 75 706 l 342 706 l 342 504 l 471 504 m 342 175 l 438 175 q 526 251 526 175 q 438 329 526 329 l 342 329 l 342 175 m 874 0 l 874 706 l 1140 706 l 1140 0 l 874 0 z "},"ь":{"ha":829,"x_min":75,"x_max":796,"o":"m 471 504 q 712 442 628 504 q 796 251 796 379 q 712 62 796 124 q 471 0 628 0 l 75 0 l 75 706 l 342 706 l 342 504 l 471 504 m 342 175 l 438 175 q 526 251 526 175 q 438 329 526 329 l 342 329 l 342 175 z "},"э":{"ha":818,"x_min":29,"x_max":783,"o":"m 401 728 q 603 682 517 728 q 737 552 690 636 q 783 356 783 468 q 736 155 783 240 q 602 24 689 69 q 400 -22 515 -22 q 140 57 240 -22 q 29 272 40 136 l 282 272 q 315 189 283 219 q 396 158 347 158 q 477 191 444 158 q 521 286 510 224 l 321 286 l 321 433 l 519 433 q 476 521 507 490 q 397 551 444 551 q 319 524 350 551 q 281 446 288 497 l 29 446 q 143 651 42 575 q 401 728 244 728 z "},"ю":{"ha":1232,"x_min":75,"x_max":1197,"o":"m 811 728 q 1015 682 928 728 q 1150 551 1103 636 q 1197 353 1197 467 q 1150 154 1197 239 q 1015 24 1103 69 q 811 -22 928 -22 q 560 53 660 -22 q 433 260 460 128 l 342 260 l 342 0 l 75 0 l 75 706 l 342 706 l 342 451 l 433 451 q 562 654 463 581 q 811 728 661 728 m 811 176 q 838 176 811 176 q 892 223 864 176 q 921 353 921 269 q 892 483 921 436 q 811 529 864 529 q 730 483 758 529 q 701 353 701 436 q 730 223 701 269 q 811 176 758 176 z "},"я":{"ha":836,"x_min":0,"x_max":761,"o":"m 761 0 l 496 0 l 496 207 l 389 207 l 288 0 l 0 0 l 147 257 q 40 465 40 319 q 365 706 40 706 l 761 706 l 761 0 m 414 529 q 303 454 303 529 q 328 397 303 417 q 411 378 354 378 l 496 378 l 496 529 l 414 529 z "},"ѐ":{"ha":825,"x_min":35,"x_max":790,"o":"m 413 150 q 478 169 453 150 q 508 218 504 188 l 781 218 q 715 95 765 150 q 588 9 665 40 q 415 -22 510 -22 q 209 27 294 -22 q 79 163 124 76 q 35 357 35 249 q 79 547 35 463 q 209 679 124 631 q 411 728 294 728 q 628 671 539 728 q 760 510 718 614 q 783 419 776 468 q 790 299 790 371 l 297 299 q 331 183 301 217 q 413 150 361 150 m 299 439 l 522 439 q 488 532 517 503 q 411 561 458 561 q 299 439 317 561 m 560 781 l 357 781 l 160 989 l 449 989 l 560 781 z "},"ё":{"ha":825,"x_min":35,"x_max":790,"o":"m 413 150 q 478 169 453 150 q 508 218 504 188 l 781 218 q 715 95 765 150 q 588 9 665 40 q 415 -22 510 -22 q 209 27 294 -22 q 79 163 124 76 q 35 357 35 249 q 79 547 35 463 q 209 679 124 631 q 411 728 294 728 q 628 671 539 728 q 760 510 718 614 q 783 419 776 468 q 790 299 790 371 l 297 299 q 331 183 301 217 q 413 150 361 150 m 299 439 l 522 439 q 488 532 517 503 q 411 561 458 561 q 299 439 317 561 m 135 793 l 135 989 l 360 989 l 360 793 l 135 793 m 463 793 l 463 989 l 689 989 l 689 793 l 463 793 z "},"ђ":{"ha":861,"x_min":-21,"x_max":793,"o":"m 532 647 q 724 572 654 647 q 793 357 793 497 l 793 19 q 717 -194 793 -124 q 515 -265 642 -265 q 388 -250 442 -265 l 388 -67 q 422 -71 403 -71 q 501 -42 476 -71 q 526 65 526 -12 l 526 324 q 505 411 526 381 q 440 442 483 442 q 342 276 342 442 l 342 0 l 75 0 l 75 736 l -21 736 l -21 888 l 75 888 l 75 989 l 342 989 l 342 888 l 643 888 l 643 736 l 342 736 l 342 564 l 344 564 q 532 647 414 647 z "},"ѓ":{"ha":642,"x_min":75,"x_max":632,"o":"m 342 515 l 342 0 l 75 0 l 75 706 l 632 706 l 632 515 l 342 515 m 206 781 l 317 989 l 606 989 l 408 781 l 206 781 z "},"є":{"ha":818,"x_min":35,"x_max":789,"o":"m 421 158 q 503 189 471 158 q 536 272 535 219 l 789 272 q 677 57 778 136 q 417 -22 576 -22 q 215 24 301 -22 q 82 155 129 69 q 35 356 35 240 q 81 552 35 468 q 215 682 128 636 q 417 728 301 728 q 674 651 574 728 q 789 446 775 575 l 536 446 q 499 524 531 497 q 421 551 468 551 q 342 521 374 551 q 299 433 311 490 l 497 433 l 497 286 l 297 286 q 340 191 307 224 q 421 158 372 158 z "},"ѕ":{"ha":776,"x_min":36,"x_max":739,"o":"m 386 728 q 628 669 542 728 q 714 494 714 611 l 461 494 q 382 572 461 572 q 317 525 317 572 q 328 497 317 507 q 367 476 339 486 q 454 450 394 465 q 601 402 543 426 q 699 331 660 378 q 739 208 739 283 q 649 40 739 103 q 396 -22 558 -22 q 36 229 36 -22 l 303 229 q 326 163 303 185 q 397 142 349 142 q 453 154 435 142 q 472 190 472 167 q 458 224 472 211 q 411 248 443 238 q 310 276 379 258 q 177 319 229 297 q 90 386 125 342 q 54 504 54 431 q 138 667 54 606 q 386 728 222 728 z "},"і":{"ha":417,"x_min":75,"x_max":342,"o":"m 75 793 l 75 989 l 342 989 l 342 793 l 75 793 m 75 0 l 75 706 l 342 706 l 342 0 l 75 0 z "},"ї":{"ha":417,"x_min":-21,"x_max":439,"o":"m 75 0 l 75 706 l 342 706 l 342 0 l 75 0 m -21 793 l -21 989 l 176 989 l 176 793 l -21 793 m 240 793 l 240 989 l 439 989 l 439 793 l 240 793 z "},"ј":{"ha":417,"x_min":-64,"x_max":342,"o":"m 75 793 l 75 989 l 342 989 l 342 793 l 75 793 m 342 19 q 266 -194 342 -124 q 64 -265 190 -265 q -64 -250 -10 -265 l -64 -67 q -29 -71 -49 -71 q 50 -42 25 -71 q 75 65 75 -12 l 75 706 l 342 706 l 342 19 z "},"љ":{"ha":1267,"x_min":10,"x_max":1233,"o":"m 907 504 q 1149 442 1064 504 q 1233 251 1233 379 q 1149 62 1233 124 q 907 0 1064 0 l 513 0 l 513 515 l 386 515 q 346 185 379 299 q 253 30 313 71 q 96 -11 194 -11 q 10 0 47 -11 l 10 186 q 36 183 24 183 q 106 222 81 183 q 144 372 131 261 q 161 706 157 483 l 779 706 l 779 504 l 907 504 m 779 175 l 875 175 q 964 251 964 175 q 875 329 964 329 l 779 329 l 779 175 z "},"њ":{"ha":1283,"x_min":75,"x_max":1250,"o":"m 925 504 q 1166 442 1082 504 q 1250 251 1250 379 q 1166 62 1250 124 q 925 0 1082 0 l 529 0 l 529 263 l 342 263 l 342 0 l 75 0 l 75 706 l 342 706 l 342 454 l 529 454 l 529 706 l 796 706 l 796 504 l 925 504 m 796 175 l 892 175 q 981 251 981 175 q 892 329 981 329 l 796 329 l 796 175 z "},"ћ":{"ha":861,"x_min":-21,"x_max":793,"o":"m 532 647 q 724 572 654 647 q 793 357 793 497 l 793 0 l 526 0 l 526 324 q 505 411 526 381 q 440 442 483 442 q 342 276 342 442 l 342 0 l 75 0 l 75 736 l -21 736 l -21 888 l 75 888 l 75 989 l 342 989 l 342 888 l 643 888 l 643 736 l 342 736 l 342 564 l 344 564 q 532 647 414 647 z "},"ќ":{"ha":826,"x_min":75,"x_max":832,"o":"m 506 0 l 344 308 l 342 308 l 342 0 l 75 0 l 75 706 l 342 706 l 342 436 l 344 436 l 493 706 l 808 706 l 572 372 l 832 0 l 506 0 m 271 781 l 382 989 l 671 989 l 474 781 l 271 781 z "},"ѝ":{"ha":978,"x_min":75,"x_max":903,"o":"m 649 0 l 649 239 q 665 518 649 358 l 663 518 q 572 260 625 388 l 457 0 l 75 0 l 75 706 l 328 706 l 328 468 q 311 188 328 328 l 314 188 q 404 446 350 318 l 518 706 l 903 706 l 903 0 l 649 0 m 638 781 l 435 781 l 238 989 l 526 989 l 638 781 z "},"ў":{"ha":774,"x_min":-17,"x_max":786,"o":"m 568 31 q 488 -147 532 -83 q 383 -239 444 -211 q 228 -267 321 -267 q 89 -253 144 -267 l 89 -61 q 154 -69 121 -69 q 219 -52 196 -69 q 242 0 242 -35 q 235 39 242 15 q 197 144 228 63 l -17 706 l 272 706 l 335 471 q 400 178 372 326 l 403 178 q 460 472 424 311 l 514 706 l 786 706 l 568 31 m 643 989 q 574 828 639 885 q 392 771 508 771 q 210 828 275 771 q 140 989 144 885 l 303 989 q 392 918 307 918 q 481 989 476 918 l 643 989 z "},"џ":{"ha":868,"x_min":75,"x_max":793,"o":"m 565 0 l 565 -222 l 299 -222 l 299 0 l 75 0 l 75 706 l 342 706 l 342 190 l 526 190 l 526 706 l 793 706 l 793 0 l 565 0 z "},"Ґ":{"ha":736,"x_min":96,"x_max":725,"o":"m 374 756 l 374 0 l 96 0 l 96 989 l 458 989 l 458 1168 l 725 1168 l 725 756 l 374 756 z "},"ґ":{"ha":642,"x_min":75,"x_max":632,"o":"m 342 515 l 342 0 l 75 0 l 75 706 l 389 706 l 389 928 l 632 928 l 632 515 l 342 515 z "},"Ғ":{"ha":740,"x_min":18,"x_max":729,"o":"m 378 513 l 549 513 l 549 343 l 378 343 l 378 0 l 101 0 l 101 343 l 18 343 l 18 513 l 101 513 l 101 989 l 729 989 l 729 756 l 378 756 l 378 513 z "},"ғ":{"ha":654,"x_min":15,"x_max":643,"o":"m 353 374 l 519 374 l 519 226 l 353 226 l 353 0 l 86 0 l 86 226 l 15 226 l 15 374 l 86 374 l 86 706 l 643 706 l 643 515 l 353 515 l 353 374 z "},"Җ":{"ha":1372,"x_min":4,"x_max":1368,"o":"m 1368 -222 l 1101 -222 l 1101 0 l 1042 0 l 825 474 l 822 474 l 822 0 l 550 0 l 550 474 l 547 474 l 332 0 l 4 0 l 300 515 l 17 989 l 338 989 l 547 551 l 550 551 l 550 989 l 822 989 l 822 551 l 825 551 l 1035 989 l 1356 989 l 1074 515 l 1235 233 l 1368 233 l 1368 -222 z "},"җ":{"ha":1151,"x_min":-15,"x_max":1167,"o":"m 1167 -222 l 900 -222 l 900 0 l 857 0 l 707 339 l 704 339 l 704 0 l 447 0 l 447 339 l 444 339 l 296 0 l -15 0 l 217 372 l 7 706 l 306 706 l 444 406 l 447 406 l 447 706 l 704 706 l 704 406 l 707 406 l 846 706 l 1144 706 l 935 372 l 1049 190 l 1167 190 l 1167 -222 z "},"Қ":{"ha":994,"x_min":96,"x_max":990,"o":"m 990 -222 l 724 -222 l 724 0 l 643 0 l 376 443 l 374 443 l 374 0 l 96 0 l 96 989 l 374 989 l 374 572 l 376 572 l 635 989 l 969 989 l 626 522 l 828 233 l 990 233 l 990 -222 z "},"қ":{"ha":826,"x_min":75,"x_max":832,"o":"m 832 -222 l 565 -222 l 565 0 l 506 0 l 344 308 l 342 308 l 342 0 l 75 0 l 75 706 l 342 706 l 342 436 l 344 436 l 493 706 l 808 706 l 572 372 l 699 190 l 832 190 l 832 -222 z "},"Ҝ":{"ha":1086,"x_min":96,"x_max":1082,"o":"m 574 392 l 574 190 l 431 190 l 431 392 l 368 392 l 368 0 l 96 0 l 96 989 l 368 989 l 368 625 l 431 625 l 431 828 l 574 828 l 574 625 l 576 625 l 750 989 l 1069 989 l 790 518 l 1082 0 l 756 0 l 578 392 l 574 392 z "},"ҝ":{"ha":929,"x_min":75,"x_max":943,"o":"m 499 278 l 499 135 l 378 135 l 378 278 l 332 278 l 332 0 l 75 0 l 75 706 l 332 706 l 332 468 l 378 468 l 378 619 l 499 619 l 499 468 l 513 468 l 622 706 l 921 706 l 711 372 l 943 0 l 632 0 l 510 278 l 499 278 z "},"Ң":{"ha":1110,"x_min":96,"x_max":1093,"o":"m 826 -222 l 826 0 l 697 0 l 697 392 l 374 392 l 374 0 l 96 0 l 96 989 l 374 989 l 374 625 l 697 625 l 697 989 l 975 989 l 975 233 l 1093 233 l 1093 -222 l 826 -222 z "},"ң":{"ha":904,"x_min":75,"x_max":893,"o":"m 626 -222 l 626 0 l 533 0 l 533 263 l 342 263 l 342 0 l 75 0 l 75 706 l 342 706 l 342 454 l 533 454 l 533 706 l 800 706 l 800 190 l 893 190 l 893 -222 l 626 -222 z "},"Ү":{"ha":957,"x_min":0,"x_max":956,"o":"m 617 0 l 339 0 l 339 361 l 0 989 l 306 989 l 383 815 q 476 571 442 685 l 479 571 q 574 815 517 689 l 651 989 l 956 989 l 617 361 l 617 0 z "},"ү":{"ha":771,"x_min":-12,"x_max":783,"o":"m 519 -25 l 519 -257 l 253 -257 l 253 -25 l -12 706 l 275 706 l 329 497 q 385 233 363 374 l 388 233 q 442 497 413 386 l 497 706 l 783 706 l 519 -25 z "},"Ҳ":{"ha":985,"x_min":0,"x_max":983,"o":"m 983 -222 l 717 -222 l 717 0 l 657 0 l 493 332 l 490 332 l 328 0 l 0 0 l 306 513 l 21 989 l 340 989 l 490 671 l 493 671 l 644 989 l 964 989 l 679 513 l 844 233 l 983 233 l 983 -222 z "},"ҳ":{"ha":779,"x_min":-8,"x_max":788,"o":"m 788 -222 l 521 -222 l 521 0 l 489 0 l 392 215 l 389 215 l 292 0 l -8 0 l 221 363 l 7 706 l 307 706 l 389 511 l 392 511 l 474 706 l 772 706 l 558 363 l 667 190 l 788 190 l 788 -222 z "},"Ҹ":{"ha":992,"x_min":40,"x_max":896,"o":"m 896 0 l 618 0 l 618 343 q 542 328 579 333 l 542 157 l 394 157 l 394 317 l 392 317 q 131 399 221 317 q 40 635 40 481 l 40 989 l 318 989 l 318 688 q 394 563 318 592 l 394 792 l 542 792 l 542 554 q 618 569 594 563 l 618 989 l 896 989 l 896 0 z "},"ҹ":{"ha":843,"x_min":32,"x_max":768,"o":"m 768 0 l 511 0 l 511 240 l 461 228 l 461 110 l 340 110 l 340 214 l 306 213 q 103 276 175 213 q 32 454 32 339 l 32 706 l 289 706 l 289 506 q 301 444 289 467 q 340 411 313 421 l 340 585 l 461 585 l 461 410 q 511 422 488 414 l 511 706 l 768 706 l 768 0 z "},"Һ":{"ha":992,"x_min":96,"x_max":951,"o":"m 374 989 l 374 646 q 600 672 476 672 q 861 590 771 672 q 951 354 951 508 l 951 0 l 675 0 l 675 301 q 636 403 675 368 q 524 439 597 439 q 374 419 440 439 l 374 0 l 96 0 l 96 989 l 374 989 z "},"һ":{"ha":856,"x_min":75,"x_max":788,"o":"m 344 642 q 424 703 376 682 q 529 725 471 725 q 719 650 650 725 q 788 435 788 575 l 788 0 l 521 0 l 521 401 q 438 519 521 519 q 342 354 342 519 l 342 0 l 75 0 l 75 989 l 342 989 l 342 642 l 344 642 z "},"Ӏ":{"ha":469,"x_min":96,"x_max":374,"o":"m 96 0 l 96 989 l 374 989 l 374 0 l 96 0 z "},"ӏ":{"ha":417,"x_min":75,"x_max":342,"o":"m 75 0 l 75 989 l 342 989 l 342 0 l 75 0 z "},"Ә":{"ha":1093,"x_min":43,"x_max":1050,"o":"m 536 1011 q 813 947 697 1011 q 990 765 929 882 q 1050 497 1050 649 q 989 232 1050 350 q 813 46 928 114 q 543 -22 699 -22 q 278 40 390 -22 q 104 219 165 103 q 43 492 43 335 q 49 574 43 547 l 760 574 q 691 744 751 692 q 538 797 631 797 q 422 765 467 797 q 367 681 376 732 l 68 681 q 151 848 89 772 q 313 967 214 924 q 536 1011 411 1011 m 543 190 q 683 238 628 190 q 756 385 739 286 l 335 385 q 403 239 347 288 q 543 190 460 190 z "},"ә":{"ha":825,"x_min":35,"x_max":790,"o":"m 408 728 q 615 680 529 728 q 746 547 701 632 q 790 356 790 463 q 746 163 790 249 q 616 27 701 76 q 413 -22 531 -22 q 212 24 297 -22 q 81 153 126 69 q 35 350 35 238 q 39 410 35 386 l 529 410 q 494 523 525 490 q 411 556 463 556 q 352 537 375 556 q 325 489 329 518 l 53 489 q 117 611 68 557 q 241 697 165 665 q 408 728 317 728 m 528 269 l 303 269 q 338 175 308 206 q 413 144 368 144 q 528 269 510 144 z "},"Ө":{"ha":1065,"x_min":43,"x_max":1022,"o":"m 532 1011 q 606 1011 532 1011 q 792 948 681 1011 q 963 768 903 885 q 1022 494 1022 651 q 963 221 1022 338 q 792 41 903 104 q 532 -22 681 -22 q 273 41 383 -22 q 103 221 163 104 q 43 494 43 338 q 103 768 43 651 q 273 948 163 885 q 532 1011 383 1011 m 532 789 q 396 738 449 789 q 326 589 343 686 l 740 589 q 670 738 724 686 q 532 789 617 789 m 532 200 q 670 252 617 200 q 739 401 724 304 l 325 401 q 395 252 342 304 q 532 200 449 200 z "},"ө":{"ha":858,"x_min":35,"x_max":824,"o":"m 429 728 q 489 728 429 728 q 638 682 549 728 q 775 551 726 636 q 824 353 824 467 q 775 154 824 239 q 638 24 726 69 q 429 -22 549 -22 q 221 24 310 -22 q 83 154 132 69 q 35 353 35 239 q 83 551 35 467 q 221 682 132 636 q 429 728 310 728 m 429 551 q 402 551 429 551 q 340 516 375 551 q 293 417 304 481 l 565 417 q 519 516 554 481 q 429 551 483 551 m 429 154 q 456 154 429 154 q 519 190 483 154 q 565 289 554 225 l 293 289 q 340 190 304 225 q 429 154 375 154 z "},"Ẁ":{"ha":1424,"x_min":8,"x_max":1415,"o":"m 847 0 l 772 399 q 714 772 732 626 l 711 772 q 651 399 692 610 l 576 0 l 201 0 l 8 989 l 278 989 l 338 636 q 396 236 369 451 l 399 236 q 464 636 424 432 l 533 989 l 890 989 l 960 636 q 1026 236 999 443 l 1029 236 q 1086 636 1053 436 l 1147 989 l 1415 989 l 1222 0 l 847 0 m 858 1056 l 656 1056 l 458 1272 l 747 1272 l 858 1056 z "},"ẁ":{"ha":1231,"x_min":6,"x_max":1225,"o":"m 714 0 l 664 251 q 617 544 638 383 l 614 544 q 567 251 593 383 l 517 0 l 164 0 l 6 706 l 263 706 l 300 460 q 336 167 324 303 l 339 167 q 393 463 357 292 l 447 706 l 783 706 l 838 463 q 892 167 874 292 l 894 167 q 931 460 907 303 l 968 706 l 1225 706 l 1067 0 l 714 0 m 763 781 l 560 781 l 363 989 l 651 989 l 763 781 z "},"Ẃ":{"ha":1424,"x_min":8,"x_max":1415,"o":"m 847 0 l 772 399 q 714 772 732 626 l 711 772 q 651 399 692 610 l 576 0 l 201 0 l 8 989 l 278 989 l 338 636 q 396 236 369 451 l 399 236 q 464 636 424 432 l 533 989 l 890 989 l 960 636 q 1026 236 999 443 l 1029 236 q 1086 636 1053 436 l 1147 989 l 1415 989 l 1222 0 l 847 0 m 564 1056 l 675 1272 l 964 1272 l 767 1056 l 564 1056 z "},"ẃ":{"ha":1231,"x_min":6,"x_max":1225,"o":"m 714 0 l 664 251 q 617 544 638 383 l 614 544 q 567 251 593 383 l 517 0 l 164 0 l 6 706 l 263 706 l 300 460 q 336 167 324 303 l 339 167 q 393 463 357 292 l 447 706 l 783 706 l 838 463 q 892 167 874 292 l 894 167 q 931 460 907 303 l 968 706 l 1225 706 l 1067 0 l 714 0 m 468 781 l 579 989 l 868 989 l 671 781 l 468 781 z "},"Ẅ":{"ha":1424,"x_min":8,"x_max":1415,"o":"m 847 0 l 772 399 q 714 772 732 626 l 711 772 q 651 399 692 610 l 576 0 l 201 0 l 8 989 l 278 989 l 338 636 q 396 236 369 451 l 399 236 q 464 636 424 432 l 533 989 l 890 989 l 960 636 q 1026 236 999 443 l 1029 236 q 1086 636 1053 436 l 1147 989 l 1415 989 l 1222 0 l 847 0 m 435 1068 l 435 1264 l 660 1264 l 660 1068 l 435 1068 m 763 1068 l 763 1264 l 989 1264 l 989 1068 l 763 1068 z "},"ẅ":{"ha":1231,"x_min":6,"x_max":1225,"o":"m 714 0 l 664 251 q 617 544 638 383 l 614 544 q 567 251 593 383 l 517 0 l 164 0 l 6 706 l 263 706 l 300 460 q 336 167 324 303 l 339 167 q 393 463 357 292 l 447 706 l 783 706 l 838 463 q 892 167 874 292 l 894 167 q 931 460 907 303 l 968 706 l 1225 706 l 1067 0 l 714 0 m 339 793 l 339 989 l 564 989 l 564 793 l 339 793 m 667 793 l 667 989 l 893 989 l 893 793 l 667 793 z "},"ẞ":{"ha":1149,"x_min":82,"x_max":1111,"o":"m 1111 274 q 1013 55 1111 132 q 747 -22 915 -22 q 497 54 583 -22 q 411 285 411 131 l 649 285 q 740 188 649 188 q 807 210 783 188 q 831 276 831 233 q 766 384 831 347 q 574 429 701 421 l 574 613 l 707 761 q 582 793 658 793 q 417 733 474 793 q 360 554 360 672 l 360 0 l 82 0 l 82 550 q 215 894 82 776 q 601 1011 349 1011 q 857 957 740 1011 q 1047 811 974 903 l 850 589 q 1111 274 1111 508 z "},"Ỳ":{"ha":957,"x_min":0,"x_max":956,"o":"m 617 0 l 339 0 l 339 361 l 0 989 l 306 989 l 383 815 q 476 571 442 685 l 479 571 q 574 815 517 689 l 651 989 l 956 989 l 617 361 l 617 0 m 626 1056 l 424 1056 l 226 1272 l 515 1272 l 626 1056 z "},"ỳ":{"ha":774,"x_min":-17,"x_max":786,"o":"m 568 31 q 488 -147 532 -83 q 383 -239 444 -211 q 228 -267 321 -267 q 89 -253 144 -267 l 89 -61 q 154 -69 121 -69 q 219 -52 196 -69 q 242 0 242 -35 q 235 39 242 15 q 197 144 228 63 l -17 706 l 272 706 l 335 471 q 400 178 372 326 l 403 178 q 460 472 424 311 l 514 706 l 786 706 l 568 31 m 539 781 l 336 781 l 139 989 l 428 989 l 539 781 z "},"‐":{"ha":490,"x_min":42,"x_max":449,"o":"m 42 313 l 42 499 l 449 499 l 449 313 l 42 313 z "},"–":{"ha":694,"x_min":28,"x_max":667,"o":"m 28 313 l 28 499 l 667 499 l 667 313 l 28 313 z "},"—":{"ha":1389,"x_min":28,"x_max":1361,"o":"m 28 313 l 28 499 l 1361 499 l 1361 313 l 28 313 z "},"―":{"ha":1389,"x_min":28,"x_max":1361,"o":"m 28 313 l 28 499 l 1361 499 l 1361 313 l 28 313 z "},"‗":{"ha":694,"x_min":0,"x_max":694,"o":"m 0 -204 l 0 -69 l 694 -69 l 694 -204 l 0 -204 m 0 -437 l 0 -303 l 694 -303 l 694 -437 l 0 -437 z "},"‘":{"ha":385,"x_min":76,"x_max":336,"o":"m 203 989 l 336 989 l 236 771 l 313 771 l 313 535 l 76 535 l 76 771 l 203 989 z "},"’":{"ha":385,"x_min":49,"x_max":308,"o":"m 182 535 l 49 535 l 149 751 l 72 751 l 72 989 l 308 989 l 308 751 l 182 535 z "},"‚":{"ha":385,"x_min":49,"x_max":308,"o":"m 182 -217 l 49 -217 l 149 0 l 72 0 l 72 238 l 308 238 l 308 0 l 182 -217 z "},"‛":{"ha":385,"x_min":76,"x_max":336,"o":"m 313 751 l 236 751 l 336 535 l 203 535 l 76 751 l 76 989 l 313 989 l 313 751 z "},"“":{"ha":688,"x_min":76,"x_max":639,"o":"m 203 989 l 336 989 l 236 771 l 313 771 l 313 535 l 76 535 l 76 771 l 203 989 m 506 989 l 639 989 l 539 771 l 615 771 l 615 535 l 379 535 l 379 771 l 506 989 z "},"”":{"ha":688,"x_min":49,"x_max":611,"o":"m 182 535 l 49 535 l 149 751 l 72 751 l 72 989 l 308 989 l 308 751 l 182 535 m 485 535 l 351 535 l 451 751 l 375 751 l 375 989 l 611 989 l 611 751 l 485 535 z "},"„":{"ha":688,"x_min":49,"x_max":611,"o":"m 182 -217 l 49 -217 l 149 0 l 72 0 l 72 238 l 308 238 l 308 0 l 182 -217 m 485 -217 l 351 -217 l 451 0 l 375 0 l 375 238 l 611 238 l 611 0 l 485 -217 z "},"†":{"ha":900,"x_min":83,"x_max":817,"o":"m 817 774 l 817 543 l 585 543 l 585 -167 l 315 -167 l 315 543 l 83 543 l 83 772 l 315 772 l 315 989 l 585 989 l 585 774 l 817 774 z "},"‡":{"ha":900,"x_min":83,"x_max":817,"o":"m 817 774 l 817 551 l 585 551 l 585 271 l 817 271 l 817 49 l 585 49 l 585 -167 l 315 -167 l 315 49 l 83 49 l 83 271 l 315 271 l 315 551 l 83 551 l 83 774 l 315 774 l 315 989 l 585 989 l 585 774 l 817 774 z "},"•":{"ha":582,"x_min":56,"x_max":526,"o":"m 290 260 q 258 260 290 260 q 173 291 226 260 q 88 376 119 322 q 56 494 56 431 q 88 613 56 558 q 173 698 119 667 q 290 729 226 729 q 408 698 354 729 q 494 613 463 667 q 526 494 526 558 q 494 376 526 431 q 408 291 463 322 q 290 260 354 260 z "},"…":{"ha":1374,"x_min":63,"x_max":1311,"o":"m 63 0 l 63 278 l 340 278 l 340 0 l 63 0 m 547 0 l 547 278 l 825 278 l 825 0 l 547 0 m 1033 0 l 1033 278 l 1311 278 l 1311 0 l 1033 0 z "},"‰":{"ha":1588,"x_min":42,"x_max":1546,"o":"m 197 -42 l 731 978 l 896 978 l 363 -42 l 197 -42 m 264 965 q 317 965 264 965 q 428 900 371 965 q 486 711 486 835 q 428 523 486 589 q 264 457 371 457 q 99 523 157 457 q 42 711 42 589 q 99 900 42 835 q 264 965 157 965 m 264 836 q 235 836 264 836 q 207 711 207 836 q 264 586 207 586 q 321 711 321 586 q 264 836 321 836 m 835 476 q 888 476 835 476 q 999 411 942 476 q 1057 222 1057 346 q 999 34 1057 100 q 835 -32 942 -32 q 670 34 728 -32 q 613 222 613 100 q 670 411 613 346 q 835 476 728 476 m 1324 476 q 1377 476 1324 476 q 1488 411 1431 476 q 1546 222 1546 346 q 1488 34 1546 100 q 1324 -32 1431 -32 q 1159 34 1217 -32 q 1101 222 1101 100 q 1159 411 1101 346 q 1324 476 1217 476 m 835 347 q 792 317 806 347 q 778 222 778 286 q 835 97 778 97 q 890 222 890 97 q 835 347 890 347 m 1324 347 q 1295 347 1324 347 q 1267 222 1267 347 q 1324 97 1267 97 q 1381 222 1381 97 q 1324 347 1381 347 z "},"′":{"ha":361,"x_min":42,"x_max":319,"o":"m 42 590 l 85 936 l 319 936 l 210 590 l 42 590 z "},"″":{"ha":640,"x_min":42,"x_max":608,"o":"m 331 590 l 374 936 l 608 936 l 499 590 l 331 590 m 42 590 l 85 936 l 319 936 l 210 590 l 42 590 z "},"‹":{"ha":499,"x_min":57,"x_max":442,"o":"m 442 75 l 215 75 l 57 353 l 215 631 l 442 631 l 297 353 l 442 75 z "},"›":{"ha":499,"x_min":57,"x_max":442,"o":"m 442 354 l 283 76 l 57 76 l 201 354 l 57 632 l 283 632 l 442 354 z "},"‼":{"ha":904,"x_min":103,"x_max":801,"o":"m 538 310 l 496 989 l 801 989 l 760 310 l 538 310 m 510 0 l 510 224 l 788 224 l 788 0 l 510 0 m 144 310 l 103 989 l 408 989 l 367 310 l 144 310 m 117 0 l 117 224 l 394 224 l 394 0 l 117 0 z "},"‽":{"ha":822,"x_min":35,"x_max":776,"o":"m 553 900 q 718 807 660 874 q 776 642 776 740 q 746 517 776 567 q 632 415 715 467 q 538 350 561 374 q 515 293 515 326 l 290 293 q 289 326 289 303 q 298 397 289 368 q 332 452 307 425 q 407 517 357 479 q 479 583 463 558 q 496 642 496 607 q 474 699 496 678 q 413 721 451 721 q 335 692 361 721 q 308 600 310 663 l 35 600 q 94 793 36 718 q 261 897 153 868 l 256 989 l 558 989 l 553 900 m 542 224 l 542 0 l 264 0 l 264 224 l 542 224 z "},"‾":{"ha":694,"x_min":0,"x_max":694,"o":"m 0 1076 l 0 1236 l 694 1236 l 694 1076 l 0 1076 z "},"⁄":{"ha":208,"x_min":-219,"x_max":428,"o":"m -219 0 l 275 936 l 428 936 l -67 0 l -219 0 z "},"⁰":{"ha":683,"x_min":36,"x_max":647,"o":"m 342 1129 q 415 1129 342 1129 q 568 1040 489 1129 q 647 786 647 950 q 568 533 647 622 q 342 443 489 443 q 115 533 194 443 q 36 786 36 622 q 115 1040 36 950 q 342 1129 194 1129 m 342 976 q 319 976 342 976 q 275 927 297 976 q 253 786 253 878 q 275 645 253 694 q 342 596 297 596 q 408 645 386 596 q 431 786 431 694 q 408 927 431 878 q 342 976 386 976 z "},"⁴":{"ha":672,"x_min":15,"x_max":657,"o":"m 536 575 l 536 458 l 328 458 l 328 575 l 15 575 l 15 738 l 264 1114 l 536 1114 l 536 731 l 657 731 l 657 575 l 536 575 m 336 731 l 336 790 q 343 967 336 869 l 342 967 q 253 821 296 886 l 192 731 l 336 731 z "},"⁵":{"ha":665,"x_min":42,"x_max":625,"o":"m 265 944 l 257 854 l 260 854 q 397 896 318 896 q 561 838 497 896 q 625 686 625 779 q 544 509 625 575 q 331 443 464 443 q 119 499 197 443 q 42 656 42 556 l 260 656 q 280 610 260 626 q 333 593 300 593 q 391 614 371 593 q 411 675 411 635 q 390 735 411 714 q 335 757 369 757 q 261 701 279 757 l 53 714 l 90 1114 l 579 1114 l 579 944 l 265 944 z "},"⁶":{"ha":654,"x_min":36,"x_max":622,"o":"m 344 1129 q 534 1074 463 1129 q 614 919 606 1019 l 399 919 q 335 983 392 983 q 272 947 296 983 q 246 833 249 910 l 249 833 q 400 883 304 883 q 560 826 499 883 q 622 678 622 769 q 586 556 622 610 q 486 473 550 503 q 339 443 422 443 q 116 528 196 443 q 36 776 36 614 q 119 1035 36 940 q 344 1129 201 1129 m 340 747 q 324 747 340 747 q 288 726 308 747 q 268 671 268 706 q 288 615 268 636 q 340 594 308 594 q 392 615 372 594 q 411 671 411 636 q 392 726 411 706 q 340 747 372 747 z "},"⁷":{"ha":594,"x_min":15,"x_max":579,"o":"m 579 953 q 450 725 504 854 q 368 458 396 596 l 138 458 q 229 722 168 593 q 365 939 290 850 l 15 939 l 15 1114 l 579 1114 l 579 953 z "},"⁸":{"ha":656,"x_min":36,"x_max":619,"o":"m 328 1129 q 390 1129 328 1129 q 528 1078 453 1129 q 603 943 603 1026 q 569 851 603 890 q 476 800 535 813 l 476 797 q 580 742 540 786 q 619 639 619 699 q 543 494 619 546 q 328 443 467 443 q 113 494 189 443 q 36 639 36 546 q 75 742 36 699 q 178 797 114 786 l 178 800 q 86 851 119 813 q 53 943 53 890 q 128 1078 53 1026 q 328 1129 203 1129 m 328 983 q 310 983 328 983 q 272 967 293 983 q 251 924 251 951 q 272 879 251 896 q 328 863 293 863 q 383 879 363 863 q 403 924 403 896 q 383 967 403 951 q 328 983 363 983 m 328 718 q 310 718 328 718 q 271 701 292 718 q 250 656 250 685 q 271 608 250 625 q 328 592 292 592 q 384 608 364 592 q 404 656 404 625 q 384 701 404 685 q 328 718 364 718 z "},"⁹":{"ha":654,"x_min":32,"x_max":618,"o":"m 310 443 q 121 498 193 443 q 40 653 49 553 l 256 653 q 319 589 264 589 q 382 626 358 589 q 408 739 406 663 l 406 739 q 254 689 350 689 q 94 746 156 689 q 32 894 32 803 q 68 1016 32 963 q 169 1099 104 1069 q 315 1129 233 1129 q 538 1044 458 1129 q 618 796 618 958 q 535 538 618 632 q 310 443 453 443 m 315 825 q 367 846 347 825 q 386 901 386 867 q 367 957 386 936 q 315 978 347 978 q 263 957 283 978 q 243 901 243 936 q 263 846 243 867 q 315 825 282 825 z "},"⁺":{"ha":571,"x_min":53,"x_max":518,"o":"m 518 849 l 518 686 l 371 686 l 371 540 l 201 540 l 201 686 l 53 686 l 53 849 l 201 849 l 201 993 l 371 993 l 371 849 l 518 849 z "},"⁻":{"ha":571,"x_min":53,"x_max":518,"o":"m 53 686 l 53 849 l 518 849 l 518 686 l 53 686 z "},"⁼":{"ha":571,"x_min":53,"x_max":518,"o":"m 53 803 l 53 951 l 518 951 l 518 803 l 53 803 m 53 581 l 53 729 l 518 729 l 518 581 l 53 581 z "},"⁽":{"ha":383,"x_min":39,"x_max":354,"o":"m 354 1179 q 278 958 301 1061 q 256 747 256 854 q 278 538 256 640 q 354 315 301 436 l 188 315 q 74 527 108 424 q 39 747 39 631 q 74 968 39 864 q 188 1179 108 1072 l 354 1179 z "},"⁾":{"ha":383,"x_min":29,"x_max":344,"o":"m 29 315 q 103 535 81 432 q 126 747 126 639 q 103 957 126 854 q 29 1179 81 1060 l 196 1179 q 310 967 275 1071 q 344 747 344 863 q 310 526 344 631 q 196 315 275 422 l 29 315 z "},"₀":{"ha":683,"x_min":36,"x_max":647,"o":"m 342 432 q 415 432 342 432 q 568 342 489 432 q 647 89 647 253 q 568 -165 647 -75 q 342 -254 489 -254 q 115 -165 194 -254 q 36 89 36 -75 q 115 342 36 253 q 342 432 194 432 m 342 279 q 319 279 342 279 q 275 230 297 279 q 253 89 253 181 q 275 -52 253 -3 q 342 -101 297 -101 q 408 -52 386 -101 q 431 89 431 -3 q 408 230 431 181 q 342 279 386 279 z "},"₁":{"ha":476,"x_min":14,"x_max":400,"o":"m 182 -239 l 182 143 l 14 143 l 14 299 q 151 326 106 299 q 206 417 196 354 l 400 417 l 400 -239 l 182 -239 z "},"₂":{"ha":672,"x_min":42,"x_max":633,"o":"m 336 432 q 485 405 421 432 q 582 330 549 378 q 615 224 615 282 q 567 98 615 146 q 431 18 519 50 q 323 -31 350 -12 q 292 -71 296 -49 l 633 -71 l 633 -239 l 43 -239 q 42 -193 42 -228 q 85 -13 42 -82 q 236 104 128 56 q 359 168 322 143 q 396 226 396 193 q 381 264 396 250 q 338 278 365 278 q 285 256 306 278 q 265 194 265 235 l 50 194 q 125 370 50 308 q 336 432 200 432 z "}}}
